<mxfile host="app.diagrams.net" modified="2023-10-12T04:31:58.431Z" agent="Mozilla/5.0 (Windows NT 10.0; Win64; x64) AppleWebKit/537.36 (KHTML, like Gecko) Chrome/117.0.0.0 Safari/537.36" etag="cK_mUsIx_lGDlQxNsvfP" version="22.0.4" type="device">
  <diagram name="Page-1" id="ZpRZFloEyqCtFJVJgUdO">
    <mxGraphModel dx="794" dy="456" grid="1" gridSize="10" guides="1" tooltips="1" connect="1" arrows="1" fold="1" page="1" pageScale="1" pageWidth="850" pageHeight="1100" math="0" shadow="0">
      <root>
        <mxCell id="0" />
        <mxCell id="1" parent="0" />
        <mxCell id="U-0KYbAQYJ0Kd4MkvcGv-37" value="" style="rounded=1;whiteSpace=wrap;html=1;dashed=1;" vertex="1" parent="1">
          <mxGeometry x="366.25" y="137.5" width="303.75" height="102.5" as="geometry" />
        </mxCell>
        <mxCell id="U-0KYbAQYJ0Kd4MkvcGv-33" value="" style="rounded=1;whiteSpace=wrap;html=1;dashed=1;" vertex="1" parent="1">
          <mxGeometry x="170" y="90" width="60" height="210" as="geometry" />
        </mxCell>
        <mxCell id="U-0KYbAQYJ0Kd4MkvcGv-1" value="Bearing 1" style="rounded=1;whiteSpace=wrap;html=1;" vertex="1" parent="1">
          <mxGeometry x="40" y="110" width="120" height="20" as="geometry" />
        </mxCell>
        <mxCell id="U-0KYbAQYJ0Kd4MkvcGv-2" value="Bearing 2" style="rounded=1;whiteSpace=wrap;html=1;" vertex="1" parent="1">
          <mxGeometry x="40" y="160" width="120" height="20" as="geometry" />
        </mxCell>
        <mxCell id="U-0KYbAQYJ0Kd4MkvcGv-3" value="Bearing 3" style="rounded=1;whiteSpace=wrap;html=1;" vertex="1" parent="1">
          <mxGeometry x="40" y="210" width="120" height="20" as="geometry" />
        </mxCell>
        <mxCell id="U-0KYbAQYJ0Kd4MkvcGv-4" value="Bearing 4" style="rounded=1;whiteSpace=wrap;html=1;" vertex="1" parent="1">
          <mxGeometry x="40" y="260" width="120" height="20" as="geometry" />
        </mxCell>
        <mxCell id="U-0KYbAQYJ0Kd4MkvcGv-6" value="" style="sketch=0;outlineConnect=0;fontColor=#232F3E;gradientColor=none;fillColor=#080808;strokeColor=none;dashed=0;verticalLabelPosition=bottom;verticalAlign=top;align=center;html=1;fontSize=12;fontStyle=0;aspect=fixed;pointerEvents=1;shape=mxgraph.aws4.iot_thing_vibration_sensor;" vertex="1" parent="1">
          <mxGeometry x="190" y="107.5" width="25" height="25" as="geometry" />
        </mxCell>
        <mxCell id="U-0KYbAQYJ0Kd4MkvcGv-7" value="" style="sketch=0;outlineConnect=0;fontColor=#232F3E;gradientColor=none;fillColor=#080808;strokeColor=none;dashed=0;verticalLabelPosition=bottom;verticalAlign=top;align=center;html=1;fontSize=12;fontStyle=0;aspect=fixed;pointerEvents=1;shape=mxgraph.aws4.iot_thing_vibration_sensor;" vertex="1" parent="1">
          <mxGeometry x="190" y="157.5" width="25" height="25" as="geometry" />
        </mxCell>
        <mxCell id="U-0KYbAQYJ0Kd4MkvcGv-8" value="" style="sketch=0;outlineConnect=0;fontColor=#232F3E;gradientColor=none;fillColor=#080808;strokeColor=none;dashed=0;verticalLabelPosition=bottom;verticalAlign=top;align=center;html=1;fontSize=12;fontStyle=0;aspect=fixed;pointerEvents=1;shape=mxgraph.aws4.iot_thing_vibration_sensor;" vertex="1" parent="1">
          <mxGeometry x="190" y="207.5" width="25" height="25" as="geometry" />
        </mxCell>
        <mxCell id="U-0KYbAQYJ0Kd4MkvcGv-9" value="" style="sketch=0;outlineConnect=0;fontColor=#232F3E;gradientColor=none;fillColor=#080808;strokeColor=none;dashed=0;verticalLabelPosition=bottom;verticalAlign=top;align=center;html=1;fontSize=12;fontStyle=0;aspect=fixed;pointerEvents=1;shape=mxgraph.aws4.iot_thing_vibration_sensor;" vertex="1" parent="1">
          <mxGeometry x="190" y="257.5" width="25" height="25" as="geometry" />
        </mxCell>
        <mxCell id="U-0KYbAQYJ0Kd4MkvcGv-10" value="" style="endArrow=classic;html=1;rounded=0;exitX=1;exitY=0.5;exitDx=0;exitDy=0;" edge="1" parent="1" source="U-0KYbAQYJ0Kd4MkvcGv-1" target="U-0KYbAQYJ0Kd4MkvcGv-6">
          <mxGeometry width="50" height="50" relative="1" as="geometry">
            <mxPoint x="380" y="260" as="sourcePoint" />
            <mxPoint x="430" y="210" as="targetPoint" />
          </mxGeometry>
        </mxCell>
        <mxCell id="U-0KYbAQYJ0Kd4MkvcGv-11" value="" style="endArrow=classic;html=1;rounded=0;exitX=1;exitY=0.5;exitDx=0;exitDy=0;" edge="1" parent="1" source="U-0KYbAQYJ0Kd4MkvcGv-2" target="U-0KYbAQYJ0Kd4MkvcGv-7">
          <mxGeometry width="50" height="50" relative="1" as="geometry">
            <mxPoint x="380" y="260" as="sourcePoint" />
            <mxPoint x="430" y="210" as="targetPoint" />
          </mxGeometry>
        </mxCell>
        <mxCell id="U-0KYbAQYJ0Kd4MkvcGv-12" value="" style="endArrow=classic;html=1;rounded=0;exitX=1;exitY=0.5;exitDx=0;exitDy=0;" edge="1" parent="1" source="U-0KYbAQYJ0Kd4MkvcGv-3" target="U-0KYbAQYJ0Kd4MkvcGv-8">
          <mxGeometry width="50" height="50" relative="1" as="geometry">
            <mxPoint x="380" y="260" as="sourcePoint" />
            <mxPoint x="430" y="210" as="targetPoint" />
          </mxGeometry>
        </mxCell>
        <mxCell id="U-0KYbAQYJ0Kd4MkvcGv-13" value="" style="endArrow=classic;html=1;rounded=0;exitX=1;exitY=0.5;exitDx=0;exitDy=0;" edge="1" parent="1" source="U-0KYbAQYJ0Kd4MkvcGv-4" target="U-0KYbAQYJ0Kd4MkvcGv-9">
          <mxGeometry width="50" height="50" relative="1" as="geometry">
            <mxPoint x="380" y="260" as="sourcePoint" />
            <mxPoint x="430" y="210" as="targetPoint" />
          </mxGeometry>
        </mxCell>
        <mxCell id="U-0KYbAQYJ0Kd4MkvcGv-14" value="" style="endArrow=none;html=1;rounded=0;" edge="1" parent="1" source="U-0KYbAQYJ0Kd4MkvcGv-6">
          <mxGeometry width="50" height="50" relative="1" as="geometry">
            <mxPoint x="380" y="260" as="sourcePoint" />
            <mxPoint x="320" y="200" as="targetPoint" />
          </mxGeometry>
        </mxCell>
        <mxCell id="U-0KYbAQYJ0Kd4MkvcGv-15" value="" style="endArrow=none;html=1;rounded=0;" edge="1" parent="1" source="U-0KYbAQYJ0Kd4MkvcGv-7">
          <mxGeometry width="50" height="50" relative="1" as="geometry">
            <mxPoint x="380" y="260" as="sourcePoint" />
            <mxPoint x="320" y="200" as="targetPoint" />
          </mxGeometry>
        </mxCell>
        <mxCell id="U-0KYbAQYJ0Kd4MkvcGv-16" value="" style="endArrow=none;html=1;rounded=0;" edge="1" parent="1" source="U-0KYbAQYJ0Kd4MkvcGv-8">
          <mxGeometry width="50" height="50" relative="1" as="geometry">
            <mxPoint x="380" y="260" as="sourcePoint" />
            <mxPoint x="320" y="200" as="targetPoint" />
          </mxGeometry>
        </mxCell>
        <mxCell id="U-0KYbAQYJ0Kd4MkvcGv-17" value="" style="endArrow=none;html=1;rounded=0;" edge="1" parent="1" source="U-0KYbAQYJ0Kd4MkvcGv-9">
          <mxGeometry width="50" height="50" relative="1" as="geometry">
            <mxPoint x="380" y="260" as="sourcePoint" />
            <mxPoint x="320" y="200" as="targetPoint" />
          </mxGeometry>
        </mxCell>
        <mxCell id="U-0KYbAQYJ0Kd4MkvcGv-20" value="" style="shape=cylinder3;whiteSpace=wrap;html=1;boundedLbl=1;backgroundOutline=1;size=15;" vertex="1" parent="1">
          <mxGeometry x="320" y="170" width="40" height="60" as="geometry" />
        </mxCell>
        <mxCell id="U-0KYbAQYJ0Kd4MkvcGv-21" value="&lt;font style=&quot;font-size: 9px;&quot;&gt;stored as tab separated csv file&lt;/font&gt;" style="text;html=1;strokeColor=none;fillColor=none;align=center;verticalAlign=middle;whiteSpace=wrap;rounded=0;" vertex="1" parent="1">
          <mxGeometry x="285" y="240" width="130" height="20" as="geometry" />
        </mxCell>
        <mxCell id="U-0KYbAQYJ0Kd4MkvcGv-23" value="" style="endArrow=classic;html=1;rounded=0;exitX=1;exitY=0.5;exitDx=0;exitDy=0;exitPerimeter=0;" edge="1" parent="1" source="U-0KYbAQYJ0Kd4MkvcGv-20">
          <mxGeometry width="50" height="50" relative="1" as="geometry">
            <mxPoint x="380" y="260" as="sourcePoint" />
            <mxPoint x="390" y="200" as="targetPoint" />
          </mxGeometry>
        </mxCell>
        <mxCell id="U-0KYbAQYJ0Kd4MkvcGv-40" style="edgeStyle=orthogonalEdgeStyle;rounded=0;orthogonalLoop=1;jettySize=auto;html=1;exitX=1;exitY=0.5;exitDx=0;exitDy=0;exitPerimeter=0;entryX=0;entryY=0.5;entryDx=0;entryDy=0;" edge="1" parent="1" source="U-0KYbAQYJ0Kd4MkvcGv-24" target="U-0KYbAQYJ0Kd4MkvcGv-39">
          <mxGeometry relative="1" as="geometry" />
        </mxCell>
        <mxCell id="U-0KYbAQYJ0Kd4MkvcGv-24" value="" style="verticalLabelPosition=bottom;shadow=0;dashed=0;align=center;html=1;verticalAlign=top;shape=mxgraph.electrical.abstract.sum;" vertex="1" parent="1">
          <mxGeometry x="395" y="189.63" width="20" height="22.5" as="geometry" />
        </mxCell>
        <mxCell id="U-0KYbAQYJ0Kd4MkvcGv-43" style="edgeStyle=orthogonalEdgeStyle;rounded=0;orthogonalLoop=1;jettySize=auto;html=1;exitX=0.5;exitY=1;exitDx=0;exitDy=0;entryX=0.5;entryY=0;entryDx=0;entryDy=0;" edge="1" parent="1" source="U-0KYbAQYJ0Kd4MkvcGv-25" target="U-0KYbAQYJ0Kd4MkvcGv-28">
          <mxGeometry relative="1" as="geometry" />
        </mxCell>
        <mxCell id="U-0KYbAQYJ0Kd4MkvcGv-25" value="FFT" style="rounded=1;whiteSpace=wrap;html=1;" vertex="1" parent="1">
          <mxGeometry x="590" y="191.25" width="60" height="18.75" as="geometry" />
        </mxCell>
        <mxCell id="U-0KYbAQYJ0Kd4MkvcGv-28" value="LSTM" style="rounded=1;whiteSpace=wrap;html=1;" vertex="1" parent="1">
          <mxGeometry x="575" y="257.5" width="90" height="20" as="geometry" />
        </mxCell>
        <mxCell id="U-0KYbAQYJ0Kd4MkvcGv-30" value="" style="shape=image;verticalLabelPosition=bottom;labelBackgroundColor=default;verticalAlign=top;aspect=fixed;imageAspect=0;image=data:image/png,iVBORw0KGgoAAAANSUhEUgAAA+cAAAIdCAYAAABfgAx3AAAAAXNSR0IArs4c6QAAAARnQU1BAACxjwv8YQUAAAAJcEhZcwAAFiUAABYlAUlSJPAAAABhaVRYdFNuaXBNZXRhZGF0YQAAAAAAeyJjbGlwUG9pbnRzIjpbeyJ4IjowLCJ5IjowfSx7IngiOjk5OSwieSI6MH0seyJ4Ijo5OTksInkiOjU0MX0seyJ4IjowLCJ5Ijo1NDF9XX0/5QoAAAD/OElEQVR4XuydB5xcVfm/3ynbUgiE3jsICAKCSvsh/AUUsYJUC4qgoiiKHQsqHUEFBARBUETFglhBmiAIgjTpvQQIBEIKyfad/c9zzrw7Z29mN5tkN5vd+T75TObOLeeedu++3/OekustY0IIIYQQQgghhBg18pVvIYQQQgghhBBCjBIS50IIIYQQQgghxCgjcS6EEEIIIYQQQowyEudCCCGEEEIIIcQoI3EuhBBCCCGEEEKMMhLnQgghhBBCCCHEKCNxLoQQQgghhBBCjDIS50IIIYQQQgghxCgjcS6EEEIIIYQQQowyEudCCCGEEEIIIcQoI3EuhBBCCCGEEEKMMrneMpXtpc7TTz9t999/vzU1Ndl2221nK6ywQuWIEEIIIYQQQghRP4ya53zOnDn2pz/9yVZbbTWbN2+eXX/99VYqlSpHhRBCCCGEEEKI+mHUxHmxWLS3v/3ttu2229pGG20UxHpPT0/lqBBCCCGEEEIIUT+MmjifOHGibbLJJjZ79my7+uqrbeONNw6CXQghhBBCCCGEqDdGdUK4559/3o499ljbYost7M1vfrPlcrnKESGEEEIIIYQQon4YNXE+f/58O+uss+zggw+2XXfdtbJXCCGEEEIIIYSoP4Z9tnYmdbv33nttnXXWsRVXXDHse+655+x///tf2N5yyy1t7bXXthdffNF+97vfhfPxmG+++eb21re+1QqFQjhPCCGEEEIIIYSoF4ZdnF911VV23nnn2be+9a0w2dsLL7xgp59+um266abW1tZmjz/+uJ166qnW0tJSuUIIIYQQQgghhKhvCseVqWwvEa2trfaDH/zAzjnnHFtuueVCV/XVV1/dbrrpJps5c6Z94QtfCGuZ87ujo8M222yzypWLR2xT0Bj1sYZPKzB6q+uLpUk6jYTKvH7Qc15f6DmvP1Tm9Yfe6/WHnvOhk+bVkjJsnvNZs2bZzTffbG9605vshBNOsEMPPdS22WabMK58lVVWsQMPPDCcd/755/d5zxcXYtza2lEW+V2VPWKs0NTUYPl8ztraOit7xHiGsp4yZYLNmdMWhrCIeiBnkyY1hfdzV5eWx6wHCoV8ucybbe7ctvLfZ1lw9QDDEXm3U+Z6t9cHjY1FKxYLZfsb+03PeT2Qz+dt8mS924cCw7KXW645vBuXlGHv1t7V1WXHHHNMnzhHqPP9zne+Mxy/7LLL7LrrrrMLL7ww/F4ciPH8+R0SeGOQlpYozufPV9nVA5T11KkTbdasVuvpkQFXD/B3iT/m7e1d1tkpcV4PFIsYcC02Z05rWajJgKsHeLevsMJEmz1b7/Z6oampaA0NhWB/S6fVBzS8TpnSEp5zvdsHh4ar5ZdvGRZxPuKztdOSkLaq9vT0WGNjY+WXEEIIIYQQQgghRlycr7nmmmFSOMBJzyztTA4nhBBCCCGEEGLx6e0tBUfo8H96auyr78/SYES7tTNb+5133hlmb//sZz8bJoI788wz7dvf/rZtuOGGlSsWHXVrH7uoW3t9oW7t9Ye6tdcf6tZef6hbe/2hbu3LHki4+fPnlLXXyNnUzDXQ2dld+SUKhaJNmDC5/HevobInMpzd2kdcnNPKcOWVV9oZZ5xRfrCb7Oijjw7jz5ck8hLnYxeJ8/pC4rz+kDivPyTO6w+J8/pD4nzZY86cmUGYT5o0JQwjHgl41vVejyCZW1vnl/Oju/z+W6Wfll2mxfnSQOJ87CJxXl9InNcfEuf1h8R5/SFxXn9InC9b0OX85ZefDyKxsbG5snf4YVI4PeNVmDtt9uyXbcqUFft5z8fUhHBCCCGEEEIIIYYHbwilm7VYeiC+83kmOx8554PEuRBCCCGEEEIIMQjD4BhfKBLnQgghhBBCCCGWiO7ubnv44Yesvb29skcsKhLnQgghhBBCCCGWiLa2NvvJT862mTNfruwRi4rEuRBCCCGEEEIIMcpotnaxVNFs7fWFZmuvPzRbe/2h2drrD83WXn9otvZlC7qPz5z5gq200hphUjjK5L//LdjcuZUTholCIVd+xnvLz3uvbbvtwp/11157zb71ra/aF7/4VVtzzbUre81eeulF+8UvLrZnnnk6/N5pp53t3e9+f5hg7dxzzyrvf6qchl7bcss32MEHf6hcz1rL+88sp/GVyvm72Pvfv3+5DvZfX9x5+eUZ9rGPfdDe/va97ZFHHg75s9tu/8/uv/8+mz79Bdtll13tgAMOLtujs+ySSy605557rmyjdNj6629ohx12hK244kp2ww3X2dVX/81aW+fZGmusZe973wfsda/brHKHSG9vqfzem2kTJ07uN0u+llKTOB+zSJzXFxLn9YfEef0hcV5/SJzXHxLnyxZZcV7+WRagE+2JJ0amU/TrX99j113XutAJ0QYS51/60ueCEN5//4PK4rfVzjnnR7bPPu+1CRMm2kUXnWfHHvud8nslb9dff43tvvseds01V5VF9kN29NFftrlz59hNN91QFucfKP+tWa4SYn8Q5x/60P72uc990XbccWc7++wflt9Ps8u/jwnXX3jhT8px+lo5fx4vi/XnbY893l62UzrsBz841T7wgQNs3XXXt1NOOd4OPfTw8vZ6duON19s999xlX//6t0O8HInzAZA4H7tInNcXEuf1h8R5/SFxXn9InNcfEufLFllxDi++mCsL37A5bPg655Mmma2yysILvpY4nz9/flmIv60smM+3LbbYMuy79NJLyuH2BMH92c9+ItzjLW/Zyf7f/3ubbbzxpvbUU0/al798dNmGXNF23vn/gmBfa621BxS/iPNPfOKj9qMfnWNrr72uXXbZz8v5M9M+85mjy3+b5thJJ33HPv3po23VVVe1u+++s/y5yx5//DG7//577bjjTihryvZwztSpU8v3yFtXV2fZhumyP/7x7+U8KFTusnTEucacCyGEEEIIIcQYZrXVem2DDUbmMxRhPhAIVrzPNCg4XV1dlS7qvWVRfLodeeRnQzfzE044zu644z+2wgpT7cc/viB0cX/++efs2GO/ZI8++nC8eAC4T3Xdd7bzC4jlX/3qUvv1r39p6623vh1++CdDgwCNTTQ4brXV1nb66WfbmWeeZz/84bl28smnh3gvbSTOhRBCCCGEEEIsMZ2dnWVB/XwYX86HceM77riLXXvt1WH896OPPmL33XePbbjhRvbQQw+GMeBrr71OEOKrrbZG8LT/4x9/tyuu+K29/vVb2Yc+9FFraWkJXvkl5b///Y9tt92bgiifO3du+f4PWKnUE+7D8m947Juamuw//7k1dLEfDSTOhRBCCCGEEEIsMdOmPWvf+c437DOfOSJ8vvrVL9iXv/x16+7usS984TN28snfC93Ut9nmjbb11tvYxIkTwzkc22ijjW377d9s73jHO23GjBn2uc99yr75za/abru9LUwWt6Qcdtgn7cYbb7CjjvpEWfz/Lojy556bFiaEO+SQj9hvfvNLO/zwj9hdd/3X3v72dw5LN/VFRWPOxVJFY87rC405rz/4O6Yx5/WFxpzXHxpzXn9ozPmyRa0x5yOBjzkXEU0INwAS52MXifP6QuK8/pA4rz8kzusPifP6Q+J82aIexfm9995jd9/93/LfmQXj8653vc9WXnnlyq+RQxPCCSGEEEIIIYSoa1ZZZdXQtZ2J27KfCRMmVM4a+8hzLpYq8pzXF/Kc1x/ynNcf8pzXH/Kc1x/ynC9bqFv76CDPuRBCCCGEEEIIUQdInAshhBBCCCGEEKOMxLkQQgghhBBCCDHKSJwLIYQQQgghhBCjjCaEE0sVTQhXX2hCuPpDE8LVH5oQrv7QhHD1hyaEW7ZYVieEO//8c+yOO26r/ErJ2ZZbbmXvfvf7bb311q/sGx6uueaqcl68Ygce+MHKnoXz05+eZ2ussabtvfe7KnsiDz/8oJ1xxinldFxS2dMfTQgnhBBCCCGEEGKZ55BDPmKnnvrD8Hn88cfs0EMPD9snnfR9mzbtWWtvb6ucOXy8+uqr9uKLL1Z+DY0XXng+CPos8+fPLwv0hyq/RgeJcyGEEEIIIYQYy5RKZl1dI/MZYneJiRMn2gorTA0fvMiTJ0+u/F6hHL2SPfroI/aHP1xuf//7n23GjBnhmgcfvN/+/e9/2ZVX/sHuvPMO6+zstNtvv6183m+DVxzxDfQWuOOO/9gVV/zW/vrXK+25554N+6Gzs8NuvPH6EPZ//nNrOboxvnPmzLbrrvtHCOvmm28MYWd55ZVXyvH5i/3pT1fY889Pq+wdPSTOhRBCCCGEEGKs0tNjy33yMFv+3W8f1s9y++wVvid/9lNDFugDMXPmzNDlfcUVV7L777/PLrvskiDY//vf20M384kTJ1k+nw8imc+kSZPs6aeftO9851h77bXXyqL732Vh/jtbbrkpwVN+0knf7RPbt956i02bNs1yubydc86PgsifM2eOnX76KXb33XdaS0uL/eUvf7If//iHfcIdXnttbtj3yCMPhXtfd921lSOjh8S5EEIIIYQQQoxZei3/wvNWePaZYf3kn3k6fk9/oXKfxWfixAn2/vd/wHbddXd7xzv2seeff65PKG+zzRttt93+n6255lp2yy032WGHHWHbbffm8vkHBAF9/fXX2PTp08O8NltuubXtu+/+9slPHtU3xnvTTTezD37wI/a+9+1n6623od111532v//dE7zuX/zi18L9jj76i3b11X+3J554PFwDePLxrh999Jdsn33eY29/+96VI6OHxLkQQgghhBBCjFUKRZt95d9t5t0PDutn9v8eCt9zLv9jnPF1CWhpmRA+UCz6JHZRnK+wworBc93a2mrz5s2zSy+9xH7yk7Pt/PN/bBtssFHwlr/1rbvbWmutY2eccbL98IffDwK8o6MjXL/qqquFb5gwocW6ujpt7tw5tsYaa1T2mq222urW1NRUFuwzK3sYYz4vdLl3CH+0kTgXQgghhBBCiLFMoWDW2DjMn6b4XRbOS8pgM5kzKzwgnumC/qEPfdS+8IWvBI/2WmutbausskrwtL/tbXsGT/j++x9sV1/919B9HRYMuzd0k/dx7fDyyy+HbvDLL798ZQ9CnlUnZld+MbncgpPELW0kzoUQQgghhBBCjCqrrLKqbbHFlnbqqSfYAw/cFyZ4+9Of/mBTp64Uxp9///sn27PPPlsW3S8Fob3mmmtWrlwQlm5ra2u1s846I4w7x+O+1VZvsI022qRyBt3hXxc89med9YMw2dzvf3955cjoUTiuTGV7TNHV1WPd3VpDd6zBGpm0blF+YvxDWbe0NIY1r9MJOMT4hcZr1sPt7i5ZT4/KvB5gzeumpgbr6OA5r+wU4xq92+uPYjEfvJuy35YNmEitre01mzBhchCXIwXv98V9xl9+eYZtv/1bQpd0mDt3bhDDkyZNDjOv9/T02Oabvz4IaCaJY7w5aWEf64bTbZ13zSc+8RlbZ511bf31Nwxe9bvu+m9YBu3ggz8UhDzXT5kyJXR/B8aor776GiGc7bbbPkwUx/rlm2++lR1xxJFlLdIQ4kIX9g033Ni23npbe+aZp+zJJ5+wnXf+v3L8lgvftekNy8E1Njb1W1+eeDc3N4T4Lim5coaPubcqMZ4/v6NcGAtOhy+WbVpaGsKDPn++yq4eoKynTp1os2a1ll/CpcpeMZ7h79Lkyc3BaO/slBFXD2C0T57cYnPmtJYNRgm1eoB3+wor0B1U7/Z6gUZXHCzY32qPGX0QtzNnvmArrbRGP5E43NAgo2e8Sm9vqfzem2kTJ04uC/Tmyl7+DhZs+eVbhkWcq1u7EEIIIYQQQggxykicCyGEEEIIIYQQo4zEuRBCCCGEEEKMMTTEYOkS83tkM13iXAghhBBCCCHGCL70WHd3V/gWSwcm4uMzkuP8NSGcWKpoQrj6QhPC1R+aEK7+0IRw9YcmhKs/NCHcssf8+a+V/9bODzOHj9SM7YSLGBVRf3Z1dQRhPnnyCv0mf9OEcEIIIYQQQghRp0yYMMkmTVq+LKAL5V+IwuH9IDSry4PpQz60tJDnU4ZFhA+EPOdiqSLPeX0hz3n9wd8rec7rC3nO6w95zusPec7rD7rOT5nSEp5zvdsHR55zIYQQQgghhBBiHCFxLoQQQgghhBBCjDIS50IIIYQQQgghxCgjcS6EEEIIIYQQQowyEudCCCGEEEIIIcQoI3EuhBBCCCGEEEKMMhLnQgghhBBCCCHEKCNxLoQQQgghhBBCjDIS50IIIYQQQgghxCgjcS6EEEIIIYQQQowyEudCCCGEEEIIIcQoI3EuhBBCCCGEEGJUmTkzZ1dcUbSOjsqOOkTiXAghhBBCCCHEqHL//Xn79Kdb7LHH6leiSpwLIYQQQgghhBhVWltz1t1tNmtWrrKn/pA4F0IIIYQQQggxqrS2xu958yTOhRBCCCGEEEKIUcFF+Wuvha+6ROJcCCGEEEIIIcSoMn9+/JbnXAghhBBCCCGEGCXmz3fPucS5EEIIIYQQQggxKrg4l+dcCCGEEEIIIYRYijz6aN4eeihvvb2p5zx81SUS50IIIYQQQgghljqf/nRz+HR0VMecS5wLIYQQQgghhBBLkXvvLdj99xespyenbu1lJM6FEEIIIYQQQowaXV2arR0kzoUQQgghhBBCLFXa2iobZZ55puo512ztQgghhBBCCCHEUuLpp6tS9LbbCjZnTtzWmHMhhBBCCCGEEGIp8cQTVSn6zW822+OPF8L2K6/k7dpri9beHn7WFRLnQgghhBBCCCGWKojzFVbote2377F8okrnzMnZ177WZHffHcV6PSFxLoQQQgghhBBiqfLkk3lbaaVe+/7322277boreyOMP0/HpNcLEudCCCGEEEIIIZYqL72Us+bmXpswodd23LGnsjfC/uWWq/yoIyTOhRBCCCGEEEIsVZgArqEhft7ylv7iPJeLn3pD4lwIIYQQQgghxIjTU9bg55/fYNOm5e211/JWLEZxvttuPXbsse32pjdFkV4qxXPrDYlzIYQQQgghhBAjzs03F+xb32q2m24qhCXTXJzjJf/c57ps003LqryMxLkQQgghhBBCCDFC3HhjIQjvhx/Oh1nZi8XesjjvrRw122uvbmtp6ZU4F0IIIYQQQgghRoqbby6G7/vuy1t7O+I8es6dPffstm99q8N6e3MS50IIIYQQQgghxHBDN/YHHsiHLuz33x896D4hXEpTU+zWzqfekDgXQgghhBBCCDGiPPVU3rq6crb66qWyUI9TsbNkWnZW9sbGKMy7u+tvunaJcyGEEEIIIYQQIwrrmsP665fKAjyOM58wIXz1g2Macy6EEEIIIYQQQgwjp57aaF/8YpM9+WSUnmut1WvNzWEzTP6WhW7tveXd6tYuhBBCCCGEEEIME7//fYPdc0/BHn64EH6vuWapT5zLc94fiXMhhBBCCCGEEMMOInvatJy1tubCN+A5b2qKHvOBPOcS50IIIYQQQgghxDAxc2YuTOzW2opIj9Jz4Z5ziXMhhBBCCCGEEGLYmDEjestnz87Ziy/mLJ/vtTXWYMz5YJ7z3jDmvKdHs7ULIYQQQgghhBBLjM/QTrf2tracrbpqr02eTLf2sNsmTFhQnMtzLoQQQgghhBBCDCPuOXfWXjsK86rnPHz1I4rznMS5EEIIIYQQQggxHMyY0V9ubrJJKXRbH8xzznF5zoUQQgghhBBCiGHCu7U7739/Z8VzHn83NMTvFDznccx5ZUcdIXEuhBBCCCGEEGJYefbZnN1xR8FWXJEJ4OISaTvuWAqCvKEhesy7usJXP6oTwlV21BES50IIIYQQQgghhpXbbivYgw8W7KST2u2wwzrtU5/qsHxGfa6wQq1u7fG7uzt60OsJiXMhhBBCCCGEEMMGopo1znvLG+96V7d95Ssd9sUvdlaOWvl3p/3kJ2229dalyp4qdGsH1keXOBdCCCGEEEIIIRYTRPX8+TmbONGsUIhjzF10wwYblOx97+u2YrGyIwHveqHQGzzn9YbEuRBCCCGEEEKIYQNx3tpqZXG+eK5vhLy6tQshhBBCCCGEEItIZ6fZaac12h/+UKyIczzni6eumTRO3dqFEEIIIYQQQohFhG7sp53WZMccE9dJQ5xPmhQ2F5kozis/6giJcyGEEEIIIYQQSwyiGpE+b15uibq1uziX51wIIYQQQgghhFgEcjmzYjGq6VtvLVS6tYefiwzroLMGusS5EEIIIYQQQgixCOApb2srK/QyN96IODebNGnxPec9PRLnQgghhBBCCCHEIvHSS1GYw3PP0a198SeEa2zUUmpCCCGEEEIIIcQi89JLVWk5fXq+4jmv7FhE8Jx3dWm2diGEEEIIIYQQYpF48cWcNTf3hjXK2WZiuCWZEE7d2oUQQgghhBBCiEWEbu0rrdRrkyf32quv5mzu3CWfEK7ekDgXQgghhBBCCLFE4C1ffvlemzq113p64nJqSzIhnJZSE0IIIYQQQgghhgDi+Y9/LNqBB7aEceZ4yldfvdR3TN3aFw2JcyGEEEIIIYQQi0yprMMfeSRv119ftGeeyduECb222mpRUbPu+YQJYXOR8QnhyqHEHXWCxLkQQgghhBBCiEUGcc6SafDss3lrbrY+cc648aamxXN9M6ncf/9bsL/+tVjZUx8sE+J87ty59u1vf9tmz55d2SOEEEIIIYQQYlmCceDpRG1RnMdt9jNb+yqrxG7tK6zA5HBhc5Hp6uota8OcPfBAffmSl4nUXn755Xbvvfdab70NKhBCCCGEEEKIMQBS7aKLGuz00xv7BDr73HMOTU1RlMMWW5Rsgw2iUF9Udtutx/beu9s+85nOyp76YJkQ53vuuadttdVWlV9CCCGEEEIIIZYl5szJ2aWXNtrPftZoP/5xo91zT76f55wx5i0tvWVdV7IVVyzZPvt09wn1ReXAA7vszDPbw9Js9cQyIc7XWWcda2DUvxBCCCGEEEKIEQNB3da26DOhP/98zubPN5s1K2cnnthk3/xmUzmsXJ/nHHE+aZLZppuW7KGH5tsHP9gV9i0OTCS33HK9i339WKW+OvELIYQQQgghRB1z4YUNtv/+LXbXXYXKnqExbVo+rF3uvPZart+EcAjpxV06TUQkzoUQQgghhBCiTjjrrEa7/fZi6Ja+KDz3XK6fOGdG9TjmPP7Ol4NjnXOx+IyIOGditz//+c926KGHVvYw416XfeUrX7EddtjBPvrRj9r06dMrRyLf/OY3bYUVVqj8EuObOuufIkRdoedbCCGEWJZh/XBEdW/v0P9mM0v788/n+yaCg0Kh/1JqsVu7POdLQq4spIc1B1tbW+2vf/2rXXTRRbbqqqvaxRdfHMT6McccYyuttJIdcsgh9ve//90efPBBO/HEE8sFOKly5aLR0dFdriQ9lV9irFAsFiyfz1lnZ/kJF+OeXPkt3dLSaO3tneWXt17W9QB/mBsbG8L7uadn8WZoFWML3ulNTQ3hOR9ei0Isq8R3O2XepXd7nVAs5svPel722zhhvfUa7ZVXcnbaad32qU/V1lPVd3tX0HKMUf/Sl4plbVftCr/xxiW77LIu22efRnvppVxY4/wnP+myffetr7//5FVzc0N4Ny4pwy7Ob7vtNrv22mvL4rnDpk2bFsT5jBkzbPfdd7crr7zSNtxww7LR1m0f//jHywX8Jdtiiy0qVy4aHR1d1tUlcT7WaGgoBuOdshvmqieWQXhZIc7b2jDgJNTqAf4wNTUVwzMucV4fYLBjlLS1Ic71Xq8HeM4nTNC7vZ7AuVIoRHGu53zss/76TX3i/JOfrN3gkn23M778058u2p//nC9ruShCW1rMttzS7K67omed35de2mV77llfGo1nY5kV587Pf/5zu/7664M4Zw3zAw44wO67776+WdmPOuooO/DAA22nnXYKvxcFYjx/fkeoLGJsQUs7gm3+fJVdPUBZT5060WbNapVQqxP4uzR5cnNoae/sVANqPYBHbfLkFpszp1Ve1DqBd/sKK0y02bP1bq8XaHRtaCgE+1vafGwzf37O3vhGbDNmXG+3ww5L+qknIDinTGkJzznv9tmzc3bEEc2ha/tjj9UeGT1hQq/9+tdt9pa31Nfffxqvll++ZVjE+VKZEA5POdAC47CtljchhBBCCCGEWDrMmmXWU9bOyLC2tjj2vBZz5sRzHeTc3Lk522yzgYU3Uk+ztS8ZS0WcT5kyJXzPmzcvfAPd3psZmCCEEEIIIYQQYsSZMycufwZ40WuNTEG8H3dco33lKwxFjftcnG+wQcmammoLcBzHEudLxlIR5+uuu26Y+I1J4OC1116zWbNmhQnjhBBCCCGEEEKMPHRnr4rzONt6lldfzdk//1mw6683e/nl2FU7inOzVVbptZVXXlCA06Udz/nkyZUdYrFYKuKcceYslfazn/0sfJi5fa+99rI111yzcoYQQgghhBBCiJGEseOpOMdLnsKs7HfeWQhd3vm88IKL81zwnCPOTz65w97xjq6wlBqfzTfvse9+t8NOO629pnAXQ2fExDkTvTEju/Pud7/bDj/88HKBrRzWP2dJtXQMuhBCCCGEEEKIkWPmzFxZkEfBPW/egt3a//CHBvvWt5qChx2h7uKc0ckdHTlbaaVe23PPbttxx1K4dvnle+2nP223Aw/ssve+N84zJhafEVPHLJm28847V37FZTe2335722effcqFuaM1NTVVjgghhBBCCCGEGGmmTcuFLuprrVUKY85ZUi2ZFszuvDNvTz/NcmlxwjgX5zNm5K2xkW7r0TO+2molmzSp17bYosc22qgUjoklR65rIYQQQgghhBjntLfjCUdk99rWW/fYo4/m7a1vnWiHH97S170dwe7gGWfpNIT6jBm5IMZdhO+1V7f9+MftdsEF5UDFsCFxLoQQQgghhBDjHMaMv/RSzjbfvBTGjuMhp2s7wru1NYryF1+sivN11omivL09F7rDMxN7sRiPsejW29/ebSusoDHmw4nEuRBCCCGEEEKMc1hGje7p227bY2uu2WuFQhTWnZ3Vru0vvpi39dYr2fe/31EW8Ra6vXd0xLHqEyYw0Xc8T4wMEudCCCGEEEIIMc7Ba45nfPvte+zjH++0e++db3vv3VUW59XJ4TgHj/gHP9htG20Ul1KjO/yrr8Y1zItFecpHEolzIYQQQgghhBjnXHttMaxH/uY391hLS1yzfPXVe62rK4pzPOtMAjdlSuy+vskmeM7zYZZ21j7nWnnORxaJcyGEEEIIIYQYx/T2mv32t0XbffduW3HFqvd71VVLoVs7a55Pn54Lony55XotlzPbeGO6s5u1tuI5j93afcy5GBkkzoUQQgghhBBiHPPgg3mbPTtv221XsnRF61VXjZ5zlky79tpCmMl9ypR4bI01ohh/7rl8WaTng+dc4nxkkTgXQgghhBBCiHHMv/5VsOWX7w3rm6cgzhlz/oc/NNgZZzSFWdhXXDGe09LSayuv3GuPP4449wnhNOZ8JJE4F0IIIYQQQohxyGuv5cKkbjfdVLSpU3ttjTX6i+vVVusN48xvuaUQvo87rj2MSQeEOsfvvz8fxqPLcz7ySJwLIYQQQgghxBiF8eQnnNBkm246yU4/vdG6uysHypx2WqMdfHCL/fvfhSDOV1+9v+ecSeGYpZ1J317/+h474IBumzQpHmPSuLXW6rXbbiuEe2jM+cgjcS6EEEIIIYQQYxSE8x135G3WrJx9//tNdvHFDWF9csDrff/9BWttzYX1y114Oyus0Ns3Bn2PPRJVX4Zu7XjaX3ghb4WCla9Vl/aRRuJcCCGEEEIIIcYoiPNp0/L2jnd0hQndjj++yf7yl2LY/+STeeuJvdRts80qGwmI7qOP7rBDD+20D32oq7I3wrJpa64Zl0/DYy5xPvJInAshhBBCCCHEGKCjw8IEbinsYxm03XbrsTvumB+6n996a8Fmz86F/c5mm/Xv0u4cc0ynnXpqRxDiWdZeuxTGmhcKvTZxYmWnGDEkzoUQQgghhBBiGYclzy66qMHOPbexsify6KOx2zkzrzOG/AMf6CqL9ILdfXfeenur4vx1r6stzgdju+167NBDu2yHHXpsk00W/XqxaEicCyGEEEIIIcQyDrOp/+hHTWHSN2fatJx94QvNttxyFpZKAwT1jBl5+81vGkKX9KYmxo6XwrJoiwpi/0tf6rCzzmq3N7xhwW7xYniROBdCCCGEEEKIZZxcrize8r3W3p6zZ57JhTHlZ53VGCZ8Y2I3F+dM4rbSSiW78sqibbBByb7xjQ4799z28rXh8CLT2Gjl8OjaXtkhRgyJcyGEEEIIIYRYxmlrM5s7N3ZT/+tfi2FM+aOPFoJwPvzwTlt77SjOWTKNfaVSLmwfeGB36JYuln0kzoUQQgghhBBiGYF1x+++u2BPPNFfquEt7+yM4vySSxrD2ub33JO3Pfbosg9/uKtvNnUEuXdhZ0K35ZaL22LZR+JcCCGEEEIIIZYRZs7M2dFHN9sBB7T0ecrh4YcLYQz41lv32FNP5e3nP28IYv1d7+oOXd4dxDiTw8Hmm/f0OyaWbSTOhRBCCCGEEGIZAG8548gfeihvzz6btxNPbLTubrPXXjO77758GFv+qU912kYblewd7+i2r3ylw3bZpX+XdcT4m97UEyaBe/ObNcP6WCLXW6ayPWYgxvPnd1hbW2aRP7HM09LSYPl8rlx+Krt6gLKeOnWizZrVaj09+uNQD2AQTJ7cbO3tXdbZqfFt9UCxmC+XeYvNmdNqpZK6TtYDvNtXWGGizZ6td3u90NRUtIaGQrC/x55yGFt85jPNdvnlDbbNNj3l9yo2c86+/OWOMPP6Y4/lw/6zz24Px1ZcsToJXJZ583JhJveNNy6V39OVnYtAoZC3KVNawnOud/vgFIuFcjm0lG2gJe+iIM+5EEIIIYQQQowyTPiGx5yu6xdc0G4f/Winvfpqzs45p9Fuv70QPOj77dcVJnvbcMPSgMIcGH++2WaLJ8zF6CFxLoQQQgghhBCjzIwZOWttzdnrXtdj66xTsr337raentjVfbXVSnb88R22zz5lhS7GLRLnQgghhBBCCDHKzJiRL4tzJnGLw0XWWit6yOHNb+6xgw7qsubm8FOMUyTOhRBCCCGEEGKUeeml6DnfYos4ZwtDmN/61ugpp4u6GP9InAshhBBCCCHEKOPd2lMhvuuucSm0TTaROK8HJM6FEEIIIYQQYhRhbPnLL+fCzOjMsO7ssEOPnXlmW1gaTYx/JM6FEEIIIYQQYhTp6jJ75ZU4U3tLS2VnmcmTe+2AA7rDfjH+kTgXQgghhBBCiFGkqysXPOfrrCMRXs9InAshhBBCCCHEKBI954hzjS2vZyTOhRBCCCGEEGIUQZzjOV93XYnzekbiXAghhBBCCCGGiTlzcva3vxXt1VdzlT0Lp7MzZzNn5mzttdWtvZ6ROBdCCCGEEEKIYeKiixrsyCOb7dpri5U9C+fVV83mzcvZWmvJc17PSJwLIYQQQgghxDDx1FNxvfJnnsmFJdKGwh//2GArrdRrK68sz3k9I3EuhBBCCCGEGNPQlfzkkxvtggsa7KtfbbJp04bepXwgess6ubOz8mMRePbZQvh+6KG8tbcvPB5MBHfppQ22yy7dtuaaEuf1jMS5EEIIIYQQYkzzr38VysK80b7xjWa76KJGu+22KJAXF4T5X/9atM9/vtkee2zokqmjw+zpp6Mgf/jhQlmch81BuffeKOK3267HJk2SOK9nJM6FEEIIIYQQY5ZSyeyee/JhzDaiGlJxPmtWzt73vhb7y1/iGHDOuf76gl177cACntnTv/jFZvvtbxvsa19rquwdmPnzzb75zSZ729sm2IsvRon13HO5IXneX3ghbw0Nvbbqqr2WW3KHvxjDSJwLIYQQQgghxhwzZuTKorwQZjl/4IGCbbxxT1lQd9imm5aCOEeEI9iPPrrJbrmlGCZow5M9d27OTjutyQ4+eEIQ4bVoa8uF2dZXXLHXbrqpaO95T0u4njBpDCAMthlT/s9/FmyXXSbab37TEIQ5xzfbrBRmYKfL+sKYPj1nxaLZlCmVlgVRt0icCyGEEEKIcQ+CCaE21Am6xLIN3cd/9rMGO/TQZrvhhoI9/3zOdtutx445ptPe8Y5ue/rpgr3wQs7uvjtv//1v9JjTPR3B3d0d1xQHupTXguOFgtmnPtVpn/lMZ6g7eNAR9089lQ/bt95aKN8nb8cf3xTE9RlntNvJJ7fbW9/abQce2Bm6qD/zzMLl1osv5qyhwWyFFSTO6x2JcyGEEEIIMW7AE/qlLzXZF7/Y1OcVxcN5ySUNtv32E+3gg1usrS3uF2OTe+8t2A47TLQzz2wKXcJPPbUpeKxf97pSENSbbdZjzc29Ycz47bdHz/rHP95pjz+eD6IbIf/SS1Gc//73ZVVcAwQzYWy1VY99/esd9oUvdAZP/T//WbQbbyzY737XUBbiTfaLXzTYI4/k7cc/brN3vrPb3v/+bvv5z9vKAr0neMKHIs6nT88Hcb/88hLn9Y7EuRBCCCGEGBfgFf/pTxvs179utD//ucHOP7+hLOAa7T//KfR1f77zzoL94AeNYbwx3YkR7gMxe3Y8H/GFt1WMLjS23HFHwQ45pDmMI2d89iqr9Nqzz+bDbO10a4dttumxqVN7yyK50W64oRh+f+xjncHbfuSRLfa2t020Uil2Wb/88gb7979jF/gUxH5Li5UFugXhTFf59dfvDbPB032dfXSdP//8RvvQh7ps661LIT58uGbChNhNneXUBoM6S4NBsdgrz7mQOBdCCCGEEOMDBBtibL31esJ60Sec0Fz+NJUFWbPdcgtjkkthrPAPf9hkhx7aYkcf3Wz/+180hxFuCDwHsXbuuQ3B0/6pTzXbo48yo7aFJa/wvIqlA+Xw4IN5u+yyBvv2t5tCrwjK6bvf7bDvfa/djjqqXHBlJk7sLQv1sGlrr91bFss9ocz++99Cuaw7baWVzLbdtqdv5vXJk3vD+HS6k9OA4550h98tLb3WVJkLbu21S7b77t1lIV8MXdkR+yx9dtBBXXbYYV0hnBS87ohzGg4G47XXcmGmduKDoBf1jcS5EEIIIYQYF+CBZG3p/fbrst/9rtUuuaQ1dDd+7rl8EEmMBT7ssM4g1r75zQ678cai/fnPxb7ZvD/2sRabNi2ax3RrRuhzjMnGTjmlyc45p9G+9rXm4L0VS4cHHsjbJz7RYl/5SrNdfHGjPfJIIYwDP+SQrnI5dtm73x27NNAlvLExep7p2o54X2edkr3+9T220049QfzusENP8GyvtVbcv88+3UHgez1IoVdF9JzHMBHpiPlPfrLTvvSlDjv22I5y/Wq3E05otw02KIVzUvCeL798HOc+WO+MOXPiWuqrr66Z2oXEuRBCCCGEGCfQ/RwxveeePbbaar22xx49ZdHdHbzosPnmPXbSSR126qkddsQRXWFs8qWXNtrOO08IAvy++/K2114T7LzzGoOnHVGPEGPMMV2fGWOMh90FvBh5rr++GCZ2+9a32u3Xv261J598zb72tU7Ll4sAMYuopQs7nutU3LL/r39ttbPPbrc11+wNgh0x/ulPd9hNN8233/ymLSxdxr699+6y009n3Ho1APecI7IdPNvHHddhH/94V9jPhG981xLViPqVVy6FOrTffi1hIrosdNOnYYBjNCQIoTeLEEIIIYQYFyDiVlopijUHUbbddnEs8sYbV/cjqOiSjDBiP6Kd2bYZn/zd7zbaiSc2hbWnvdsyx77whQ5bY41SWFP7uusKYQZ4MbLcdVfettqqZIcc0m3/9389wZudFcOnn95u3/hGRyj7FMQ3k8T5+Sxv9q1vMYt6rBdAePvu2x3K8pprqt7zl17KB+HtnvNFBU87dWfffbvCBHZMIpf1oFP3mFAOYf6BD2hSAyFxLoQQQgghxgkdHTlrbCwbuBkL98ADu2zTTXts9dX7q2kE0dlnt9m557YFIcVs2+ee225f/WqHvfGNPXbeee221lq9wUP6rnd12+c/3xnE3tVXN4Su1nh1tTTbyEC+3nQTorYYejzQUDIQe+/dHcouO+57qCCOadC5/fa83XlnPoj02K29OuZ8cdhmm5KdfHIc1046mLMghfrKOujvfW93qG9CSJwLIYQQQohxAeKHWbSzntW99uq2a69tDUI7hdmx99+/u2+8L5/lluu1z362yy64oD2MUU4h7DXW6A1jhJlYjsniPvax5nDfn/+8ISzVJYYHhhUcfPCEMFnaJpuUQt4PBOWWbZBZFPCwM3nbLbcUw5rlhxzSEpZAS8ecLy7Up91267aHH85ba2v/ikk9YhjGuutWvfuivtEbRAghhBBCjAs6O/GcLzixFsIND+iSCiCup1t7yrXXFu3qq4v2xS822/XXL9h1WSw6LHnHLOt4z5kR/U1vihO5jRR4zVmSjfHht99eDGKZekRZL4nn3HnLW3pCww0NOin8Zs19GoeEAIlzIYQQQggxLsCDnZ0YbDhB5DPRHGy/Pcu1layrK2df+lKcNWz69LzGoQ8DLH334x83BnHOrPqsMT6SMP7c78HM6z/+MTO4t9qXv9zZNzZ9Sdhyy56wTv77399i//hHNUDmSGCSObzrQoDEuRBCCCGEGBfgOR9JcQ5bbFGyffbpsssvb7Vf/rItjFeePTsXhDvjlJnNnYm+5EFfdJgt/+KLG8ISdqz/TZdyxvgvSZf1ocK65Uwqd/75bcFTv+GGpTDsYTjAK8+khIwv/853muyMMxrtgx9sCV3d4xJwlRNF3SNxLoQQQgghxgUj7TkHZnO/8MJ2mziRicR67f/+r9ve974u23bbnuA5P//8RjvmmGZ79FGZ2YsCXdnPOKPJvvzl6tplzKq+uJO8LSrMJfDZz3aGGd2HG3pbsHwfEwo+/XTefvjDJvvHP4p22WUN/dZnF0JvDSGEEEIIMS7Aa82s3iMpzsHDx7PK0lynn95hO+zQHdbJ/uEPG+2qq4p2993D0B+6Trjllry9850T7IYbYp7huSZv99ijK/we69A1nu7yn/lMZzlN3aGe5vNxjPvyy8f5EIQAiXMhhBBCCDEuiOJ8ZD3nKdwHzydLreF5fe65XJiRm7HSd9yRD93cxcDQ0+Gll3L2vvdNtCefjLOZs4zdlVe22q9+1RrWnh9P0H39uOM67NhjO+zEEzvCRHAMi2A9dSFA4lwIIYQQQowLWDd6aYrzFIRWqVS98S9+0Wif/nRzWXCadY0PB/CwwsR5P/hBo33jG/3dxgwTwNO87balMFnaeGO99WL3+Y99LM5bwDaNO0KAxLkQQgghhBgXLG3Pecraa5fCB448sjOsbX3bbUXbd98J9pe/FMMEcS+/nLP//S9vN95YsPvvr28znAaLCy5oLOdNHFSOKGdJMybcqxeYIZ6J50ajvoplE4lzIYQQQggxLoiec8acL31P5Oabl2z33aPAfO97u8LEcXiH77yzYJde2hBm6P74x1ts//0n2EEHTbDPfa45rHFdrzz8cMHmzYtDAIBu3tdeO19dvEVdI3EuhBBCCCHGBe45XxpLb2WhKzZrcl92WZu94Q3RI1osxmP/+lfRTjmlyW69tRCWWWPNa5Zfe+KJ+jTFp03L2yWXVDKnDOt8k19rrTXyk/kJsSwjcS6EEEIIIcYFoznmHFhejSXVuP+66/aWxXlvaChAuGfXzJ41K2fXX1+0E09sDOtf1wt4y0nzr39dXdx7iy16Qh4JUe9InAshhBBCiHHB0lpKbSi87nWlsL713nt3lYVoq91xxzz79rc7+rz6iNQzz2y0s89usvPOawhj0uuBxx7L2X//G5X4lCm91tzca9ttVz/jzIUYDIlzIYQQQggxLhjNCeGy0FX7r39ttbPOarddd+0p/7bydxyTDuuuW7K5c2MX96uvLoYlxcY7NEDcf38hpPWLX+ywH/6w3T7/+U7bf39NZy8ESJwLIYQQQohxwbIkzmHFFXtDV3eHyc7wFsOnPtUZurozcdzTT+ftsssarLMzHBq3MEHeM8/kQx4cfXSnvfOd3fa5z3WGWcuFEBLnQgghhBBinNDe7rO1V3YsY9CF28X5e97THWYn/+MfW22HHXrCjO4vvjj+TXNmqJ88uSxCKkkdjcn7hFhW0eMghBBCCCHGPHSZ7uwc3QnhFoZ7zidP7g3d29deu9daWix4j1kD/fHHx3fXdsqorS1XTnNsoBBC9EfiXAghhBBCjHno0o74W5bFOePQ3/zmHjv44K5+cUSk87nhhuryYuMRyqe93UKDhBBiQSTOhRBCCCHEmAfRB42Ny25XaeL2hS902ve+11HZE8Gbzrjra64phvXP58+vHBiHMPRAnnMhaiNxLoQQQgghxjyIPrzRrC0+1qCb+xve0GPPPpu3bbedaJ/+dMu4XPvcPecTJlR2CCH6IXEuhBBCCCHGPIhzPObFMdgznHjT3X355XvD+ufXXlsMy6uNN+KYc7q1y3MuRC0kzoUQQgghxJgH0TdWxTlsu22Pbbxxj22ySY+9/vU99qc/jc/x5+rWLsTASJwLIYQQQogxD92l8/neMSvOm5rMLrus3f7ylzbbfvse+89/CjZr1vjq2q4J4YQYHIlzIYQQQggx5ql2ax+7XtmJE3tD1/YttyyF8fMXX9wQBO14gqXUNOZciNpInAshhBBCiDEPoq9QiEupjXV2373b1luvZOed12i33VZO1Dih6jlXt3YhaiFxLoQQQgghxjyxW7sFgT7WWWmlXjvttA4rlcx+8YsGe+218dG9vbc3FxpRJM6FqI3EuRBCCCGEGPO4OB8PnnN44xt77NBDO+3GGwv23HPjZ+y5xpwLMTAS50IIIYQQYswzd+746dYOjDk/4IBumzMnZw88MD5MdnoCIM415lyI2kicCyGEEEKIMc/zz+etsdFsueXGT5dpJod73etK9s9/jo9l1VpbY9f2CRPUrV2IWkicCyGEEEKIMc/zz+esqanXJk8eP8KP2duZuZ2u7azjPtZh7DxDD1g2TgixIBLnQgghhBBizMO4bETfePKcMzabsed02f/LX8a+9/y111jqbvwMPRBiuJE4F0IIIYQQYxrGMr/wQr7iOa/sHCfssEOPrb56r/3sZ43W1WU2b17O/v3vgs2ePXYmiZs2LWenntpoDz6YLwvz3jG9Fr0QI4nEuRBCCCGEGNPMm8d4ZsYyx67g4wnWO99kk5I9/XTennsub2ed1WAHHdRil102+u7nnh7Wl6/8GADWNr/66qL94AdNdtppTcFrjvdcCLEgEudCCCGEEGJMM2tWPnjPWR98PKxznkJ6ttmmJ8xyfvfd+TA5HGuFP/VUPgjf0eSSSxrs4x9vsRkzanvxmQBu9myzf/2rGIQ8k/ZJnAsxMBLnQgghhBBiTPPqq9GLu9pqZYU+DmHceUdHzs47r9GeeCIflll7/PG83XPP6LZEfPWrzXbNNcUwpCALS8B9+MMtttdeE+0//6nGkzkBxlvvBiGGC4lzIYQQQggxpnn11VwQ56uuOj5F31ZblcJ4c8T4jjt2h88ttxTs8MOb7eGHq+b83Llm55/fYC++OPLj0b07Ow0FfLI89FA+NCDQHR+h7sunbbppydZdV+JciFpInAshhBBCiDENntuurlxZ9I1PzznrnR96aKd9/OOddvrpHfa+93WH/c8+my9vT7DTTmu0zk4rC/ainXRSkz344Mh51J99NlcW22YPPBBlBF3raThIYR/ifMaMeM7Uqb320Y92hS7t73tflzznQgyAxLkQQgghhBizIATxziIQX//68SnO4dRTO+zEEzts5ZV77f3v77JzzmkrC97OMH77yisbwhj0e+7J2/z5ubDm+0jADPHbbTfJTj65ya64ojohHfej54KDV/3mmwt9Y8tXXrlkBx/cZf/5zzx7z3tiw4IQYkEkzoUQQgghxLCyNCcqQwgiDidP7h23nvMskyaZ7bdftx1/fIeddlpbWOP9rrsKdv/90bRHqI8Ejz0Ww/3b34p26aUNtvXWPTZlSq9ddFGj/exnDWEd8+6y9mZWeSaB22+/znD+Kqv02gor9Npaa8ljLsRgSJwLIYQQQohh44ILGuw732kKHtylAeOZX3wxb1tt1RO6TdcTpHeXXUq2xRYl+9WvGsriPHZnH05xTkMLghsYQw7Tp8eeCqec0m6rrdZrt95asO99r8n22GOC/eUvRfv2t5vCGPMPf7grzDT/uteVQtd8IcTgSJwLIYQQQojF5oUXcvaBD7TY9ddHYXjssc12+eUNwZuLsOvosLDM2Ugxdy7iPBdmNK9HWlp6wzjuO+/MB9EMeLhpHCHvGYtOA4YLbGAbLztll8I48iuvLAZxf+KJjfbf/xbs3HMb7E1varb77jN78MGqdNh9925bZ53oEQeWd3vyyYIdcUSL3XgjXvMu22yzkl19dat997sdWj5NiCEgcS6EEEIIIRYbhDhijMnIEMrQ2Nhr+bKVOX16LnhRGRO+pDDeme7rv/pV9T7Q2pqzWbNywTtbj5DPu+/eYxtv3BtmTWeytUcfzdtXv9oUvNk//nGjff7zzXbdddVJ4mjM+MpXmu3445sqe6KH/EtfarbDD2+xD36wxX74wya75ppCGFuOiP/614uhO3tjo9kmm5TsgAO6wxrsNA44TeXgEOF77tldFuld4bcQYuhInAshhBBCiMWGJb1gxoxcmJAMuruj15yu1j/7WWPfzN5LwgEHtNhHPtJSFonNdtVVVaE5f370nq+/fn2Kc1hvvZL96Edtttde3cFLTUPFb37TYD/9aaOdcUZT6GpOI4rPqj5vXi40dqTlctddebv77pivPracbvLMCM+4/uuuy4ftNdcs2S9+0RruNWlSb/Cgf/KTnfbOd3bZF77QYZdc0mo/+EF7GGcuhFg0JM6FEEIIIUQ/0i7QCLrbby8EbytdpPn243iyn3wympN4Vxl7DKy3jTf7ggsag0ifNm3o48/pAv/aa7l+y3O9/LIF4fi//xVCd23iQxyID40C+Xyvrb56/YpBvOdveEPJfv7zNvvQh7rse99rD/vJS7q2wzPP5MvlFceKz5yZC40a06blQ/kw0/q55zaW87AUxDYecfjPfwqh4YPfjG9fbrnesjjvtfXX7w0edLzkn/hEV2gQ+NnP2u3zn++0Pfbo6evqLoRYNCTOhRBCCCFEH4jd009vtCeeiGYiAo7uzj/4QRyDfMghzXbZZVFsI5gZz4yoQ/j9+99R1bW350I36ldfjedxDAj7lVcGF+qMa/7KV5rshBMay6I8CvGzzurfP/rhhwv2y1822HHHNdnvf99gK67YW3eTwQ0G4+9ZWzyFGdSffjoXyvGMMxqD5xwPOnMD/PznDXbNNUXbaquSvfvd3dbUFK9FmCPcDzmk2z71qW774Q/b7aSTovAXQgw/EudCCCGEEKIPlshivPFNN+E1jZOJIeBuu61QFsV5u/fegh19NOPJLYj1efOi95Quz3feWQxebDyqf/5zQxgDjWhGGLaXNd0Pf9jYN875kUfyduyxTdbaGn4G/ve/fBDcf/hDg517bpNdeGGDff/7jeXvxsoZEQT8SSc1hW7biMqVVor3FBGWWvv+99tthx2qk+TRk+GBBwphDDrLnDFWHxhHzuz6TOj2oQ91hlnv07HizLp+/PFd9q1vlWyffbpt003rd/iAECONxLkQQgghhOgDQY239BvfaLJttpkUZmGnmzli2sciz5ljdvPNBbv77ry9+c09tsce3WEiMrqZb7llyVZZpRQ87+zbdtue0K29szNn991XCF3fOY91sen2ftVVUVVzzl57TbB//7sYxi8jtvHo0hhAV2wE4xpr9NqBB3aFru145b37NJ5z74otIgjpj32sM3R5h0026bE//KFoHR39ey7885/Fcv7m7Pzz28LEcizL9u1vd9inP10upDK77NJtU6Yg0mPdEEKMHBLnQgghhBCiD++KjmBDlJ9ySnSjlko5u+EGPOPhp/31r8UwYdhBB3WHLtRbbx29tIg5X9OaycPwxNKtnTHiL73EjOv5MJYZ7zj4hHJ/+lPRentzdsghnfatb3XY297Wba+8Eicjg+2267G//W2+nXxyu731rd227rqlMPEYINILBY1zzjJ5cpy9nbHie+/dHRpHssva3XFHoSzIe+z//b+eIL75HHxwV8h/YAy5EGLpIHEuhBBCCCH6YMI3Z9NN+wsz1r9eZ51S8GKzzBaimK7TU6b02utfH1XfrrtWxzvT3Z1ZuxnfjOhHnOM1P+qo5rAEF9fjKWeCsuuvL4Yu1F/7WmdZePfad77Tbh/9aGeYZOyss9rCTOBM+oYH9+yz2+1Xv2orC8puW221UhDqGnO+IAhzPszmTrmsuuqCDRiMK4/51//Y5puX7Nxz24IHXgixdJA4F0IIIYQQfUyfHs1DPORnntlhO+/cYzvt1B3ENDN7M2kYS2gx6dtOO/XYyiuXQhd0ltO6/PLWcD5don//+1b74Ae7KpO1IcLxgkfh/9JLedtvv67gDWcW8Y98pDmsk37EEZ19wn699XrtlFM6gjhnTe1ddomeXVh55V7baKPYSHDTTfPt6KM7Nea8BpMn4zWnkaVkb3lLj33tax2h14HjvSAQ59n8o+Fk331jrwghxNJB4lwIIYQQQvQxfXouiF8mB9tkk7im9bnntodJ1wBRvNZacVmt3XbrDp5swCv71rf2hLHfdJFGTMMaa5RC9+pf/ao6qRuzgcdzuL7XZszI2x57dNnnPhfHOS8Kyy+Ph7jyQ/Rj7bV7Q+8DH3tOd/XLL28LYnzDDUv2kY90hiEIG22kMftCLAvkestUtscMxHj+/A5ra1v0F7gYXVpaGsp/HFhbU2VXD1DWU6dOtFmzWq2nR7O71gN4tSZPbrb29i7r7NQ4xXqgWMyXy7zF5sxptVJJHraxDmtib7HFpNBF/Ze/bO0neg88sCV0PT/uuE7baacGe+CBTnvvezv7xPlAMJHchz/cEmZz9/HOdIP/3//mhcnJ6CqPQEck0gVeDC/YzdmJ3Jhln32bb95jDz2UD+uW++R6tWhqKlpDA2vMd4TwxPinUMiXn9MWmz1b7/aFUSwWyu+vlvIzlXnQFgN5zoUQQgghRICx4QhoxHPWG33QQV2hm3RLi9nuu5t96ENVr/lgMCkcXnZmgGf97WOP7Qje2+bmeB8mksNDL2E+MtTSCwwnoCwoy223LQ0qzIUQS49RFecvv/yyXXXVVfbPf/7T5rFIphBCCCGEGDVYCxtxzjjxLO9+d7f99rdtdsABXZU9Q4M1t5lEjgnb9tqr2448srNvZnchhBBVRk2cd3V12e9//3trbm62GTNm2C233GJjsIe9EEIIIcS4IXrOc7bSSgsORcIDy5rlTAa3qBxzTKedcEK7ffjDcf1yIYQQCzJq4nzmzJlBoO+www623Xbb2bPPPmudrK0hhBBCCCEGBZNpJMwmljTDV8KEcMMJy3IdemiXuk8LIcQgjJo4R4gXi8UwcL6hocF6enrkORdCCCGEWAhtbWYnn9xkn/tcc2XP8MEa54wNZ5ZvIYQQS5dRE+cI81KpFAQ5wtyFuhBCCCGEGJj583N2440F+/3vGyp7Fo/nnsvZscc2hVnUHcQ5Y87XWmvBbu1CCCFGllET5yuuuKLNnTs3jDd/+umnbfLkycGDLoQQQgghBmc4/BmXXNJgF13UWBb6+dCVHVFeFefynAshxNJm2MU5nvD//e9/9uqrr1b2mD3//PP2j3/8w6655hp77rnnwr6mpiY76KCDwqRwjz32mO22226Wz49aW4EQQgghxJgAYe6TqtEFvRaIbWZeZ93yWiDA//73Yrj+j39ssO7u6JGfOzdvU6eWwprjQgghli65spge1rcvIvzcc8+1b37zm7btttva9OnT7Qc/+IGtv/761tbWFiZ+O/nkk8Ms7YsLMW5t7Sj/wVm0pTzE6NPU1GD5fK5cFyg7/eEf79DgNmVKi82Z0xaGsYjxD8OTJk5sCu/nri4tlVQPFAp5mzSpuSzq2kIDvRh5mLTtkEOa7Y47Cvb44/NrTrLW2pqzT3yiyfbcszusR57l2Wdztt12E23ChLj++B//2GZrrNFrRxzRHH7/7W9tlTMXhL/jyy03IZS53u31QWNj0YrFQrleMQuhnvN6QO/2oVMoFMrvxOZhGaI9bOIc4X3WWWfZb37zG1tnnXX6xPnf/vY3u/322+3b3/52GFv+ta99zXbaaSd773vfW7ly8SDaGqMuhBBCiPEOs7Iz8s/NnpdfNnvnO60szs0efdRs443j/pRZs8ymTjVbc03Glsd9WHx33klDudndd5sdeqjZRz5iduutZptsYnbaaWb772/2pjeZXXBBvEYIIcTSY9jE+azyX4Ebb7zR3vKWt9iJJ55YfuEfattss42dffbZttJKK4Uu7HD++efbE088Yaecckr4vTgQY3nOxyZVz7mWzasH5DmvR3I2aZI85/WEvCvDS2dnzl56KWerrdZbFuS9du+9BTv88KayYO4p21Sxj/qMGTnbd98We/DBvP39763lYwu+X/Gub7LJxLD9r3+12kYb9drvfle0o45qKttqPUHs33UX1+NcabDf/75Yts067fjjG+3kkzvKIn1Bb7uDc2TKFHnO6wl5zusPbLjJk/VuHwrLpOfcYe3yY445pk+cn3DCCeH7nTTxlrnsssvsuuuuswsvvDD8XhyI8fz5HRJ4Y5CWlijO589X2dUDlPXUqRNt1qxW6+mRAVcP8HeJP+bt7V1lkSFxXg8UixhwNMK1loWaDLgl5dFH8/b5zzfbGWe023rrlcpiuckuuKDRNtywZDfeOD+MNUe8v+c9E+zJJ/P2i1+02l579YRu7HfckbeddmIFHLOnn86VRfukEOZRR3WUDWyEeDEI+5aWWE4f+ECXnXZah116aYN9+cvNtuqqvWUR1mtXXdVafncPXJa821dYYaLNnq13e73Q1FS0hoZCsL+l0+oDGl5xsPCc690+ODRcLb98y7CI8xGfgY2WhLRVla7tjY2NlV9CCCGEEMKZNi0fxpI/9liubBTn7O67saMsbF98cYO9+mqcTd0neuM3nH9+g33sYy123XWFIJ5efbVq4p17bqP9/OcN4bp99+2ytjZ6sOF97w4Narvs0l2218xeeCFn++zTXTbIZYgLIcRoMOLifI011giTwgFO+hdffNE2YWCTEEIIIYToB0uZwQsv5IMgf+KJXJi07eWXc/b1rzeH5c+iOI/nvfxyvnxO3q6+umivvZazww9vsde9bpJ985tN4Th0d+ds9dVL9pOftNnOO8ceLfhJttwybq+7bq/tt1+XHXRQl338451BqAshhFj6jKg4x7X/+te/3u644w574IEH7O6777b77rvP3vWud1XOEEIIIYQQzvTpUXTff3/BfvGLhrC82Q47VIeI/PrXDcFrziRx8LvfNdgnPtFctq+iom5vz4Ul1PC+s0Ktr1K7zjq9ttFGJdt88xjW2muXbGIckh685yee2G4nnNARZmwXQggxOoy453zrrbe2t7/97XbkkUeGmdr3228/23DDDStHhRBCCCGE4+L8t79tsJ/+tDGI6je+sSrOn3oqb//8Z7GvW/vDD+ftwQcLYZ3ytdYqhYneJk6MApu1yn17ueXYZlb2ONRwlVX6i/AJE8wmTZIwF0KI0WTYxXlD+a/CmWeeGZZRA8ac77vvvmEm96uvvtre/e53D8tgeSGEEEKI8cb06dE0Y61xJm475JCuPnHOBHEIaLq2M6s70OX99NPb7aab5tu11863Sy9ttb33jjOtI859DfQoznutuTl6zbfYoir4hRBCLBuMuOdcCCGEEEIMDWZid17/+pIdcUSnbbpp9Hbvtlu3bbttjz30UJz0DSZNMnvb27qDR5x1zXfbrSeIb2hu7rU11yyFbusrr9wbxpLTzf3889vtyCM7w34hhBDLDhLnQgghhBDLCMyY7my8cU8Q1Kuv3muXXtpmn/pUp+26a/R4I7K/8IUOu/DC1iC8U/w3XvK11uoN57JMGiDI8cSzXwghxLKFxLkQQgghxGLCWO9HHslba2tlx2Iyd27OvvjFZps5s2qapYJ6zz27bb31em3ddaNXnPXI6b7+5jfH3yk+nhzPOQKf7vHrrLPgeUIIIZYtJM6FEEIIIRaTv/+9aB/+cIv94heNlT0L54EH8jZvXuVHhdtuK9gf/lAMY8q3374nfO+yy4Ljwr3LOkuhDbTkmYvzpiazd7yjx049tcN22kljzIUQYllH4lwIIYQQYjFhKTNmUL/33qGZVI8/nrdDDmmxn/ykKuYZP37XXQVra8vZJZe02a9+1RYmeHvLWxYU1MzeDsVi7Npei1Sc0yWeNcx9YjghhBDLLhLnQgghhBCD8OqrObvoogZ77rk4Hnz+fLPZs3NWKlXXG3/ttZw9+mg0q+bMydn3vtdk22wz0a68sqyiEx57LF8OL4p5n9Tt3HMb7LzzGmy11UrBw83M6j5WPMvUqfGitrbYpb4WPuYccd7QIFEuhBBjBYlzIYQQQohBuP/+vJ1xRpP96U8NQVCfc06jfelLTfbii7kgyuGWWwp28MEt9vTT+SDi//a3oj3/fN6uvbbYJ8Jh2rR8ENWvvJIvX2vlc3J21llNQYx/9asdA3rDHZ9hvb09Vw6n8iMDS6Z95jOd9o53dAWBLoQQYmwgcS6EEEIIMQjz5+eCh3z69FyY+O1f/yraddcVg6d85swokOfNy9mzz+btzDMbgnDu6Ai7g/h2AQ/TpuXCGuacj0A/77zGIN4R5vvtN4ArvAap4M+CgP/a1zrsPe/pXqjYF0IIseygV7YQQgghxCC0t5t1deHtjkKbLuWIY7zgqfCG3/ymoXyelcV5LkzaRpf4GTPiOYTDOuZci9f8scdy9sc/Fm2DDUq2885x2bShsP/+Xbb11j02ZcrACr2hYeAJ44QQQiybSJwLIYQQQgwCE7V1deWClzyK8yiw8Yoz/jyFrubPPZcPnvM3v7nbZs3K2csvR3HOcmmIdSZzI5zf/rYh7HvrW7tt+eUHcYVnOOGEDjvnnPa+ZdWEEEKMDyTOhRBCCCEGAY93HCcexTm/S6Vc8Jy3tuZs5ZX7i2TGoiPO3/ve7tB1ne7wgGh/9NGCvf3tXeH4VVc1hC7uH/hAVzg+VPCYb7RRSZ5xIYQYZ0icCyGEEEIMADOyM+ac74cfLtgnP9kcxpYjqp98Mm8TJvTaJptEce6Ttb34Yt46O3P2//5fd1lIl+y+++L5dGFHlB93XIedeWa7veENPfbrX7fZ+usP3WsuhBBi/CJxLoQQQohxB93O8XAPNnHaUIjiPG7jPWc2dkBsP/FEPsyyvuKK8SYrrRS/8agj1Flb/E1vKtlddxXD+f/4R8H23LPbVlutN3jVr7iiNSydJoQQQoDEuRBCCCHGHQ8/nLf3v3+CPfLIkpk67jnPwn7WOl9zzVKfKN9ww1JoDHj22VzwqDMpG+POWdOc+Dz7bCF4y9mPeGfCOPe2CyGEEBLnQgghhBizIJJZ3izrIWfitf/+t2B//3sxeNCZeG1xvOip57wWiHOfzG2DDaIXnInilluuNwjvbbct2aRJZkcc0WKTJ/fauuvG/UIIIUQWiXMhhBBCjFnwjH/1q819k645LsRZAo1Z0Y87rrGmB3xhIM5Zk9xZZ52Sve1t1fXI11mnt+9ebENvb64sxMOmve51Jdtuu+4wPh0P+1prlQMUQgghaiBxLoQQQogxyzPP5O3Xv26we+7pb9LgLQfWG7/xxoLdfHMxrE++qDAreyrqd9yxx772tY7KL7P11iuFburg3dvBPed8H3NMp332sx32yU92hjXNhRBCiFpInAshhBBizMLSZsA65EAX9He8Y4KdempT32+WMGO9cSZ0w5PO5GwpjB1/6aWc/e53xTBePGXePAvXOk3lYJnQDeimjiD/2Mc67UMf6grC3busI8qB31tuWbJvfCOew/VCCCFELSTOhRBCCDFmceE8Z078fuCBQph87Z574iLgM2eyHnlcn5xx6Cee2GQ33VTo64qOMP/MZ5rt0ENb7Nhjm0MXeM6/4opi6M7+9a83hbHrjCtnXfHVVy/1CW/E+YQJZlOnmp1+entYe3zq1OoxIYQQYlGQOBdCCCHEmGX27PiN8AY84+nEbyxrNnNmPowdP/fcRvvxjxvL4rwYBPy3v91k//pX3u6+u2B33lkIQv2++wp29tmN9sUvNtuDD+bsr3+Nfdb326+rfH1bP+/3xIlmzc39Rfj22/eEmdq3267qRRdCCCGGgsS5EEIIIcYs7jl/9dXwZe3t/WdlZxkzhDlcfnkU2q+9ZnbQQS3205822vHHN/d53bnuwQfzYWZ3PO144dn3xjf22Mc+1hXWJl955Rj4lCm9tsYapbCWecrFF7eVr5tnRxzRJXEuhBBikZA4F0IIIcQyB6I4Oza8Fni74dVX89bZSff2OImb09OzoEKePj0fJorDy/7UU/E6B0/7Cy9E84hl2FiLfN99u0KX9ZTLL28NE8Otump/cZ4vX4pHXQghhFhUJM6FEEIIscxx8cUNdtJJLH9W2TEALs6vv75oX/pSsz32WNVTPhCMIcc7XgsaBOjmDrfdVrBisddWWaW/AIdttimFNczlHRdCCDFcSJwLIYQQYpnjK19ptksuaeyb2C0lFd/erf2VV3J2880Fu//+6mRvDmPAV1wx7mRMONfgNXfotg4IcTzfvgwbXeSLRaspzoUQQojhRuJcCCGEEMskzJbe1tbfNX3rrYWw5JmvPe4TwgHnMtN61nNO1/Mdd+y2bbftsc02q/aVd6/3Hnt0h5nYN920FMaSw8SJvWH9csT5yisvxBUvhBBCDAMS50IIIYRYJqGLuXuxnU99qtm+851mu+uuvF14YYM9/3zVlPE1zbPifM01S/btb3fYT37S3rfUGay1VjyR7umHHtppBx7YFdYtx3u+667d4TrEeXZcuRBCCDESSJwLIYQQYpkinQjuqaf6e86ZrI1x5v/5T8G++c3mMLGbg+c8HUuOyEZc77prj62zTq+tuy6zq8djLS29fTOtr7pqyU46qcM+8YkuW221uJ75W97SY8cf32GnnNJmkyaF04QQQogRReJcCCGEEMsUc+dWNso88cSCY84ZL/7MM3HJtMmTqyI7y047ddv3vtdeFt3V6dj93LXW6g0zsLM0WnNz2BXYfPOeMPZ8+eXN9tyz2975zqSlQAghhBhBJM6FEEIIsUzh646DT/iWheXQEOdHHtlpO+5YW0Cvt17JPvjBrn7i28U5Xda/8Y0OO//8trBeubP77t3By77xxhLlQgghli4S50IIIYRYpki7pqdjztOx5E88EcU5whzvecoBB0RPeUtLddI3Z/nl47mIdLznO+3UY01NYVdgt9167F//mm9vfKMmgRNCCLF0kTgXQgghxDJFKs7b2uI3Yvz00xvjjzJMBIc4x+vN+HC6sG++eSl4xD/wge5wDh5zxp2nuBCfMCF+CyGEEMsKEudCCCGEWKZIu7Wz1jgwO/vppycu7jKMDWcCtw98oMvOP7/dfvKTtvDNxG/Q3Ny7gOe8sbE3eNpZVk0IIYRYlpA4F0IIIcQyBRPCIapZc5xu7XjIX311wfXLV1mlN3jCWY+cid1Yp3z77XtsxRVj1/XGxgW7tXPOzTfPD8umCSGEEMsSEudCCCGEWCZAhHd0WFgqje7orDnunvOZM6smCxO90YV9771j9/UsLH12zjlt4Xi2WzvLpK2+em8Q9EIIIcSyhMS5EEIIIZYJXnghZ5//fLPddVcheLxXXLEUxpy759zZd98uu+CCNjvmmOoSaVn22687LJUmhBBCjBUkzoUQQgixTPC3vxXtd79rsAceKFQ853jS43rmr75aOakMM65vvHGpr/u6EEIIMR6QOBdCCCHEMgEzsMfvXPCc063dZ2ufObPqOafbuhBCCDHekDgXQgghxDLBgw9Gs6StjTHnvWFZtM7OnHV34zmvmiyTJsljLoQQYvwhcS6EEEKIUYVZ2Fkq7fbbC5U9Zsst1xu6rdOlvbW1/5hzlkgTQgghxhsS50IIIYQYVfCYf+pTLWURXhXgrFXe1BTXKZ8zJx9mcHe6uqrbQgghxHhB4lwIIYQQowpe8fnz+wvu9daLy50Vi2b33JMP3nXEOrCmuRBCCDHekDgXQgghxKgyb14urG9+/PHt9p73dIV9rGWOMC8Ueu2kk5psrbVKdv757fbLX7badtv1hHOEEEKI8YTEuRBCCCFGlddey1l7e8623bZkq64aveKIczznhYLZU0/lbeute+ytb+22PfboCfuEEEKI8YbEuRBCCCFGDSZ8mzvXrLPTbO21S7bCClVxjuecD2ueb7llyVpawiEhhBBiXCJxLoQQQohRg7Hks2blwnhyxpIzQztd2TfYAHHOdjzPPepCCCHEeEXiXAghhBCjRk9PnBBulVV6g4f8He/otl//us2mTrXKhHBxxvaVVy6reCGEEGIcI3EuhBBCiFHDxbl7xvneddc44Zt3a0ecI96FEEKI8YzEuRBCCCFGjZ6eXOjWXqvbepytPYpzLZ8mhBBivCNxLoQQQohRgzHnLKW2/PILim+86nyAsehCCCHEeEbiXAghhBCjBrO1I8AZW56lvZ1Z3HNhGy+6EEIIMZ6ROBdCCCHEqIL3vJb4pjs7HyGEEKIekDgXQgghxKjhnnNfMi1lu+167JOf7LTf/35+ZY8QQggxfpE4F0IIIcSoMpDnfMIEs6OO6rS3vEXLqAkhhBj/SJwLIYQQYtTAc97dnbNCQRO+CSGEqG8Kx5WpbI8purp6yn/MK1O4LstgdYg+Ggo54x/lJ8Y/jBVtaW6w9vZO6y3pWagHGB7c1FC07vIz3tMjb2c9kC8XelNT0Trays/5Yjzm7W299stfFm3zzUq288762zAWCO/2cpnr3V4/FAt5K5Qf9q6O7soeMd7h3d7chA3XVX63j+JzPgYmHsnn89ZctndzwxDXXDmzx9xblRjPn99hbWVDYFmm8ZqrrXj//yq/BBQbCuWHPWednRhg+oM+3uEl1TKhMTyrMuDqhHKZI9QkzuuHfNmCa1oCA66tLWeXXNJgW2xRsl12keE/Fgjv9pbyu13ivG4oFsv2W6Fsv3XIfqsXcuV3O4KzvW10xXlpzbWsff+DKr+WTXg+ll++ReJ8mRbn5UhO/swnrPm3v67sEEIIIYQQQggxVLq2eaPNvur60Pi/rCJxPhbEORDRtrbKDwEtLQ2h6wflJ8Y/tLJPXWGizZrVKi9qncAfpsmTm4IXNfaQEeOdYjFfLvMWmzOn1UqL4UV9dVbO3rn3BPvQh7vsyE8t43/XRYDeEiuU3+2zZ+vdXi/QI6qhoRDst7GnHMTiUCi/26cs1xKe88V5tw8bzc28dCo/lk0kzssxHhPiXCxAFOe5cvmp7OoBynrqVInzeoK/S5MnN0uc1wm0Pz/wQNF23rmpXN6LZ8DNnJmz3XefYEcc0WWf/rT+NowFJM7rD4nz+qNQKIvzKcuAOB8DDKc412ztQgghhFgsLr20oSyqm+2ssyo7FhPWOa+1lJoQQghRT0icCyGEEGKxePrpvD33XM6uvbayYxBeey1nX/5yk115ZX8Vjheup0dLqQkhhBAS5yPMvHlmzz+fs2efzYWue0IIIcR4Y+LEysYgvPxyzi6+uNFOPbWpsqeKPOdCCCGExPmIc/zxTfbhD7fYRz7SYp//fHNlrxBCCDF+GIo4Hwg856US4xsrO4QQQog6ReJ8hLnooka7776CPfBAwR58UNkthBBi/LEo4ryxsbKRIM+5EEIIIXG+1ME7IIQQQowHfNbmCRPi91BoalpwbDniXJ5zIYQQ9Y7E+QjSkVnKG2HeqVVihBBCjAP4m4aohkXznPcX59Vu7QuKdiGEEKKekDgfQZ59tn/2YoB0dORs2rScnXJKk82dqwnihBBCjE26u+PfNKjVVT2Le9mba0y/om7tQgghhMT5iPLEE/2zt1TKWXu72ZVXNtj55zfYnXcq+4UQot6hl9Wddxbs1VfHVoNtV5eFv2ngHvSBmD49Z/fdF//mZYV89JyzlFplhxBCCFGnSB2OIE8+2d/QotsehkxbW9x2j8NgcO5NNxXCtxBCiPEHk4YecUSzff3rCy4xtizT3U2Dc/w7hhd9MI47rsm+852YvlzmTx/CHoEuz7kQQoh6R+J8BNlii7ICT3BB7mPRF2bMwFVXFe2AAybYV76iZdiEEGI8MmcOw53y9pe/jC11Gru1V7cHAuH9yCMFe/75aHJkz8UDD8Vipd+7EEIIUadInI8gu+7aY+ecU3V5u+ccgY6x4gbJYPT05IJX4d//Vn8/IYQYz3R2jq1u7YjsoXjOEfBpt/f03FtuKdgVVzSEbXVrF0IIUe9InI8w6dg6BDnCnBnb2aZL4FAZipAXSwfK7oYbCvb736sPpujPSy/l9KyKugGRPRTPOefQOO2kz8hppzXZiSfG7u4S50IIIeodifMRJhXni+M5dxY22Y5YejD+/w9/aLDvfndsjQ8VI8sLL+TsLW+ZaJddFr2AQgwVunM3jMFq09UVJzmFwcQ5PQLSv2FcB+xLlxeVOBdCCFHvSJyPMOl6rnHMeTRGentzgxozWdyYyXLvvXnbf/8Wu+suWTVLC2YVTj1GyzIPPZS3mTMH7qHx+ON5u+iiBnv55aH34hC1QZzTxVd5KRYVGnGbm+PfChpuxwrxPRjr+6J4zv1cGjq9kRphnp0oTgghhKg3JM5HmAU953FCuEX1nA907sUXN9g//1kMIkwsHSg7PD7ZBhMmdbr99kI/T9BoMn9+zj7+8Ra74origAb/SSc12je/2Wy/+5266C8pPNuL+lzXEwiyp5+Ow3rGE7zXaZhZElGN19zX/p4/P36PBdJGysHFeX/PuZ/LM+Pb+fKfMIlzIYQQ9Y4U3QiTFefRcx4tkIG84bUYyPCZOVNFuLShHKM4r+yo8OMfN9i++06wRx9dNsqE7qaPPZa36dPz/bxWKc89F4+1tsoqXlLIbwTaWJvUa2nx8MN523XXifaPf4yvhqDf/rZoe+45sW8N78UBYZrPR3U/a9ayV3+o1zQaZBsg0vdgKr6z0CCTvoN8vpXoOY/bMQ/CphBCCFG36E/hCNPUVLVmMGzwFMRu7YN7GrIMdO5Y8rKMFyg7ZtHPegAffLDQ1/iyLHhP3Rim7tQS525os7bw8stX66lYPBZnLonxTvqMMBykrS037nr50MA1bx6TAS5+uqg35A/wHmHCyWWpHrEO+1vfOtFuu61/GmO84/Zg8Y3d2quNDn4ujYK+ncv1ynMuhBCi7pE4H2H6e85jl3Y+GDWLIs5TwyZl3jxZM0sbLzvKJPUWuZF6+umNYbK4wTxJSwM3erNeKwevFekoFHptypRyosQS4RNjke+18rve+Ne/CmEW7uwY/LE48dlg8JzzTuC9vrhwPR8499wGO/TQljBMZlmBd8XcuTl77rn+c5sQZ//b9MADObvkkmI4N8tA3dr9HQTq1i6EEEJInI84GKJucGCwL+ps7W6wDYQ850sfytENzbQMvayuuaZof/lLMXjTRhOPG9+16tHs2TQWxcqp7qRLDr1iIDbchM0hQTfmP/+5OO4E/dVX5+3KK4s2bVqsXO5FZ2by8QTlzQSfSyrOvfwfeCAfehgs7N2/NCFuxCf7NyuN94MP5uxrX2u2V15Z8GUSPeeVH2U8HNLp3do1IZwQQgghcT7iYGy4MYpxwiRdGDR83GMwGP27hVY2El57TdbM0oayqyXOF/SUD3/ZsI72UEWAG71816o7iEIfJ71g3JcONBBkDf6xipcL42lr5fdA3HNP3o4+ujmsvDCe8EZIr1vuUR1vy2UxxIV0ekNXlgcfzNtVVw2eaK7nA3PmLHv1gLhRp2uJc4833/y98t8p2aXU/G8f7x/f5m+lxLkQQoh6R+J8hIniPG5jtCDOMXLY9klxBsKNHce7zaaoW/vSh/JzQzMtw1SQUXbDLXinT8/ZkUc22623Dm1CLTd6Y7f2BetJFOdx/2iI89mzzY45psluu218qDV/Psn3RclP6hDXjLdnGSHHc+DPhffy8Xo5XiA9pLNWoxn14OyzG+3ww1sqe2rD9XyWVbwca4nz9L03EO4532WXbttoo1IYa/73vxft+efzfWGqW7sQQgghcT7ipOIc4wQD1Q33oXgM03PoAphlvBm6YwEMUhfl/Xs2VMuHbq7DLXiZSOtf/8KgHZoF63UnivO4nRK7tcf0jIY4ZyKtv/+9IUyANVQw6hnT/+STy96ryz2nPJNDESwO5/IZyvtgLOGi1fPCVwQYb7PZ8+yQzlrinP0zZlSHjwwE5/FZVvH4Zeso77mh1HXyhnzaf/8ue+tbu0ND1Oc/32x/+lOx72+YxLkQQgghcT7iYGyk3ThZ1grDBEPHjdcsqVBKxV+tiXZGGsY/7rtvi9bBTqDMvIxSYzU1Ur18h5NajTODkXZrv/rqgh11VJM980z1kaduxXTQkLD0rWLSw/3TOr4wXnvN7JRTmsK4/mWN1HM+0ASOtaCu8BlOcV7rvbK0ie+3qnij1xDUKm/eM5/9bHO/mdyvvbYYuvqPdloo1/SdnMXf42mjAw0R998fx44Pdq3D9UMRuSPNPfcUbO+9J9jjj/evv8SNz4LifMG6Visd5A37WRWCSVK5hr+DDNPx9xTiXHNfCCGEqHf0p3CEwdjwMecbblgK4w9feSUaIxhtWcOGdanPOaeh7xw3+DjPuyA7wy3+vKshHlVgtuBjj20O3to77lhyMcTyQDffvKCxTToWRaCNNhiZbnC7YQlpeZDG4S4fN4yz+TcQfj55+73vNdnvf98YJqpzfCw64S1MQPznPwW7667hfV0gerg38Rtqmtw7OZwTITKb+HnnNdqLL/Z/vhaV6oRwQ/MmOpyLmB8uj/ILL+Ts+99vtGnThie8xYV8oFy9bFtb43etdCLEf/3rhtAF3Dn44BY788ymUe3uT5y/8pXmmmuzU295p734YnynpcOObrmlYB/4wAQ7//yG8rGB4//cc7nwzk/zaTR5+umc/fe/Bbv++v7pJW7U0/R9B74/pfZs7fG8yZP7D/NiBnh/T7LOO8upCSGEEPWMxPkIg+fclw5697u7yoZz9JwDRknWsPnnPwt28cWN4TyMl9QYyho9eGUGM/wWFYz5z3ym2e6+O1aLV1/N9S2DNJDRxDXf/W7jQsUS6fzCF5rtuOMa7amnKjsr0L3x6KObhl3MjhSUS1Wcx29IyyeeM3xlA96AMRRPHHjc+K41rpn9iMI0PQPx2c822U9+0tjXNXk48PwiXdnnYCA8/ovai8S9trWgTh5/fFMQiEvC4o45J//5LG79v/bagl16aXV9su98p8nOOKPJ/vCH0V2zzOufl221W3v4qomXr+cf75Va3cWXFo8/nrdf/aqh/E5ccOgFczYccUSLXXddMZRf2nWd9+bMmTn729+KA9YF8uH005vsve+dEM4hjJTs76WB18EVVuh/81hHF5y8kf3ZZ7fW34LYrT1nkyb19nnHuY4GYL9e3dqFEEIIifMRJ+3W/uY391hzc2+f0YWxkjVsEB0YSG4kpYZstltzagQNhyHHzO98ZsyI9+HeblgO1E2XycnOPrvJzj03WdC9BoSDl+S++/Aq9Q8LL9PDDxdG1UO2KJDXni+psZotn8UVWwPhHsdahnwtPG7epRTS64if719YQ4IPx8ga50uCe5qJ31Drry9P5707hsIddxRshx0m2uWX1xbfM2bkQ11fUhG4pGPOBxOtA0E+/OIXjaHhy+EZpo5k62MWyvK3vy2G528kIHxPGwxFnNMIeNFFDWHiQxhqXR8pBmuM4hjiknpDHGvVH96lA9UF8gEB70I+e95A140k/lxNmBC++uD9T3xosL3vvnxfQxTpzsazVr3j2eC8SZP4exgLlLJNG80kzoUQQgiJ8xEHY9O78eE1WG65qqVZy4jHU47R4vtTQzbrLfRl2YBrlhQX+4gVwLj2cIlPNq4pCxNtHg7dRB95pCpcCTN2Ax7a2MxlgTSuabq92y5QLsMtzt34H2o+edxcJGXx8iWug4UZhUf0vA9WBxYFGmoYPw7U8aGG68Y8XsuhwrhWuqz/8pe1PckLq7tDJfWcL0o+cS55nO0yPBS4V/a94OJnYSAsv/jFZjv22KbKnuHF65TnxWDd2h3ygGE0V1wRy4pzSSPX0siSdh1fGgzWYIOgdig/6jHfKdTTgeoC7z2ve9TR7LULe3/QOPCLXzTYT3/aMORJIgeD+/tzlb03x0jHn//cYPvtNyGUUXV//3t7A1qKP+OTJ5f6zcGSplniXAghhJA4H3EwNlyct7T090hgvGYNN4wY96hjuPQX5/0tF8S0GzcuspYEN54xFAHDODWwBwuftA1GKv5S49yNQMJfmDE6UhC3P/yhaDfcUNuz+pOfNISx+A75gGENaflkxXma5uHAPbND7S7vhr8bxlkQQr6/1nGH6z09w5EmPIUsoXbiidE7OlD8auG9KxbFc+4MJArTMlwSXMhRNxYlnzzti9NIwLXZe/n7ZmFQprxTnn12ZP4M8DxzDxdvVXEev2vhQ4AcxDj58tOfNtqhh7bU7F4+knhcyWfSkuLzgjjp8+TEhsfKjwzkj5c549azIndh78PHHsvZGWc02gknNIWu9YsD98C772lzcc5qCD/7WUPf88ZxPjRIcA7zGjjZfMn+nSL93rsges4rBzIgzr3LuxBCCFGv6E/hCBO7tUfrBQE7cWLVksEwyhpuGGvs8/2pIZt6yJjg6+KLG/rOy4azOLhXEmMNiIsb/oTPetTf+EbTAh4jaGnJWGgZEJR+LmH6dtWArxqjiDcmYFrUccWLC40RjPP/2tcW7JqPEfqDHzT1m6iK+Hq+uEiHtAss5yzMuF5UvGdDmn+D4XGrJRq4nrrF98Limnrsh6OeIQavvLKhbz4DRPNQw/U8WDxxXtnIsDge61pUJ4RbtHzyvOd5o0cBom8o5Qux7PrHfyDxMxAuEIcb8pX4eV5ku7XjuaebdEpDQ2+/+MceG7ErNfUlOynmSONxrVUeM2dWNiqk70vS4ELT92XrBOXuda+W53xhdQjhTP6QJ+Tjbbfl7ZJLGvqe16HAxIEf+lBLeCa5vz9XJ53UFN71118fC4O41MoD9mfjmTZSksZp0+KQGP4ONjcPLs7lORdCCFHvSJyPMBgc7g1CwE6YULVwotjpb424t9oNnlQ4pIbpWWc12i9/2dhn2Pv3kuDi3D3nsaEgbhOnk0+mQaCx38zFbrwuiuc83cbwxujj42m48cZCWFbJu9ePNIgEGhyefbawQIMAXiCPnxunlI2nwYUNcU89s5ybpnM48PIZall73FyEp/Dbj7OdNbBTPF00sAx3miDGr5p3g+GevEXp1u54Xc3i+bCkeJdrwmNJsN/9rmFIYad16YQTGu3jH28ZcpwoN68PXsaLKs4H6lGwpBAv4uTx8vqLoERA0iOFLvUc9zzIev15HsmL9L25NPG8IZ89Hc6CnvNqOpqaekNDA9DgAtn6x/lezqn32sk2umQhD7kfHxqtvvrVFjvxxCa7666hV4D77isEQT53bvydPlf87ak+++FrAYhz9t3h5QxXXlm0gw5qCbO/s4RabKyuNlykSJwLIYQQEucjzuDd2hf0GGKssc/3pwZdVpSlxhwiOmvcLSrVMefRQuLebpS5ccrHDUq2XZC4IToQqXGXptkNePa5MYoXiLgMVYQujIXlC8Yz9+R+zz3X/5FIBYbHm21Pj+dF6i0CzhnIuMaoZp3urNdwYbjRO5ChPGeO2c03F/rS63HzOpXCOWnDj+c13zSOTJ9ePeZ1kDCy4QwHhD/UcD0PhrNbu+fTklIddoDIbrJvfrPJbr994ULJhylQX26+uWj//nehb9/CIN+87LxeLKo49/oy3JCvhO1lm3Zrp+7RdZpluzjuZUPc03eed2vPTlA2VLjWhefi4F5o0pHNp5kzs+8KGq9iOnjv8+EaF/HZesb5nlb3nDNhqDPQc+7QWFvN29hwxj28R8pQoGcQ5eINvwM1enkdc/C0M49Drec27UH0178Ww4z3lDXiHCjjWiJc4lwIIYSQOB9xMDYwRujSh3GSHXOeNfgwrtiP0cOxVFAMZqwtzJAbCi58Xnqpuoybh0s8MNAwoCZPrkbaPc0LExNp/Dxt4EYf+/wc7665KGnC88063FljkaXp/u//Jvbrip8Fg9TF3jPP9D+P8iCufDzsNK5ucGfHWXJ+1qB1bryxaJ/+dHPwKC0MGg4wtgnPxQ339vxLOe20Jnv/+yf0dUX1uEXx2z9+pMGFAWF5esgL1mf+8Y+r3fhdoJCeoYrGwciKJepWttwGwj3nzEieirih4PmRJW2kWFz8ufXtV17Jh/JKvYgD4WknPQtr5ELE8fG6lZad71tUcQ7E+eGHY5yHC+JD/Dx9LtrIb483dYttL0uuScsJ0cj5dIeOv+P3UKFr9sYbTw4NV4uD141a9XMwzznn8yFtXmezjUOc72mlTDl/ypTyBRU8rIEgL/wc8pa8Iwx/XocCjXBcS1jEdSBxnk0/Pbe2335izThSh0gza7w/9FC1MnrdjuuZh82AD4mSOBdCCCEkzkccjA085whzjJK0e6YbUykYqRg8vp/f3gVwMGNtYYbcUHDPOYYVM2mnxibGrQtQN/4x5tzj4sJgIAiH8yFNs+9nn4fhgsbjMxT++Meivf3tExeYtZiJlh55JG833DCwYkGQezqfeab6SBAnFwMeR992r7gb77VEzUBlglFPHj/xxMIfv899rtkOP7zFnn66uj7+QOE6Tzzh4rwaxzTu/p2K26zoJt8cFxXcNy27xSXbO4F6NtRw05mgH3ssb/femw/XD4U0vSlDvX4w0mc5bchKPaED4fWeeDRVJk6vVZ+I/8EHt9i++7aE+hzrZFWo+/dQJ4RLeeCBvO299wS7+urFuHgAeEbS58bTRDrYR3wRkmx72fC8peXEb/LF3zm1ZgIfCMLlmSEOaX1eFFzoEpY/O04tce5lEM/vfzxb/zjXn9E5c2KDaLq+uIc1EDRgch/wnkaEkW0EGAjShhjnve4NJwP1SKkVF+7v+4vFarwJi7y58MLGfu+4gTzn3iCRFe1CCCFEPbJ4FosYMlGcR685xnqt2drPO68xdHOGKKTiBzDoGL8Ig4kyjmWNx0XFDTRgvDfGpt+TcdkY19zDxQzbiyLOnXTbDUrywcNIGwmGiqf95Zf7V2m/V3Z/CsLX5wVIxTlrQH/1q82hscDjCGx7uJ4Xad4B5wyUJzTQNDZWIlwDTwsglh59NG/TpsX8hzT/atHV1RuMbr8/dYgl/YB9pIMPdY14pGlz0t+pQFnYvYcCaUkhftn7D0RaJw47rMWOOKIljJsdCgOJFi/DJcHzFYij55nXq2uvLYRuwLVI65KXfa1zedZeeCFfrg8Fu+22Yt89vaHIv70xrxbc49lnq3XDoWcJ8Wac/HDh6fF88WeE8o7PR+whw3EfEsB3Wk7xd7WMFuWdwDVcC6l4XBT8/UZ8vWycwT3nVeHseJ1wON/T5WEvv3z1Jgt71txzzjNM3lKm5Ne55zaGxsqFQZnTgMB19NAhvrzna5HteeN4HL1nAxAX9nveOy7Osx7yyZPjN/sGq7tCCCFEPaA/hSNMFOfRgMJj0N9zHtdf/ta3moIxhfHmBh6GEgYbv32ytcGMtcGODZW0Cy7d1TGuPFw8KlXjuv95kDX2s6TxSw1dFxT89nPcOzZUQ5xr/f7Z+7iB6OMwOc/v7WCkrrtuTyif1PP+jW802//+V+i7xo1tvv0+blxnJ5JL45Rl4sSqhzQblyeeyNlmm03sJ5K4F2F5fuDlzl6X8p3vNAfvqi93RBz9fC9TfrPN6gG14poKC89Drkv3Ly5ZzzmColZ6iDeNDOmxtDcF41ifeio/oKDIkhVHjnsvFxfy7p//LIbhIEC3/bTRisnhDj54QpgBuxbea4F4eAPMc88tGCcvN6C+sc0+Lx+vi1khynmcT1xo7HnzmyctsCSZx+G664ZvLXGvUx5nLzvim8adOuVpcE+5wzHeB36c4QxDhfeUi35/zywqXh616n12qAzlR5qA8z3dTvYZI07ZBqPBxDk9gL761aY+7zZ1DNG85pql8O4mPO5LYx6NVgsjjT8zz5PPtdIJ2bg7Hn9/nwG9rCivbJ57Q9VAnvPsfiGEEKIekTgfYTA2MDowTPAKpEupYXzdcUc0kjF+MIzccHVjCOPHx+QNNt43a8gtDqnw4f7uxYcozmPc3FBm27u6L+z+qaBM08F92E/a3ZibNy9Wy0Xpwur3zxqRLsgYW4m4Zfm5yy7r71XC4F955VhW6djxVPQRR79Huu3CrpbnfKDyoqsz9YE0Z9PIes6vvpq3q66qxpF7EdZQPedw//3MwhzzkTh6PMkP7ku5IoJYdxiyRrmXFaQCZyj3Xhi1PI7Z+8O//lUMyzylXuShjOEeCK+3ww3poYFtRmUiRUST12vy3esU90+Fp1OtS9SHeO7zzy/4ak7rNmUSy7GaLj/O+yaFBgx6gNA75557mGwuXhcbDmNBexjUC4a0DAfpsw3+jFAH2c9x6hR55M8peZctJ55DP74ocSM//brFLfuBPOekKSvOSY+XJcfT8yErxDk/Wx9WWKGyUSYrbm+9tWAXXdTY9/yQNu63zjp4zmN4i0Iafyan9PdFLQZ67rkv3dHTuRLo1YH3PtvI472Fogivnr/ccnGb+ihxLoQQot4Z+K+xGBYQ5HjO8SywnS45hsFTFecIn6qIckML483FuRu5tRjs2FBJBWY0mmMc6VZPt0dEBgZnaui6AZY1JLOkxl0aV9JJmOzzNLtgHaoQ43oXwul9Ylzjfrqr41HCaDz22KQPZhkM/qlTe0P5kGbiUssT7vGO94vbblwviuccMEI5ByGe4t7XFO7L/Tw/0jQOhseN+zjkB+Gxj3L0yf0I09MH6baXd/acxSUrlPhdK9ynn84FMck6yc6iNNhkGaixZEnhma01ppk8pgyYDBIQmbXqdFqXquJ8wfP8WQEXuFzrddzrW1acH398o/3qVw32u98VFxDj7s1My2SoPVYGI6Y9vi8Q/MTTha7XQU837xBPA+nyd6DDu8fjN1jcEJhpXeEab1jyZ2FR8fcb8fW8B0Spx9nhHul7KD0f0jwGzs/GazDPuYc3a1b8jp5zxDme88HfN7VYUJxXftQgGxeH+sx70+sR0Hjwm980LNDLYaBu7S7Os/uFEEKIemRBi1IMKxgbGC4YJmxjgDgYfnfeGS3paNhVjTX/xlhF0GOYDWZ8YRRWjbecHXVU8wJdVxdGKhy4F8YnccJg5NsFlBul3M8N7hkzcmFcbVakOqlxFw1z1taNRjfhuAEP3kgwmBAj737wg0a74oroYfZr3QB2Y9p/M84Wgzqd/MghHlOnlkL5cB1pZ4KsFMZmei+CeE7c9nLKiq7ByotjMc3RKHaimIjbkyeXD1YgbXxScc71CyNr+AP7SEfMm1zfeE/PLyfd9vL2eIDHf3HINuQQfq2wyD/2u4fwb38rhvHli2rAD/bcDAd4Dr0BrT+xfvv9Eee16rQfR5R674hs13/wvAfyxJ8Zr+Oery7OvUz9PXDvvdFrDtR58tEnj0uFVK0GhEXF7+31hK7+XqeIL9uebp5Jr/e1POfxPRHjNJg4f/ObJ9qRRzb39WAgPz1cvz4L+TFY/fB3hcfdqRUe9/P8TcvK8YYCh/tmn9F0QrhsGJ4W5s/gmP9ed13v1h5/Q+362B8f6sPfpCjOa+cRpHHxxmagUSArzsHLPcXPyebllCnxm/3ZY0IIIUS9saAFKIaVKM57a87ajCfXjXCMHz5urLnXiW/3truxkzXaIN334IP5sL7s1VcvqjivbJTB0HPjL/XmEKfUeHbP0gUXNNonPtESujTWIo0f6fjvf/P2wQ822z33xPSzz43LoXjOWaqKMbxf+lJziJOHj6GP0PjlLxvsuuviOH6YNSsf9tfKO/Yz7hGvIo0GxOOuu/rnHffw/E/vR/kA3nfK2oVRek4WwomfXBjr6WAsuzcrHcNJnKgX3vDh3rmUNP8cj1sK+UG8OJ8wJ00qR7QMv4mzw2/H8zDGOW4zS/qZZzb2u2aoZAUJ9Sm9n+NiB1GDR5S1wxFvPEvuhRsKab5k753ed3HSAsTPG6lSCI/7eTkgMmvVaa8neC5dYNfq1s55HkfuyTb7quI8fnsd9PP9GSUPH3ssHvQls/xc/w3D4Tn3fOX+bKfhI2zZ72mlXnsaiKtv8zxR1uSZ7xusWzuNH/Q4YA1u4Bqvu359lp//vCF8/Lws/sx5g5ZTKzzKmjLwcsmSrXvUC/IircurrFK9SfZ59oYCGh/IU+JMV/FVV+0NZZY+7wsT5+QV7zh6day/fimUD/sGIk3P5pv32Lve1RVEOXGiDg1lhQDv1k7c07xcbrlYWdiX7hdCCCHqkQUtQDGsYCTttVe3HXpoxjIrg4FNt+INNigFww2jxT0yjIu+4IJoNPokcm4gZQ1JxH9qPBEWRs5A3iL43//ydsopjeGeTioc3LBFsDKBWYobptzDx9MCIncg49mFgm/jmX7kkUJonHCjzI11FwdDEQl+P08/xj2C/9RTm+zLX24OeQyE72sJZyHeeJBJJ+FgFGcbGdhPd02+3WMJbnDTHR0D1Sc3Ii233FLsm5QtxXs58Em7tSPePM2p8U+c8ahyPvi9iSeNMAyN4JysaM+KAaBOcC5hcZy6hec3Kz78+JNP9h/r7nFnYrETT2wKYS0qWdFBWrPLToHXY+phb3nD40dj1cLWA2dCtfvvj3mbipasiI73jtueL4vKyy8vmCYgLO7t5cBEWbXqtOchKyQ4aY8Kx58PiHkSy8Ofc49DVpzzjNIIg+fyppviQfeS+r29qzQM5blbGH5v/5Ae99R7nns95j2EVx94Xj2/SAeeZBoN/XlYWNw47o17hON5kz5PKd/9bpN9//tN/RoPUrxhg/im1AqP/Pc0+XeKp8shDK6h1w7wHO60U4997GOdQchmn2dvPKURj/CpA7y3GJLDOywNPxvfLHfemQ9zOhx0UJdtvXVPqCND9Zwjymk0oTwR59FzvpAblvFGCMJKn3f/+7KwOAshhBD1QNUaHCV6yn+p//KXv9if/vSnyp7xBcbovvt22yGHRMtp//27yqKm3T7ykfj7ox/ttNVXL/UZdm5g/fvfxbLh2By8GS743FjLGnkYN6mwcCM+e17K9dcX7Qc/aOq3dBjGHwY8xhZGLYZyVghxj1T0u/G6MFLxQlwRSf5NmGy7AejG9WDd2h3yl+urXrg4Nh7DFS90akS7xwkQb3SLR3gi8Jmoj4YUjnP97bfng/HJBx5/PG977jmhbNAW+uWrbzPhHGPzV1op3oD7Xnppg+2xx8RyePQUKITGFuAe/kkNYvLVw0uFGPlCnNygJS9JMz0vjjuuyd75zgkhLM8/J81zh3hxHudzP9JMHvo+h+1zzmm0vfee2NdQQZwQcaTD443gJC58hkoqloF4pPcGfnteEOe0LHxCvYHg2pNPbrLdd49Wf5ov2fqa1mXOIz8///mmfmW8MGhg4pnB64mwcsgT6iEf4FlOe6dArLtx27sZQ/Y88HIHnk3SSXo87zzOiDzwMuX+a63VGwS6i1sfX+zXpuK01r0XFc/zOByE8ONyhcSB8iQdfs7f/latT6THyySKc94D8V0EiNBaeL7QwOhp5D6e99Q5tpkQkgYnh/NJr+dDFm/M4bjfA7J1GMh/T1NWWIPHxXGvPOIaqEP0Utpvv+7w3q2GFVcmIA+B9xh5RNwZ/sKkjtn4ZYfuOOQJ9Yjy5r1Ho7GXSS1x7vmSvo+iOI/b5B2/eYcsjLRbexpXb3zO7hdCCCHqkfjXfhS54oor7K9//WvZCMpYzeOUlVfutY9/vCss3bXxxiXbZ5/uYJxg/GCEYSQ5GCoYmj4O0Y21VFAAxlVqDHIe19YSZ44b+qnBiEGH8MHQ4jhxQbylQohrPI5s1yq2++7L93UtdTzugMGHYcq3X882xi3e6fnz47VuZA8GBjzx8PAJNxVyqeccg9TPY6IxusX//vckLhcaOBDoHEf0khd09/TJisgPDHW6G6dl5EY6E4LhGUq7pQKC65JLGuzyy4t9E9GlhnRaRtzb40de+Dl8I84dN5iJD952YF+2vGsJCOLu92eb7vOUbxonYJt44/H02aE554wzmsIScxdeGN1g5AcTjd12W6Hf9YORFb4epxTC8vhTR6jffk5sMIrbteDadGKw9H4uiBzqv8ebe7CEHY0R2fo7GDT0rL12qfwua7VPf7qzXAdiRCnLP/2p2LcsHmVYq+uwlzn5jNChTntvhRQ/D8gT4p2KMD/u7wJ+k7f8RgDybDsIMa73a9KZuofy3C0MwvV8pdyoR3iD6SnEu466mq2vQLr8+aLL9fLLx/HUvm+gBruqCK+KTBfkwPX09vjWt5rtmGMq44QqkOcD4eVAWjw94PFJ4d6ebr6z4Wbf25QdeTJhQvzt5/PuYtvz5x//KNrb3jYhNPYB75TzzmuwG24oBmFe61lIeyA41L1vfKPJLrqoIdQJesv4s0R6mBcgfXeCh5E+n8QNcc55pIH66l5xlnVLlwtNGahbuwv97H4hhBCiHhnELFk6bLXVVrb//vtXftUPH/pQd1ngtNmmm2LMuGGHQdXfgAMf8+2GdNYwdFHpEBZGTi3j18FA5hw3XjGMEA+INYxi7sExjLesVyS9fyoaAW81a+yefTYGYGVnGdLmnl/2Iyz5xogkHtz/7rvz9qlPNfcZhGk3+4Fwg9bvRbjsw3Ak3DSuqTj3vKGrO133aYRwbxVd7smf7bfvDt7wFMJLjd5YbjEcDNSVVup/Pjz9dN6mT48R5Vw3Qj3dTipYPFzHxRj4fq5Nt7PlncbTQSD4/TkejfPYY8DDB377DOSeh9yLhosUxDnDB370o8Z+8R2MbDwJn/ul8Nvjn8YZouc8iWwN3HsM6f3cE+pwDw+XeLDN+f5cDAXygEYcnp3VVust1/+uUJ/Ij5tuKtof/lBVT7W6q7uYJm6kjWtT0e0QnseV+JEnqYj3dHo58NsbI2jgcxEELmA93/t3a69sVOA3a2wvCh4H4ss9CB8R6KsDEP9sPQCeO+r6euuVbPfdu8v5GtPownYgzznXONOmxXcK5emNc2z7sJQs/r6ohb/fPJ8cfyZSeHd7WXIfF6NO9nkkXbz7/Tx/l7lA9rjyzKX1lnfN2WfHrviI8+x9nGwjC0Ns6MrOzP2ETZq8Fwr5S53guUqfLdLJJ417FOferT3+RqADjc3/9381CraMNyJwX6/H4I1G2f1CCCFEPbJoFtcSctZZZ9k73vGO8PngBz9o9913n22yySblP86J1Vgn0FX9da8rBYMF4wRDFYMpa8BxPLsWdSocMMwQhVzrho0bdbWEPnCen+NGH0Y8+4mLe84xbF28OZzjhjLbqVEMTDJEF0w8l2la/H5AOqLnPBrihMPnyisbgphxUuPS055lYZ5zTx/nYHxyT3Dhz/nkMcIKUcRxxBbhUT7Zqknep+lim3hixE+cWOo327KTep+53tML3AfPGB4tjGBPB0a+nwt4yH2bdDADN+d6vnDMr3WydQn8HlzHNukj/eyjXP0ajrt44jxI7+cwARd5mdbJhZGNF/fNxp30+HmEzX3ZR/3cbLNSnxgYCBc6gOBzsvXVG4eAMvR8dFHnnHxyY5jAkO7g2bi+8EI+PM805JCXRx3VaZddVlHFGdLu404aHuURG+v6z74N6W+Pd9oF3Y97eqhDpIlnYYUVSqGOOy7O/d5pvLKijvXRd9llYr/u4AuDcIkHH8qOZ4C88dUBYpkvGF48P2cnnthhP/5xe/DCpvWrVqMF9BevcR4L6o9fx7a/E7IMVJfiMxIvivWvGkC2DgP57/nJd7ZRM3sNjV/UG/IFvJGAD9seFnUirc+8S0qlWMjkj1+fhW7rnHvDDbFXC+8Q3ncMw4jv3xg2fz94xqkT1BH3ggPie6utJtkpp1QrD/Hj7wLflA2NuYQPvP/WXLPyI4OHy31TCAs8DCGEEKKeWari/KijjrK///3v4XPppZfalltuWTlS32CMY9hhtGQNOAx+RCO48e0GI3AtRqAbcsB5bpzWgvtUw4rfGFkYW4gfDEHugWHLvbPGX2qEpkYx3HprNAS5t4cNafy4P9dxHvfgm30Ydum93IOHcGCcM+PAs/ga0tX4YDRGrw7hMibaPUsIBDcMfSI5vEkYjS6KCAeDlGujVyqe55AvaaMH6eQefK+9dq9tuGEp9IZIoTfBjMryTqSXe3g82MaTdfHFjaFBw4Ukx11YANcTJ7j22qK9610TwuRenm4ETVbsECfqRtrNFGPdRSjp8MYYyv+ww5rtwx+OlrKLIOpfGle/n+PrcWcnDRwM6g8NPpSRQ56nxPjFbYQo92Xfe97TbYcfHmeKdjx+KR42x7yug3tCnbSOEgfO576Il5Q//rGhnO8NtvXWk+y00/pXCsQs9cTFmD9HtXDPeRrnNE+5zssr25BA+ZIHhE/dIIxUrHq99LAJNz4P9L7p38iGECMsb6xKxTmeWj4ejj/jl1++oAokHrXWZPc0cQ8+UZzTrT0GSrzScslCPhBvhBvvAS+nbJ44aXlxDveM77AYN7Zd/Dpev9J9KRz3PPB0OOk72OF8r6d8Z0V/tsHn9tsL9oY3VBsAvU4THz6eP54XDhMHbrBBjAzDL7iP9xThHcoEb4RFvaTXxgEHTLBbbikEcU5ZEjcalCC+3+kpFYdcIM7TRhyEfLa3AmFzHXFyz7nnTXzfxO0s/h72euz4s0LjR7pfCCGEqEcq5oAYTaI4j0ZT1uhzjy64wZsKCgx5jDM/BlHgLeh5c1hb3Y1xF4AYWRhbGIp8Y2hyLPXMYAAifAmX+/GdnTzKl4ZDKLB91lkN5XvF893wwuB1z40b/myTVhfb4B68m28ulAVRU5ggLwtpd2MYCI+w/IMIYZw/55BmP88NTrzkCCsMR/KZ4wgeziftdHlPIU/S/CefuAfpZdzx/vt32ze/WcnUCowRnVER594o4XlBeN4YEJfSivuJR2rM0xuB9KT8+99xlnbgO1vexI34u7G80UY9QSSxDBrnc9wbX9j/1FN5+9//oqJgHDVgbHuDAXHy/HMeeyyWN/MepAJiMLgv9+R8DHvukR2LHeMX95FH/CaPKCfS5EIGCC8FcebHyds0X7Kim7L0sqDcuQ/PYNZ7DBzjnEcf7a+6CIN6mKY/FTgp5DM9JZih3NOc5inXuThnwsI77oheYCAdbHOcPGE7Fedp3fFv95xTPmlDE88C15MmcE86/P3vRTv11Ma+d4TnGT1bPC7Oz37WYIcd1rJAt3fuzbl+D8KinPGcEx/in6Z7k01KtuKKMTIcJx9cBNJw5O9F6kR6nePvEaDMgXj7uZRRWmeg1vj/FO7l+ePfrARBY5rP9eDw3qIepmVAenlfOul7g+tZTeANb+gppzWe4/GLjYvVeUQQr+kwDcrUGy5326075Jc3BGywQY99+MNd4TnxBkgg3owp9zzxBpUFPeexB4jj76sU4umCmrLht+cP8fD6m8X/jni9cLxxgjCy9xJCCCHqjYy5suiwxNGPfvQju/DCCyt7GLP7gB144IG27bbb2umnn17+Az749L877LBDXY47dzBAMeowmrJCI3rO43ZqaDqM4USscMwNGzfi3VBMwVuzzz4T7LLLoqXkYSEaMKwYO4uxRzwwiDGc3Kjim98eVwScCyjHjTSuP/bYJvve95pDl8jUq4u3DgOTMFxkxH39jTOvNggL7s2M6MQTUmMQPHzCcAOesBAFq60WT06NcRcjeJAwZEmXe85djJDvWYOe/ErLiHsRLvvWWIMJrHpt3XUrkavw8MOFPqHN9W6E8iEfPDwaDLg/eN44TzyxoDhnLLunm2N+rUO45I837my0UewSfsUVUWQRF0QQnjOuTcP3Zb3Y795K7uWeVsfFPEIkxdNXC/KM8iRvPX5ZocS1ni8uzvlwHfdKyyXNp7/8pWjrrz+5b5168jR9DlIRB17/wBtJuC/CBu+xX+teP8iKD89nnhsn2+PCof5+8IMtYaUEvJmQPhukjR4bhHXWWU123HHNoY6Aly/PKPWJuKZp820vR873Rrf47FbjTW+P9FrKhDzlXPKIXhw0UHAPvz918Jln4rZD3Savr7oqrQDVesz1xIclA12ccx/i7/enDn78451lgR7jx3menzyXCEAv4xifuJ2SetS9jLnO4V2WfZa9zvEcEG4Wf1aB43ze/e4J9rnPNQexm0K6yENPE+knHeS7Q3jOjTcWwjF62XhDjsePdLPteUgeZONO/TzggC77+tc7w/ncC2I5x/x77bVqww7lSXrJG+ob4py/G5wXPecuzmN5OLV6KtBQwD24L41DxM3zCZgDpRb+DHFumt+8Z3lHMwHniivWvlYIIYSoFzJ/8ocOovyFF14IwvyXv/xlZS9GV4ede+65dtBBB4Xl0V566aXQjX04wShoaCiUjeTGcfGZMoXuyQiWhj5B4jQ358qCLxrx+XxMcz5ftfgmTeI6lv3K94XHeVAqVff554kn+quG3t6GsH/27IZg4K28clwWqmzehesnTmTceawmTU258rls5cvbC4aVQnq6u+N1zz9fLIddsR7L0H2xqysajp2dfEcRED2X0WAGjGvi1tJSDGWOWHjkkZiOUinmQbFI/IhHvFd3d6Ec/2IwbAkTg3ONNeK90u6Zc+fGPMKjTbqmTCmWDWzigRCIXfPZVyz2f0RKJa6rpoU86upqCEb5mmvG/J48ObHIF4B8Lob7QGcnZR/v0dpKvON+yjOXq4ZD3InTuuuW/6vw4otVz15TE4K7f1zJ/4YGJo2KYa66as622MLs/vsLofwQE9S9xsaY7vJdw3kpxMcbFshTFwyOT3RHfCkH0s/nvPOaygK0uRwH0kAjT6xnfMgrxKuLCuoUaffjfJqbKeMYNnnOs0E41MWJExvKoiKNa/Xa3/42Kgv3bHZ2cl0sa5g7t1jeR52K58c8jud2dNAAEr20l13WaHvtNcG+8Y2WcC69BxAtU6ciDvNlcdVYLhNPD93aY7w8HlOmVMsOSOuUKQjCahk1NcV4k3cO5cUkaA5r2D/+eAyzUKDe8T6I4pYy92cdCoV4/+o+6j3nIJh4d1Tvw7PE+SkILm9UIC/IG8LjmXLmz49x8U+hEMOcNataBi0thBufOT7Em+eQerbiitGTT7y8riMQJ00qlK+LvynqCROK5Tg3lvMiNhJQV52env5x4MNz5RD3+E6oxru3lzpfCPem7nBNW1u8hrxsbKyWnX+KRY7H++bLmUi6XPgTXgplEmkI96YMSEcqdKmnbW2NdvnlTaF+rbEGDWaFcr7HPCQfJkzg+li/i8X4vp80ifdfNf3Au5LrYp2L725oasqX3z+F8Luzk+tiPJ97rhjqPuXBM/zCC/G5J/yJE4shfxHv/L3h47S2VuuMwzuRdyNRIh68g/39y99ljtViwoSYnkI5ocQDyCPuf9ddXXb++T229toLloM+y+aHekodSN/t+ozvD3+zeC+lf+v1Gd8fnm/+/vC81zquT/XT3Fz7b9/isOBf3iHSXbawb7jhhnJkmm2bbbap7MWb93TZKOi0XXfd1dZaa60w+dtdd91V/mNcFRWiP3jiEOUYTd5908G4y3rOXSwB12LUYeh6FiMW2E4NWsc9O457pBB6GHSMWeQPLtfiTcFgd8MPDwtxIXzi8vDDUchHMd8f0pF6ilJRh6B0L7l7LtmHAOX7bW/rsZ126imfEz1Rnh7E+oMPxpt511XgmIfvnmjPDwx7ZlDH25PGwbvsYmyTvigIYrrcg4pHN+1OCqQrbUDxfELUeTm5hwhPpeedw/1Io4vq6OmP96PbqZcP8UjL2Vl//Wp8SKOHw3eaPiCs2K09XoN3jyW1aJDAI0Zc8NISR/LYw0ohzNRzW+scYD/3+/OfGTJhdvrpiJBiWB8+C+nlntQz4ke+eU8Gh/C8/pIP/CaPKCfqe1rnvA7XIus5P/fcBvv612mYiL8pT8IF6hfbHPvPfwpBeLDkXkw3a0r3hu7XHDvssCb7wx9i4RJPujWTHiftGgzEl3qI59zrlD8fafyiQIt54zD7OHidRuRzLb/TMvdwvIy87AiLfEs956QnrcdAnHnGgfrh+eqCFLI9HBxmEE/h3sSVD+HwHFLmNDwQH/Z53PnNe86fG+Lg7xXeP6Q1nUG+VkesNI7u7U3ff6Q1+57yOke+1XrW4nMdt73+OV52Xk7UDcJ3rz5hUpapOOeau+7K29e+1mjXXVcIM/szTwVlA5wPhMmHZxI8DimxzlXP9WvJY+7J7/R98tRTcVJKziU83vee33xTFpRRtls7+9J0A2FwD74pC9KdnjNQt3Zv+GEJUXoYrb46E6LGv1/Ui1VWiceFEEKIeiZjrgwdPFl4xz/xiU+UjcWytVjh8ccfL/+hXa5srMRpeZdffvmyETQ7bA8XGAJdXT1l47lzXHyKxZ5yenpt5syuBQyhxsZS2fiJVnRHRymc/9prVau6uZnjpbLhVyobhjG8trbuEI6fn344lvLaazEfp00rBaE0eXI83traUzZyEZelshEWreho4JdCuPPmddl998V1i2t1Y+zo6A3XQ6lsDba2xjgBaW1tjT8w7jAW+WCA833SSW22zTY94fxZs4h3V9iPcfvoo6Vyfeos51WMJ/ch/qQf5s1jXeTuslEawyeMpqae0OiQ8sor1d+Ipe7urnL64nXz5sVjkyZ19Y2DdebPJ/yKqijT3k7aesrxwzjvDnHp6Ynlg8HpBrAzZ053KAOfbXnu3FJfPs2aVQrGNI0CXV2l8rn91RPrZ0+ZUr13yvz5XSEvUjo7o+Hrooz0TZrUEwzxJ54gHgiD7vI5pXA/F0sp5PtCRqUEuNcFF/TaIYewdBj3i2X86quUE3WhK+TNvHnkTy6sh0zeED/EwMsvZ5/nrnL8Yt6T59SfmGc8K+RLNa3z5lWv7enpX14vv9wdyogus9TVBx4w+8UvWDaqy154ocvOOSdXvi6eS7mTXuoMdY1v6u5rr3WGeyNCEBMzZkTh8/zz8b7Uvd5eyjGmkU9vb/+y49qpU0vl+MRw4amnqtc7uRzdnPunYc6ceB71mkbOSZNKIZ48G6TNuemmXrvnnu6+8CiT2bMZk8wNu8OznEJdTKE8XCiSJxznvnPnVivGjBlxn388v195pfquaWvr6pema67JhQabhgbEWBwjPXcuz1o8HhsrqIcxYxCYlHF7e2d5X3xvpI2WPPtpHPhQnkD5zJ8f3wnz5lXTRx2iQRl6euLxl16qpuuVV6pl5x/iyLkQ31nVMuXZIR3+fHNftj3PeEeSLvY7vDd4N3g6W1rID1R+jAflRN51dHRVtmNY8X1eDcfp7eUdzb2qYfK3oBzbUN9mzqTexLCnT6fhnMYA6mqs35Q1fzMIB6hTxDeN85w51ZnYHZ6JWL/J61h+Xg/4u8x7sDaxHu++e4f99a+t5eewzTbYgDxYMO/1WfY/1FXqRvre02d8fzo6eG/jOKl9XJ/x9+H55u8Pz3ut4/pUP+3tA/3tW3QWW5wDXf2y3e3o1s4+jgHb/DEXA4OngTG+73nPglNe46HwCb1cPKWGKrNkI3A45kaUe4wwsNOuz5AtCveOsawPRjGeVYoU/YMBF71p8RyMNuKCjcv9HnqoEEQvY2BTfAx96rnyuBM2ccArCXi5iDef2K09egb9ntF7Xk3DM8/E2YP9es8LN/QJj/siAB3E6Sqr9I+jj10HDFvSjpeOeBI28WEM+fe+1xEmXXLIL+5Zqd4hn/hwvnucPO78ZqmkFK7Ha+ld+aOnP27jyeObPCX+7s3jXpTxFlvQgBJ2LUD0RPa/F+kgbe7Joi7hscKDxQRexAHBSny5X7ZuOHjPFgb5xuR6hEEagHSlHk3KyL2V5OlZZ7XbL3/ZGupL1iNLOEGDl4lpi+ESV9Lk3mfwOlwL95xTB9797hgg4eCNfvbZOCkX41zJE56XWnngPTe4b7axBUgn5ZPGKXseZbjSSqWy4ItlD4wnP+YY5mMIPwOUb7axyz3BXsc5znNEuaTXXnBBo/3wh42h4QA4xrWcS74x0z3LA7KGOGTzjfrhdZfr/Lj3nIB0IjTypH9Zx+3y3r7yAp8pfNdde0L6iA9he3r4Tf5XhW7ML+CZJG/B30U+lpz3k+P1jGfH45u+J6lLHibxopwZd++k49Md0uP562lxuDfhkWcQxXk1r0gbab3wwjZ7y1t6QpkRH9LCfuJ58MExAe5R9viRH3yod9w/fabII44BYfm5nkfkD+Hxmzz3Z4jyob6nY7rT/HZ4V6TvmFrPPvfjHnzzLuM7zZ+BPOeeV6QT7/mWW5bsmmtawwoXQgghhIhUzIHhY6WVViobIXiDouHBd4v39xU1QZwMBAaNZx+Ciq60qVGNWMaYSo10DEOMJSZr+uQnm/sJUTeIHReAdEuNRmP4Gc7DsEsNdgwyF954TJiNHbGXFecbbYQntmo8Exe/LwYhxqYb8hizWUGEIct5GHF0E/X04G11ce7eXO7BMU8/Io+0pGGSBmZsT/Fu7RAN5ihiMaA9fxF0pAVD0uEYkyl5/Egn8eN+qaEev+N69imkOzW2EYSEwW8XrhjQnOPx2H33bjv22A777GfpZRH3ZUGIezdYh7zlfDeWKb8oznvD8ACOefl6GmrhBv5gcK0b+w5hehoI4+c/b7CjjiqrrTLEZe+9u8MY+lrd2skPvy9hED5CgLgSbxcykIqwLC7OuebLX+60z3++I9TXhx6Ky9Zx7WGHdYZeCd44lMXrH3Gulf/E04WSw7kpeEIRZGm84frriyF8h3BcfDsuPF3wIljJa+KbPvfAs+7PFuFSB7gndXLPPbvLAr7N9t8/Zmw232JdiGXIc8e7gftVRXd8vhzyyu/P85iWYTZePEdef8kLwvZ0Ez/S4+8ZnkXPp5jnMU4eP54ZlkD87ncZu90Q4uFx5P3Fdlp/gPeEh+nxTuObdpt3qHfeyMc1hAmUDZ50vr1Bjniy7fcmfBpzttuuZMcf326rrx6HLnGMsD75yY4wfAc83R4/wuXDu55Z89MGLt73LsS9zvHxekleEQ/uTd1HlAP3pOyYXNPxOso1HiaNvYTnMPGcpzuFa/08ruXZdLwxOYvXLYfr/b5CCCGEiFTMgeHjDW94Q9kImGMzZ84Mv6dPn26rrrpq2Ba1GaztAkPLxfsDDxTsM59pCUa5gyGPUZcaw76NcfbvfzMJUfwNqUcZMEAxvmbMiF5WBARGE0YdxjsC1Y1HjCviilGNCMDYRHy6KHUwxLnWjX/O9/tg1GHIuYeJuKXGn9+P80gXhinp4Zw3v7kn9ARACHgeuIDwNOPNP/30/hEiD+nOmZKKDAxEjFvSRpq4Z+ySGo+nRiXLYLEmOWOPyXvyyY1uRBNUjd7YCwBIC/lKfFNDn3zw62kwQKQgpkmPN24wo/ORR3bajjv2hDKqBbNIs0ReCvfxdAFhu+cccU6+YJiTTu7H+YsL13p+OaTL08D8BMxQfs01UUW4sOCb+k1DD+c45IcLizTPXEi4kAFvAKgF4gIRTj7QQPPud3eHsd+k3+P3+tfHtaYRfV4uKV7/qOcuglIIx9PjZPOCYzS6ULbEfa+9ukOXXn6n+U44WXHjz6/XccqN8BGUvs/hWXPRS7jUL+7N+YRNvfXws/nm4QJ57vfl2xuZUs854fu9eB7TZ8rzzFljjfi8kH/xOajGnfwgb71xh/rq8WCf57nHj3tRV3772wb7yleaQ50ivsD7y98NaeMDZeTlQ7y5d+o5r+Uh5j3gZcO3p4d8pE4Rnj/zxIs0pA0pnAccI43UNcLhk/aC8feLvyP4sH3ffYWwvj6rBvi9yQ+Ogdc5Gjs8LJ5tPhyjBwXpBq7neUrrlt+Xc3mvENbEibE7vsPfkLQcgftzLefH3/3r8EB/z7xMhRBCCDEwlT/zw8ekSZPKhscWdsEFF9ivf/1ru+qqq2zPPfcs/yGv/CUXCzCQpwHjffPNe/q8HRhJGMO+TBTgBUSwpMYj56QGVSrmUy8YYNRimPKNoUl4FBVGHR/3VgFGX/Sc54KRznm11rdGAHAfN+4xkt34JQwMV4+HCy/H04ohR7iEQTw4B8ObxgXShpByCD/1cLlB6pCu9763oiJqgHGKcUvauJa4YWB6utzIBoxv8ugTn+gMQpfzyW8aHBAP4IYy5eK9Cvim4YFlmL71raa+NFM2xJ80Ic6JK3nOcfKG/eS/G+4edha8gGk+OpzvnnPCIg8x8B97jNmrq2n3PB4MF08OgsuhTN34RoRwL8SAixUmwvJJw0iHNzLEfI91ev/9J4Q12CEtRxdyMS9inF2ggDcA1CL1nAPd+MkDGnHYz7XsI0zKIpsH3NOfJ8o3rQsO5eflMxhrrdXbN2yEORWYEIwyThvMCJ/3QRpWKs6JB3WEfCC+7Eshrh4e21xLWKkw8rCz+cazmZ7nQhyBT1whFbTc2+9PvnE/Jxsv6hpQDuQVYXpPD37H90z4GZ4rnhVgv5edb9M4R+Mg7xTqCN21PY8oW+oc+UT6vM6m7xmOEb/Uc37DDQtOXpg2IHANH6DuklaPN/CMsp2Wlceb8/hQT4gDH/La8XRzjpOWUbpeOWH6Ma+L/PZtvl2c01XfnyHiTpy5V5q3wLl+72zd8+c3hePcI42H5w34+yZLmmYhhBBC1CYxBxaf/fbbz3beeeewzTIphx12mO24447lP/5N9ulPf9q22mqrcEzUxj3jWb785Q77zGe6gjGewhq5eKHe+tZue9vbmEipvzGMEZYaS2mXzVSoAwaoe1hWXTV6czC6+I1hyL3dyMSwQ0gRPl4yzvM1mVPwnGN8e9dz7uFjOjHQCNsN8zSe4MtIuSDF2HVB7h5ltrMNDmn6s3DP7bcf+ATyjw/hY0AT39T7kwoWIDwEhOcTIpQ4eTkRFpBvvh3FeRSLnhcxHTEMIM8wmBGBpMcbMDz/wcPLCuWBIA/dCCdtxJvfCBuMdMIjfZRHVpim4B3LNiIhhHbcMSoyrnWPG/EmbdQTF4A+yz6Qb54OhI7XfwQXM6FzLR/PFxdW7PM8TYUMxwciFefcl/pFHjzwgHvOY2MLDSnkf608IA3cm3zjvCyEk41TFu69zjql4LUHvOhcwz3Tukt+8GynuECKz0wsN+oIacvGl3NIL/DcUBbEyxvYiIfHM5tvpC+t6z6PJ88g7wauTT3nxNufY+KRxsWfU8eFGfEgnNRTzW/qs5+Dl96fJfaRT5xDPWGba1m32+sH6fU8ovHDnx2Ou9hk2/OZeLI9c2a1wH7zmwY7/vjKg1IhFfR8814A4sA9Cdcb5Mg3tilPIO/9uSW/eTaoRzTiEZanFdLzgHB9m3dLmlfc26GucB7n+37y1/OL+HtdgFhPq3NQeFlzvl9Pt3a/90AQdhp/zk/LeqC/Z0N9ZwkhhBD1zEL+DA+NN73pTbbppptWfmEgTbU99tjD3ve+99nrX//6svGRqAuxAAN5GuiKjZBIDTJg4i0M2M99rtO23TYKajc8ITXIIBWyqccZMDjdA8WkaRhefPjNB4PTjTiMKxfIbqTX8pwzMzZxcMMdo9QbCAiPe6bGXIp7zjH+MGgxugmL8zG0MWzZTg1WwkvTnwVDH+HxvveVE1QDDFZEF4KccDCI3bsE2epLvAiTdLsYIl4uKBzKjbGp4CIjSyrOgfsSD8JDOEIqmDwujL8fChjOfl/KgW72blhHsRk/HBssD4mTCxGHsH/5y/bQRZv4km/goo9yYj9kxbkLAO7tDSHEga75lG0ML+5nOTN6G9CIFPOx2rUXXDTVqlOxW3u8BhDijP9lffZHHonLpPEskUce1xSOI7iYxI38ypYh96SciE/2OcjCBIM8z8B1sX73f14JP/s+8EYafw5iWUTPb7bMYjnGiHCMZ594pXWIbtDg+ebwDHgDC9AAx/1I/6qrxv00LHl8EZp+f85L8y8br1TEklepB57flKuLtzhUJm7H90/c5vmiHKkfTz9drQDeCAFcS3ppuCAvyEt+U0bE1+PJczt9eixT793COPYUwvR0cI2/cwiPuk4+cj3E+MdruAfXeZ0jfXyoz4TDJxWqXjac49++zTU0chImUD+8/LwuEh9vNCKsWI6xfP2Z5HrCivUr7OqLA/v8fj5MajC4H9fyDZyflr0/z+RNGpa/d4QQQggxMAv5MyyWBm7MZMErDW6EORhaGD0YPxhIHMcYdAMOw9O3wT3YkJ2VGKMVIxbjitXvCMuNTz7cw41jDD88j4gvumBzHsacG2kO3qsU7sF9iRPhuQFbC7oYA/ciXPcsEj8MbTdu00aGKOD7R2LllateSgx80vXDH7aHyb+yuEBNyyEVSJ5+h7xHRBM/0kF6iFNWvBKmG8cYzNlyBOJO/jvkDx/S7IKDcBzfTlYvHBTi6PfFOKe8qsInHiN9CC4XdbWgXNw76XAt+UR4xNe79PLt5ct+wmaMMMY58SH/PE4x3+PJ5CninPWYud7zjnxASFOPOJ9rU6Pf8y+mIW47iDTSnQogelEQxt/+VgjxwVuY5nHquUbQUddi3a2O7QX2uVBFiBHWQHCM/N5iix573et67A1viHEgbWmcCd8n5WKbeFe9seEr1FM+PIPZ9FJGpBc4xrWE5ekHfvMhP1PIGx/2QB54t2/CoFGBckLwuagn/KpQr37+9KdimHDP6wCQdvDnOvXAc1/qhj/D1G1v6EJI+jXUD/KMBpennsoHb76XgdfN2Asihk/9cXHOJI70luB84kgaZsyIx30G8zS+QJicy/Uc8wZG0s31xNufJeJI/C65pNG+8IXmcI7XFa+vsYEg3j8tDxfWnMO9wL8py9gokLNddukOkyj6McJlmw/bQLi+n7rl5RPzKc4WnzaAAvv8es+vheFlAlxLmhx/d+60U7f97GetofEO0jQLIYQQojZlc0CMNm4YZXGRgNGWerQg7ovbCIMorKK1hEGWGpqpIM+Kcww4xDbXu2GGZwajENGDwelGJsYcyzDhwcSw5dxa3SDdO+hgyPp9CQOjN2sIu+Hm3doRCITrBiaeS+7FdcS1vzivCheHho1vf7s9xN8bORA0Lv5TyH/SmHbHTL3gnn6HeLnnnPiQPr5dgDhct+aaMU+9e20W8j4VScSBOCMKXQSlRq3XFc4ZCpSlX0O+sd2/0SL2jKC8UwM7C6KHtGy9dTWjPT2EybXuMad8vb6yVNn990cv7Hrr9fQZ9R4nvj2vd9qpx2bOzNk990QR5SIzheu5Js1L7ksdufDCxjB5Vkrs1l7tYgwsbcVvGgLIR8JLj+N9dahXeJ+9fD3ewDFvGGB/9jnIQiPIF7/YWY5nu22+eSlcQ5mkjTOE4eKGZ4D64I0e/lx7HWHt8GyZ8Syk4pzf5FVah7gH+7x+Oez/9Kc77aSTOkL8qmPO47NDgxd57UKY8P25I16kBSH5yU+22DnnFMK9HffS+nPdX5zHBp6XX477OMfzmbS6iCQO7KdMmW+UMfzg6QTemeQzAp58dS8xvS9++tPGvnpOAxD1grwm7hDTELeB/OE3ec0x95yTTo6Rh153ibM//1de2RCu8zSQPs4lPtybZ9vTBL7t9Ydz+QDXcF/u/6lPdYZy8eOEzzfXef3lm/3so6zSZ4h7s5/3KPh9eQd4WLXe51k4j2v5Bs5niT7qGPlJPnCMvN9pp1JfzwSvA0IIIYQYmIX8GRZLAzdysrgRBal4AAwiN6I4lhrpWS9yKshrdWt3oxHD1g1JjDo+GJ9uxGF8sSYtQmtGWZxDtls7M4tjlLk3CBCfGNSAgcY93SB2mPgOshPCIYwwdDnfGyv4nXbVJy7uIXLoLbDvvt127bWttsMO1YPZfAQMU/a7KIJ0OxU2QL67UU6+ubh2LxrQ7XzddUv2la90hEaCT36yM+RtFq5P8wLDlrBJo4ebeu49/giVocD5eLA23bSnb11lPI7gYpP04WXknlk8ziuuaHbFFa12/PFVRef1jzBIhwskvhEg8OtfN9iRR8ZZ6Jkt3euXX5tu77BDT5hM8KqriiG8VFg43gPBrwFv4DjttMYwFjmFeke60vpIuUydGlcUIB+Jg3dBhgXFeSyjrOc8llHcdnEzGJzD/ZjokXA8DS52gTAof74pH8Sp56uXD/sIp5bnHCHt+cYxvN7cJ61DHk+eQ+JBvIDztt66ZAcc0BXqv6eN+HHPlVeO16Tx8XcN5cWHvOL+DzxQPQ9cuPpznYpzT6uL8xTeJS4EvSGFZ9+94sCz7/ei9w9p8h4TnOPp9bwintyL39TJan5VG8SAbeox9YFr3HMe7xcbJ/2Z556eRkgbhMhXPlVxXvuZ9vpAuL5NOn1COM6jHnOcj5dbuk24nMc+4p99hjjm+ebvNfb5/dL8GgiO8zz7eVz7ve912gUXlOz9749zoHCcuHDMRbn/HRFCCCHEwFT+JItlETeioJZAdEGBMYShiYBw4y9lsAnh6B56/fWFYMhhCBMuRhfCBcMQg9ONR4ys9daL3ZsZ9855qTjfeedu+/3vW0MY7qGOYaUCJxq2qSCFPfaIAtqNXdJLOBjdGLqkyb1gGMdpOj74wQl2++0V67QCxj/xTpeOAk9LihuRqeBNt93wddz4JG3kuxv0Ltjh1lvn28knt4dxxkce2WXrrBPv4aRCnXA8v0g/eUS4LjjSOHuZI1Tonp1tHMlCPu6yS4/961+ttv768Vpf850wCBuDn/zNlgnhepomTy6FLs/uBQNPD9+psPGhCEDZ3357TINPHkja0zylu+573tNl++7bFe6BsCIu1L8spIdr0+u5B3XCG4BSEDYIlPR84utj9hGdxCnN43TIAOmgrnndTUV8LPt4T8IcrBw4lj7DnE+cCNc9446LGO5H3fVu7aSR89lH2b36aj7ku49BBs51QUZ+MEN+9t785sMzTt1P3yOeDs73/I+e8zjTPGH7fuqMlzPx4rfX2ew7iLQA4XKP/p7z+DyRLuKQ9rzhvi7ueCY5zruE+3qY5IE3cPA8cA8me6NsCJP0pNALx8U5yzMedVRceYH89bwGwuScqjiPx0grdYJ4exwoM393cZxnwesc5/Eh3wiHj18HXjZeDl4+QFizZ1POMTw+ftzDT7epx2xzP+KffYbY742cHl/2+b0XxXPucL+pU80OOYRhEXEff7tIF3XT05c2SAghhBCiNgv5MyyWBhhqzLyOIZqSir1UPAAGlBtRGEduJGP4+bbTv1t7ZaMCa6efeWZT8IZHz3k0vlzQIwLcqMLIwlBFoD32WLw5gsvjgSHsnm+6QMOUKaVg0LuYJq0uMlK22ipG2s/DICfcKM7j+d5YwW9flmsg3FjP4oaiG7jghnKa/+m2X+MQL4xT4kh+IwLco+tQduSHg/Hr+QSpcc61Lki4DqOZcKue8/AV8HqAUDn33Pbg5UzvmyX1GDs+uRdx4Nps+hzyx/PchxukafBtwvB8gNg7o5K5ZQiHc8lTz/c0zjQenH9+e8gvjhEWHkv33KYQV85JDX3OSycYS0EEUl+yzw+TwgH5mI1P6jknLoN5zqnbXJ8NvxZpPnONi85UELLfRRPf5JnXZRqpiAfPJPGmWztxIFwvC54XF+dPPpkPS9TF/Ir7gN98EJDUY087YXg4nE843I8wuZ/XS3+/8E3eAuWV1oEsnlaPa60J4b797Q77+tc7bP/9KwkoQ53gGPHl2SCuvM+4rz+jlL/nEY1c1I2f/7yhspZ/2N0P4uninGE6H/tYV5gLgN9pQwn5w7nLL08+9J81nfdoLKv4m/L3XgTkGe8xrxOer8STexBmWh5elwnPv9PGO97NXEfaCZPjfFIx7885x9nmeuLv5eNwTbZbO9d4HeBvgMdjIOL9qvH2OpNCA5c3pvh9/FsIIYQQA1Pjz6pY2mAQnXVWe9lALFttCamRlBVZbvABhhLeI0iNZ8fFOUZjKgSyEA+MKe7rhigGlRuSbHMcccdkUZyXGnNpnJixHfC0Y5RGwUYY/dPhkPbDD++0D384Gubck3CJL+mJoiTuQ3A8+GAhTORUy/iG//u/jFVawfMRw9Lj4o0gGJNOuk3+ppBG4hfzPRrxHsZAcK7nDXC9G9dsu0ca4UWaPFxIy97jwnkszcVYTzesa5GNO1TFeSzvWucAee354I0uqWjw9BAG8XWvaeppRtxzjHPYJkw+2Tizz7+pw1zvIjPFBYHXSSCfEDC1YGwx3kPS6PcAejSAxynNg9RzS9x5fjw9abw55uI8m54stc5xsZI+k5Q19+F8vsl/8vXxx3N2zTXFcE/2Uf7erT1NGw062Wfc66vj5RY959W0s59w+LCPtPHskn8IYeKTvl/49m3233133p54IqnkCVwLlB/hL+g5j939jzyys28sOXBf4kj+A3mIMOZ9588cghoRSt2kEYm405Pm2Wfz/fLGIa7UC+LuzwINMswA/7GPtYRZ2zmHhgbu657ztGcGjZeESzkA5eZ5wTW877y8SR8f8tLFcvoe9LLhfM9/LyPgGsLkfZGe4+Gz7WXo5cm+2FBT3kjgGm9w82eJfX4/GkN8u9b8HOD37/9O6H/uGWe02wc/2BXK3RubJM6FEEKIhZOYAGK0wNChy6gberVw48txgw8wrlLD0Lcd95ZjbGePpaRdpBHnbui58YgxhyG2yipxluRooMVv4Nvj5F2o8UxhIFY94uFrAVZbrddOOKHDdtwxRpDzCAuh4cZpFJO9duGFDcHAfMc7uvoZuZttFgX+XXfNC57YWng+RqMxbnuc+PYycK8cePod4kVeEJYb8W6ADkRqAAO/PVzCOfDArpB/7CcOMdyY7vT+HAcXJtm4ZfE0prBkHnCM8AYqE+Lj+eCT6qVp8G2+PR/APc2U/TbblA+U4T547Agz1pPa+cUxRMwvf1nsqzMpaV10EJk+s3gKdYW6xyRz2efHxbk3+Hi+sp2KEkRg2tiQhsMx0sw12cYzuPHG+XbQQV19eZjGGTwt3qgBxMPPo25TzxGfJ5zQZLfdFteAJzziTZp5NgiHODjZvIhdi6v35lw+1C/yyI9Rjl6m7CPvvAcNDQLUE/eQA+l3sTljRs6+851mO/TQpFUrwZ9Tf679mVljjVJYMtLj7+XgkN+cT7q5F/GlPNj2MHlHUGcQ5nx7PYT0/eAQ/5dfjkMCVl89Jobu2ITJxHEM9eE9Sf5QrjRAcv+01xENNsTLny+eD+aVoM4DcfQ64flKPfX3b/rc+jbngJdPFvImrafp+b6fcmObY5Qf+ZHCftID/tynop9jHi4TR/p2ig+jcA+8X5uy885xRQL2kz7C8TgKIYQQYmBq/OkVo4EboYBBk53xPDXmIDV2+MbgvO++vN18c/SupbjnHKMVI3Mg8Jq4oYWXCOOS+7iRSRw47t4miJ7z+Jtz3Uhj0i3gXIxeDFvuXUsIck1WPLlBh9Dz9GAIs++ll/JBnOA15rfz//5fdxD4eN6yy7k5fh/i4XFxQU48XLimnnOM1xSEJfHDECZuGMC1RHBKWr7Aby8/tg89tCvMxrzPPt0hbYggFxlp3nhcUsHneV6LtIu2Q+MKcB/K1ss3C+F6PrhgTdPgApt0kA8uMt3TTLgujjjHvdSE4WlP8WOU7w9/2BS2s2lLyw84h/yvJc69DjAEIs1DQBRCjFO1uzr1mXxxSFfarT2Nt5c9pPni0FjEMlL+7Gbj4HmTinPO8WeUOhU95zQwVG/gnnPEnjeipfmUHdLBMY8D8JsPcSfeXnepW16mxIPGvDlzoveZ60k/7xkX53yTB2nYA+H3iHGN90AQn3ZaR1jicGGQJ8SX/Kd+cV8vJxovEKLLLx+FPkNkPD+yeQPEm/rCt9eR9DkhTzlGuSC6uSe/U885XdgJlzKM31GQvulNPSGuxMnritdj4u9d39P3YNo4Apxbqz5RDjxTHE/rLL/9Xuxjm33EOe2mDxzLdmtnn9/Pn1GgN0/aSOn48arnPHwNCGVPvPw6IYQQQgzMQv6siqUFhgsfDJ0PfKDL/vznSj/wCm58OZznRhFGNQL4iCNa7Hvfa7RnnulfrN6lHOMQg20gUs8mE2lhUHEPN+IwRIkH3amB81Jvu8cf3OjFOMTgpxtrFDhhdz/SMBwXndFLFg8SD88HjmGcp9dlRXQtXEiQFvd2u3EM3vCQivOs+CCN7CN/ENEY8bXSlZIawMBvvy9hcT3jbd/5zu4QL8SHd2tP7+8GuQuTaPQOnO5sIw94Grm/p6UW5K0b57XFuX9H0eaikDKnrImbh805PqacT7Y+OxxzQcEkcXR1TvHwqAucSzly79mz4/4UX78asZVtgHBxTjmTDs9XBImLZiDsqjjvX8dcnA+WHqfWOZ4WRLbDOXgsOZ/yIZ3UL0STQzw8L199NaaN7YGIYVV+lPFyc6+/1132ezjcG3H+4ot0H4+9eogLaWbNesaMs82zOWlS/zKqRfVZq96feG+8calvforBIP8Z903+0NDH+45nwIUwcWVsOGEde2xHX16nz7aTlqk/58yN4ZC2W28t2N/+VgzvJsLiXJaQzELepflLPnFu9JzHfaSXTxTnbPdv5EnPA8LzckjhGj5+PD3fwyAenMMx3k30KkjfD9Rf6g74e93DhdhAG8+nznndSPG4uQeee9WKrxPjNHgdFUIIIUSk8uddLEtgnLMkWYobmW4QYXClXi4MZSY5Yhyqe8odHz+O2MNgGwjv0ogRhdFNuNzDDT8Xx3imOYc4pMKaa91gRADiwXrf+7rL51S99m6kp/j49BTuRVgY0Ri0GHcxPpUTyhBW+tvjORhpWlJR4lTFeTWe2XA5H4OT/VGgRQEzGMS/f1yrBroLR+JEuIgOBISL81RY+jUuzl0UUAZ+LKWW55xGmOOOaw8NAdyTTy0I08VLrW7tXu7cN41v1XNeDZtz3CvHJw3HicdiQxPn0zMiO+7VnwO+OZ/wKQM8vFlcnHtcUnxCOMqNcDyPozgPmwHC9m7tXuac78co+/T6LDFN1e2UWvlO+CwHdu+98+znP28r5wPd2qvLhgHx4LkjD3ne0zhlYWZ+eoOkz53HCbFIGF532ebDMe6B4H3mGSaKjKKNMJ5/PmdHH91cFsDNIf18fLLAwfC0erkBZTxQvGtBHpNWyoP7erzJH+JKXSc8hsh4uKTDe4o41FUakuL7KO5D2DvMX3DSSU02Y0bsoUOesO/GG4vldPT3WJMuvl3QEh7h0oDgzyPfvEepK9Rtv97xZ5hzqP/xE/elEA8v63jPuD+9P3kUz4uNBDRcpA2NHKPugDdCsY8PcK6Hy3baUJUl7dY+GITBObXSJIQQQoj+VP4ki2UFDCoMuCxu0LkBmhpUGD7ebdyPpbhYxzjknIFAnGPkuRHFPQnbjUf/Jg4uXjHg/H7RuIzb227bY7/5TVsYQ+6TnUEtQbLRRguKc+6FkcoEU88+yzrZCxqkGMJpWrNGby1cRBGexyUNw9cAd+8SZMP1NBJHF6W1PEz/v73zALelqs/+opqIFCEWEI2AdAsoiiCCKEpVCSBSRIqACIg0wU+FqMhFKZZrFERFwRqMBUWMgErsIsYSE42xBmOLYonce0+797u/Nec9+3/mzq7n3Htm9n5/z7OfPXv2zJo1q82/rTUR0ojXqSpXgUKA8qGw9vi/tlX+pEt+MCqcdNJ4rsNIlecceL3bPvusvMhKqkJXgXRVRlWec9UF+4r8Fr/llUQRkzLNsVLOOV7nluF/tf94LaG6UHtAYcTgFD3nGHt4zRzv7BblOtT0BfJNXpUf2mosb/5H+eMYrsVxXFf/9eo5r6JK8VE6vFKONki+aQdRwaINU5Yci+ec/NJXIuyj7731rUvTFVcsm1GkgPzyob4oY5UN27o39hEq/vOfr5OvRbuijZMXFFumCtD2qavYv9uh/kG+VK9co6qOy0gJ53jumfaFMi4DlZRztfXYnrneNdcsy+ORIM9qqzJaxH5ClI8U2N/+tvDW83YKplscdNBk2myzol1RVhqD1GaoJ9oKY63GGsbUmG/uQ+UM6iMqC/6rKhfdP//zYRvY5j9QPviWESKWB+fI0KO+TX75kA7HKl2OqxrXlDeVURz3q+A6vda1McYYM+r4cVlDOinnEiIRdCRE8Y3nEGEMRaV8vhYyQiDlmHbEsHZAaOQ6Eh4lzKGcS9jnfx0fhS+28VzyX/R+Kg2Q0F2lnKO4kAarsn/2s+tmIZq0okAqBU1IMO1ES4htKY4xjSrPuY4rQ1pSSrsp5+QbIVZwrvKib8G9RmU33pc8ZFLW+I/8ozCwqFxUwqCdch5pr5y3FNVOYe3cmxQBkKeZ+tH5HBvbl+qxDP9pPm+8llB6+uYalFWcc77ffpPp3e9eml9PKMplrPNZFAz0P6+AikozabMoGvfDORynfHEuyjmU0xe63ypiXxBS6IDrqGxjGuSDsqQ9oZiqn0YwMqGU7733VHr0o2f3r0KRL161pWsA20qHa6BIYhhDMS8858V/gEeWsmGsKUc3kEZVmwbuWdfgmLJRoYqzzx7PUTgsrsc9U+58lGYR1s6c8+J3NGRwHyjmu+22MrPT0L5k+JKCH99tj5dcxrknPWkq9znqH1DOdW/UCW2Fb+3TmMbxKlfKjfsmjxhKy2WjtqjjSU9lFOH/osyKj8YCjtW5Spvr0W4om2ho5Dj9VvsrnhvFNufHMaaqjdK/QGONrt0O6iUq/cYYY4xpT4UIYBYShDqE4jIS4CREIpBJgEPokXDFuVLqhDzn3ZRzhcoi+AGCGr91bX0TEswqx1rNV8crP2Wi8C6BGrS/neec9FAAUPqKa3O94hyEeu6F/0Uvwp/ugWN1vPIPUs6jIlIWpgVpkQcE/XhfVagsBddWumXlH4WhSLf4rTyDztH1Wt652XkWMVy3HVGZiRR5LNKvUs5jvWvuPShkGME+lrc853ykAETYT1oyLsV6EVKcSZv/ueeyco4ygGdcdQlcr5ze+eePpec8ZzynobbAfUaFBA8oaet+KH+lw3Wpe9qizi9TdQ+iyugT0ynKv9hGCReUKWVJWZEvfpevw3ms+xDrS7CP48k727EN6T/OZyxRWDsKejRakJ9CSV7Vc85x8s4KtU3uWXntVWHbffepdPvtS/KCa/F4tVvaG3mNhkt5dVV+0eghz3k0asT8opxzzK67TqVLLlk2cwxQDkoTuC/uR3UpZR90HHkmP9RVsUZAsV+oj6hc+NZ2hHTUjsmTyoL2pzRj/2AMoZ7KyrmUauWZ48ibULoYVx/84OUzZXnccePpq1+9d2WfKTqo9lflNbLfflN5isaWW668kDHGGGM6EsQOUxfkzYtI+EIAlXAmoXFVwXP2+VLOmXuOMB2FzQiCJv9J2OKa/Na1dR2U6Ve+ciy94x2F4NpNOGMOrZCQDtreZptVhTYpX0K/JTgC98JHRCW2HboH7knHx/LA4ACEoIpyusoDaRUK2uz7qoJz4nU4V8KxylegeBfpFgUQ61fXLnvOSRuvXbkuquacl+mknOveJYjH8tf9oDDISBEpyrh1HkqC8hrLIsL/qtPyvYDKSh5Lvrl2VM5l3NKccyiXMVxwwXg66KBiZW+VcTHnvHUe/QmFimuwPyr55HNuYe3TG4GYz5iv2B7ZF6/HOcqT4Hd5n9B/yrvqIp5DvRXK+dpZcaXuYhsvlPOifKLXGbgvrVEgdK+0J12vrOh2g7zF45Uf+h+faIiSwYD74LzYhzVGxnb/gAcsnzmHBeEoG8YCxq5Y1ijfSot0uS8MhsqXPOcQ86q0ea1fua3ouFgPVf2Dtse5/M9H6cRtpRUV7xgZw3Hqy6oTrkUaQmmgTF944Xg6//wiPIT75i0cOlZ1rDy1g+s95jHLZ9WBMcYYY6qpEAFMHZGwJe8QwpAEIglmUAie0z+mUVg7cykRqKPSEkFIi4IaQhppS1nRfo55ylOmcrgo+yRI6v8y0XMeFRKFBFflJwrxwHnlayF4SpGDqMS2Q4Kn7g3idfQ/HiOhfULnkUcppd085wjW8TqkoXTLQivlgcdWC/nF/3WOylFlTnpVBgK1l05EhSKC0qFry8Ay+x6K89hHPcRXggH1oXojfyhjbOt3Gf2HUqjtM84YTzvv3Kpk5eexj12etttuKj3iEYUhA2+nUHg987a1Kns3I4Xyw+JmugZKDf2ORdcIhWY/xykUm+sqr1X3A7qPKmJfEOV0VH6EJ4tWPlq/q67R7rraT/+j7srtG0iTV4fdcw/KeeFZjm2cui7631oziqegHVLXEXmUybf6KR7cqmt3QnUDarfUN32QV6kJjTkq43gdjZGx3W+11Yr0vvctzV56xklC0DmH8ol1QnrKf9E/Ziv/0XMez1MZFWsEtK4LGl9Vp8Vn9jFQlF2xzTFKP24rH7FtlZVzRQnoGBTuffedTOeeWzw4Ylq8Gm7PPVcW2Epi3wcp+eX9xhhjjBkcP1ZrBMoEwp28txEJTFIyUAykmEaBFaGyrJwjuCKQ8iogvnkXcDsQtBD2ACE0Cu9VQpiESW1XMVs5b20ffvhkOu64iawQleG4eD0pKSoH8oRyEMMxowDeDh1DOhKyY7732GMy3X77vWn//VsKoY4TyhdpoJwUgn6xrx1cN94Pv5WXcvqsho/gz2usuL94X61zim/KAMgLeSjXQS/KeRTeI+RX5as6jOlrm+NoixgUIuxHUeM47gdPJdvdwsD1RgHOefazJ9N117W0ft33058+mW67bUlWLKiD6DmXkYBjv/zle9Mtt9ybjj56cia/VShdlCgpLShv9EUUVJRw2iTHqR7jPctQUabTNWO/VXnEvgIcQxoxrJ088FHa2uaj+2A7treIjmVc4JiquiAdrR1AeDy/Y347zTnnuHJYe+z36isco/z2SlRsy57z6MHXNn2Le60aI2OfpRx4Lz2r22PoKQwXxbViOWKgUFq0E8qO/3Uf3TznKOfl8tZxuo7qpwzn8dH/SodtjSFKa7ZyPr2xEq6hsHadgwf80kvHZjzkSldpqZzL+Y7RNFX5NcYYY0z/BLHDLDQISK9+9bLsLSzTEggLYROBSMIS82slSBVeoVUlJYTpYi7lWl2Vc8E1+a1rl4Uz4P9ugllUvqPQuM8+k+mqq5bNCHkR7iemK+FeeSBPLHSFx4f576Ay6ITuBcFUx8frILCTbkxL54iYh8Jz3hJg28E58Tqkr2tUpc/roKT4RYVE15ZgLQMNaWtfZC5h7WutTFTp65iohKqtkKeqNsf/Us45JnrOYzsTcb+Og9l1Mft+UKCoA5RzypFjt9mmdQyKyG67Le9aDrpGVM75Zt46ihrX4DfHKV+Fcl78Vr2UifdRJiqsT3vaZDr++Im8qF9Ex8wOa59dfpQJv8lD9G5XlTEoT/Kcl/POfypntjfdtOhfsY0rrJ1P2XNOerHOIJ4rBbbwnM8+txvqK7oG+Wsp56209O511WXMT1Fvs1cxB44hb5pzrnKObZ77UFqUNe9VJ4Lo4Q8vrhcV/ngexgIMHZ3mnKu+uKequuM8PvxfHFOkz7bqUGnFcbbsOacfUmdxLnpEaelb9VXOk5T8qrwaY4wxZjD8WK0ReG1OPHEie9DLSFhG+Lr66qXpxS8enwkH5zy8W4ASIYUqQmiuwtrxzMI554ynM8+cbQhA0ELYg0I4bSmxZSG8V8ifiEJ6FCDLxHwAxxYCafGbcmDu++WXj+UVlaEXQV/3IkEXut2XjhMSurmeBP1uYe2kIWEXSEP5lUAd0Xu4IUZSKA3lievLu10uM2ineEeiQhHhWmpLKnd9Q9yHclSG8ykXKQ+acx7rsUzMv7bjvnJZkU4RFbLWynaAl31pOvbY2QpuL6hOUfB0Db7jO7L5zX0oP3jspZyX24ggrJ6+WWUQi+2fNnzppctm1Tuo3ePFjpBf5YN8sc0+pclv/V9GZY9BpTiv+B2J5SwlLrZxQsnf9Kb1c77KkS+kX04z3qvaW79zzkHpcA0+jIt4wjE6xigRtXvdR7yOxsg4FgHlhyKqsHbVdbwXykBpkpfHPGYqLV68bGZRy9nK+fTGSjTG9LognOooonLl/5gvtpWmvqMRKyrhpEF7vPHGJenJT57u3CWUrsYnlRNpK4+gqQukGfcbY4wxZnAqRABTR6LwRajv/vtPzghRCKVRAY4gpCE4/exna2cFHaFUigIh3GVPHcq45jtyLtfAWHDrrffmVXc70U5Ae9jDWopJFNK7KbQoSnF+JOnrnnVfKK4yTKiMOqHz+T733PGVitx4fkVTJ6KgCxKcJVSjHMdw1io4h/tVHvldpTgIRQPssMNU9roJroNRRmWKEkLZ4B1TviK9CM3twtoLZWX2//Ea2kaIRzmXkUAU99yqN+pS+SkfK2J+W9uxTeavjNJlTQUULvrAM54xWRmJ0Q3VAUqUvNXUl96HDuznXpUvGWaUjyp22ml5uuGGJemTnwyu72nivVDW8bfQvlWV8+mNlZB38lCUdyu/rfKbDfv5KHSba5eJbVJtO/ZdyvsLX1g31+PGG7f6N5AmbRbPqvIZ240MPiiNVW2/E+qLXIMP5UMe+ETlXHnlf+613IehHHpPXmjvTP+hPZN3zo1lHT3nHMt1ttii1ffiOBDPk3JevEpt9nWr8qa6i/+RXtH+ijao9OO22kusq2igo67JP2s2tIsmUVq6TynnypOQ57yq/RhjjDFmMILIZOqMBKUqAR6hlPcaV4HgyDnvfvf66YtfXDcLpFJmJcAh5AqEzJZgWAhqXHuXXVqrGfcLc1JbAn4rjbLnqgzvqr7wwsIlq/MkOEbhU0K2yqgTujeOxev1xjeOzQiZ7Sinq99xf7d7gdNOG0+nn17cD8pNWQiOUG+wzz6zDSJPfOLUSqXo3hxOC7y/mTJ62cvGc3plAboXuH5ZYQAUvRNOGF9ZRq0531HJ0jbfeBohKhPsJw0pD/Iqokhx/2U4Tvnnu921IvxW+D/b5f97RXURF4Tje7ZyXhynPBbKebGt86tg0bry6uUQ+0K7uuMY9scF4SAeT5mzzb7YL6oWFQOO5YMCSnmV2x//xXFG9VZu41yPaSVxGgGQ5ktfmtI73zmWttpq1YqWoYHr6h56RflSXcf7jcq5jBSql6o+VnU/3CtrHjBNQmUc2xTnqK9svfWq96aygnjNqAiX86LfMljFa0avN9dVnvjo3jhWaUhRjm2rHNbeDaWhYzV2l/vshhsWO2L5GGOMMWZu+LHaECR8lQU7QPCrWkQOCKtFeP/Up9ZN3//+2nkOrQRXvglNfPjDW2G3CFoSmKWc94rOK8NK33rNUUyvm0JLXh/3uEI5lUAqQ0JUHuQZqlIwyxACDZRjVVlWEa8FuoeoiPainD/taVPp1FMLLz2KndKN6QD3Kc/53ntPZ3gazsFDLIGYezjppIk871X7+MZ7fPjhvYV3c72o5AjS4RVIhx3WyoOuAdqOdRqVE4R8yoX0aWscx7Y8nVXwv9A237pW/B/Yr7T6aavtwAtMGXMdyiS+K72dcs7vQa4dy7xdW1Re4oJwEOuBczmGfUpTv6vQfi0IV3Wc8kM66l8aNwS/iTopv22B9DbfPKUDDyze5lCmbGjoB90f1yBt9R3aWjSylftsVflGLzcU91r0rZZy3lq8kG3SVdqsZF4mKsJxPIqh/+W8KD21Y90blBXrWNetfBX3r21QmvyOEQKc1w3lT9/q0yjnsd/2+io1Y4wxxvROD49qUwckbFUpoAhRixaN5cXVyuCBjUoAgpaELdJkjus11yxNH/lIITFHwZDzehHmRDsBDUVRXi0JlFAW9quQAMgcV9LX+VUe+LLQW4W8P6TVq0Cpa6osJDDH6/WinIPSwjsngboq3xhMUHrwlPdKcU9FlALt4eqrV20PVXCe2lekqu7jPm3HfdSpfnOvUs5jaO2KFcV7w8twXFX60K6uZh/fvT21Q3PmMSSRJnmnjcW54vQH6krXRDnXvO1eDENlYr9UuyhTVtzU9jheZcIxKrtYj+3KjP18tCBcVfvjfnS+lNhyG+c8xpLy+So/kDEsoiiLQdD9cQ0+KkPywW8RyxbKBjCIbVKwj3Ron/RPykD9VOOh7q1KOY8Kf6yLsuc81o3KLyq++j/mkeuq3ot8Ffvjtt50oPunzsppdEPX0H230i6+heacx3wbY4wxZm4EccbUGQn/EsTLEHKuRYlAAp/C2gXK2/3vn9K22y7Pii/CJiHrWm2Y30qfa/YizHWDOessrIXgGtPrRaGVwI23jXzpd1QIpKiXlYQqolLfKxLs8eLjKXz5ywtNLl6v7IXrxmzPefEdYfXur3/93qws9grlQ54KwXp6Zw9QplV5UFlH4j5tx2tJgQG+pZyXy6dKOQe1Pb61DXFbsE/XYnsubVXvRic9PigmlAmr5msOO+1A5Qtz95wr3dac5DIxXV4bd/31hRGN/coHeeK9/ITgS3nnP/1fRv9JOa/Ke9wvY15Z4eW6lEm5T3Gu+ka7eh4U9UXVk65THkvKedJxEd1XhPRJF1TG+k09FYsPFr+32WbVm1M+aO8xpD/WbzkvqicpufGa0etNfjhX9af6YVtpKg3VFfmIZVNVDmWUbvlY2pbyCgq5x9hiBd0YY4yZH6ZFAFN3ooDYjhgCudFGhWBIuDtCFvO+mT/85jcvy4uMsar1lluuKlxyHQlgCHjynvRCFNwieIB5h+611y6dEfygLOx3QmG9Oj+Wg9LpRfDcYYfl6eyzx9Lznjc9WbgHlC7ltmjRsuzVhpiHXgwNEZQWpVuV704KWydIi3rox4vM8VVGC7W5CMdqLrP+j8dJGQfqCk86v2d7ztt723TuyiNmtvmuygvE9tTumF6Ink3uj3KkXREqjYIORX9o5ZEFFn/wg7Xz75iPXlH7Iaqk3bQU1SfssstU2n33wlsb+yX5uvLKsXTZZctmzVFuVx6kx4cIBr6r6p77URuSYaVK4eUeYj8Arqv8YcCYT9TXuQYf5als/NG6GqKcRyifA7G8VdeqWxR3xljWeXjucyfysWXUzjGKxpX36RetqIdVrwtROVcepJzTJmO58jumo+MVjaRy4prxPnsZFzD0kH5cb+Etb1mWDj20tQgp6P4nJtr3Z2OMMcb0RxvxzdQNeaDkOaoiKkASThGmtthiKofn8vo15hDjMdp+++UzAlwEAVCCHgJtFMa6ofPKkCbh2Qcc0JoXDVXCcTt4zzPp6/yoKOg+eskrysvLXz6envrU3rWGKNjPFk5beZiLct6pTvtF9RfLuRscX9UW2pWn9usa8bgirL24H/4vlHWUmrwr1xv1XrUIH8fxKbZn30O7+4n7e6n/djzveRPpQx9akvsNaZIWeUc50rxzyiiGe//iF2unr32tqMRBrq0y55plZVJEBSxeg23lg/zuuOPUys/yldut4/V/mXgM6fD6xp13nkqHHdZao4D9Klu17XIb76Scq21XKecYEYhCOfLI3g1kQtfiGtyfrlPO2wteMJFOOWV8xpih4yLVnvOiHYLKWOVOfXHOxRePZ2W1Co1pD3nI8llv0CAdvSKzKi8QlXPVkfqNzuGb/4tjin1ApM3554/lNgAaHzk/Th/SvXTiyCMn049+9Jf06Ee3jLcYI5R2hHInvD3mxRhjjDGD40dqQ5Dg1km4iiGQhK6L979/WfaUP/Shrf/bIaEXEFT7E7q6px+FyiqFsB3Kl+4/KgSDriLfKxKMVS4iCtn9GBqgUM6Lc9oJ64MQw357hfuqykP5foWOjUq4QFjXb74R3ElHdcQK/BdfPJZXyq8iXrPdtmBfvHY/91wG7zgGG7V52hnbGHP0JgR+s7+cF34PUoeqKxTz8qJqIvZ38qVrz95flHEsj7hdRsdqm3v//Odnv/eac3U9eXzL/RXDgcokKvycp/xVhbXvvfdUuuWWJTMRKP2gMuPaXEd5igoo0A4vvbS1WnysH82VjpFGguNUNtrWvcQxpx0ow6xgz1sWygYX/W7XVmYr58W2xnSdQ174P+YLMLpecMH4TN6VV8alaISI53Si6u0CVXzwg0vSySdP9DWWG2OMMaY90yKAqTtTU4XU1U6wgyrPOeCx2Xrr2YJiOyQUAoJwr8IcSDDsREuwnD0Xvh14n446ajydeWbhZVP+4rmsVH7mmWM9GR8GQdcs31/MQ1k56Ab1qbrspRx6RcJ7rMdeqKrndmmUyyOeG5Vz9u+ww4r0qleldPjhxcpgj3zk8vSsZ80OjxVqG0Lbne6n7AWeD7gedYP3EQWOV2bx1gMUJa5RzgvHD3Jt3R9h7fE1YBHS1XHxuuX9VcdoXxn2t45vRQJE4n1qXCm3ccpIynIclzhPv6sWhIN2eeuGlECuwUfXL3vOy8T8McUH2s05V95UxiqHXvopx7IQI577eE2QAaa8X6Cc8+GayoPKXu1L9cL/2ldFK9x/dtnoXuaLvfaaymudKL/GGGOMmRvz/Kg2q4te5m5Gz3k7Yb8fEEY7CYBlehHQOAYBsZswLRBoFy8eSyecMDEtkBb3JaEc8PwRavqwh1W46eYRrh/vMQrZvd6PoD51fjthfRBIS2XcK8Xxq7aXGFIdiYoCxGuhFKiM+B9F6NxzCbvurT0qrXJZt7sf5YFj+2mrneBapIUiyDfrJdx55725P9DGHvrQqfT4x7c6ZHHt3u4vstVWGJ4m0rHHjrdV/OI9sR3LVtuxzLRdVZ8iliXnKJ0I6evaUsrLbZy2VtWGVX4w33POVU5cg3xLWe/muY33rNeaVSnn3EcsQ66he+nVO4xhVN75SEs5r66bKs+5lPN4jvqY8lWF8opxqd+wdmOMMcYsHEFkMXWmKjy0TBQ2mR+IgFYlJC4kEjyrQkq7MYigPF8wJ5lQ1Xjd+Zpz3k5YHwTKJwr3vRKP5x6ZM/vsZ1e7PVUHOicqppSD9vebByDvIp4f90faHT8XSKeI7Cjui9+qdxb5uuWWpSvLZvY75AdResj74sXL0jOe0V6DpY3oHuP9lbc5ho/2x//L6FhQeynD+UpD40rMC/Bb5RKvh1Krtq1Xe80XsU7idfqZViLPedUYhPKve9T9qm6jQXAQus05F8XaC8W2DK6xfZFH7r9Tm5MRA+U+PhcGMSIZY4wxZs0RRCpTZ3rxQEUB+ZBDJvL7y/fbr01c6WqgSsgvUwjV1V6rXtA9tvM0ri6uvHJZOvDAyVn3GPPQb1g7KyLr/Pm8FykUsS10IyogQAj3JZeMpZNOmq2ACgn4uka8FuVQtb8XyEcs37g4XNwvyvmeL8VD6bYzuPB/rLNyPuaT2fc3vbEStlUmKueYj0750XnAdvwtUHyVrvoqx0UFFaNSVdst8lEcd8QRE2mPPSZnXkc3V3Q98sZH4dv9GMe0/kGVQq/+AypjlcNc++kgc85lQIj1iUEklnEVMaw93qfSNcYYY0w98aO6IfQTHopgxkJWhxwyObPS9JpAQm0nOIbPoJ7zlqC85u4LuG5ZsI3Ceq/KAdMN3ve+pemyy8aycgNzFfojCOyxnHolHo9Azyvn2t2TFAXVd/lc/e6kILZDafKtbWgXph2vPcj1qiBN0opREmVinZHPbt7QQYn3pDBrmL2/+OY/bcdyKRPLluM6HQtRuYv3SR7UD2NkD/t1HO38Yx9busriaIMSlXPuQb/7MY51C2tX+aiM9d2pPfRCN+VcZRjrR6/Gi+2NMo/5q0J5LcLai23odI4xxhhjFp4uYpmpC72EtQuEMQl3c6Gb0D4I5It0qwTjbkSBdK6C8nwg5ZrvXoVejnvGMybztAMJ6e2E9UGQctFP3ZUFfSk+7dCxukY8Nyrn7RTqdpTzHfPQLj8xr/HcuUAZopAq/LmK2P7weM733GpRGFuKfMRylhEGVAZ8WmVffFehYyGWX4R7Yszhv6jcRSWRclLbldcXyKfS5Hu+6gWUF65BuspPP+OBPOdxAU2B4qsyUXnre64GQSnnsXzEhRcWkSr0n1hmCmuPZciiiqxC32lFdR3PPVo5N8YYY5pDeOSbOtOf53xV4a9fOL9fpbGXa3IMn7kq51FJWChUPnxH4blXdP58RgGQJuXUr2Jczn+nulQd6BpR4MeDqXMHUQTidZWn4n6K7TL8N5frVfHABy5P55033nbOPcQ6QzEd7/+V3T0R7ymWQdw/u8yKfHVqj/E/tuP5grniMcxaxDGBbfXDqJzPx/jTDpU7+eaj6/cznsjoUuVtb/WfVhmrTOdqEOy0INy5546ngw8ups3oA60F4Ypv4NjXvnZsZg57FWNjxTf3GJXzWPfGGGOMqR9+VDeEfhZWigrSoHB+lRDZiV6uyTEIiP0s4BSRcKk5lQuJFAO+Bynvluc9f80LUbnolfLx3c7V/1JeOF/3X3jOi/vqJw9C6cQ0Ce3dZZflaZttVg0f4Ro6dr6Uc673zGdOpm23bR+uorp/7nMn8uJwO+/cR2hLH8S2wf2pTOJ2LAOVeSfjjI4Fjq+qJ7zmVdE6um/Aey9lOSrn/YSY94uur3zPZc55pwXh+GhOt9pVvPdBkOe8Kp1YJ3yrTqScx/rk9ZK8vqwTS5YUiZGWxpl2dW2MMcaY+uBHdUPoNawdYWzjjecuhBVC3fSPeUSC5yDKOefOl6A8H6h8+B6kvOP584WUtn7zo3KFuFp0FTpWx8TrUa/a7jcPpBOvq/PxdL7hDcvSpz51b7EjEM/p93qdiPmoQu/vZhX/171ubLW1xxi+HvOkegYpbvxWGcT6LMNxrXNnpyvaKefRYEe7Ld836XWaDjBXdD3umXzrdz8GgdaCcPlrFtyfykdlqO/5CmvvpZ3K2DGooWPPPafSU54ymXbZZWom/7ovY4wxxtSXeRRnzerkCU+YyvMPN9hgekcbzjlnLJ1yyvicX6GGENev0tiL4CcBsWq+Zzc4T96sOinnCO293HuZ1vnF93wQvWS9Qt6j4qE6ake8BsdFBQ8Ppq7dSUFsR7xu3MZbuOmm0z8CHKPjBrneoPBufTz587XQWTviPbGte431q/Lno+Pj/2WUBkjJLYNiHr3hIrbVqJxLkX/5y8fSiSdWr/I/H8hTzv3xGUQ519hYpZyTXrks9T3XsHa1lYkuxcN9aWzQKve9GmcF17r++qXpsMMmZ7WJqro2xhhjTH3oIMKZOnH66ePp059ekvbeu/Or0V760vF09NETM8LdXOg3jV4EP45BSJz7nPPehfHVhRQDymkQoVfn63s+kADOd6+grBx00GR+hRpwfqf7KSuA8Xg859qOobi9wHlVaXaiUC6L6yhfawKMZbffvqQy1H4+ifdU3m6Vc/Edy6xT/fOfyqzYzpuzQDGvUs6j55xzdR0de8wxE2m33VbT6ngrUV/RtTUO9BPWvuGGxXdV9A59uSiT1iKP+p7rmCPlftmy1nz+KrgeC8R95Sv3zhhjB3lfPAZQ7kX5j+3DGGOMMfVkWrQydQfBjhW+uwmhCGISxuYCQlyvSiMKypZbLk+Pf3x3oVwC4iCvUgMpA3P1Ys0HMl5IoO8XCcpR4Zkr1Bnp9pMf2gvezkWLilWkCuUkb1aitPWNIiNFfD49573cw+zj568cu0HeMGr0kse5QBnqHuO1FEEC7OeYqFB2yldxbLHNcVXl1k45bzcm6NhYH6uDVZXz4nc/yvkee0xlrzLRD2XUf/ioLFXW8zHmFK826x5pwyswmVeueuykzHej1SYGi/AxxhhjzJqjgwhnRhmEuF6VRla2vvrqZXkRrW6QLgLnYJ7zlvLRTklYk6h8yMsgiqFCVefzXsiTyrhfVLbdBPiyAsjxOme+5pzH7U7oOD7K1zARo1eicsW9ajuWcy9lr/KCmE5k662Xp+22W54XvIvE/ETmojz2g7zX3B/jgRTmfpRzVk0/8MDJynO4P5VPuZ3PtZ+S5uWXj6XjjpuoLPNO9BvWHpFxod9rGmOMMWbN00GEM6NMFE67wbzI3Xef6kl4JV2E3UHD2udLUJ4PlAcpxP0igbudwjMIUrY6KWftiEJ8p/spKy3xeOpV+3ttPxEULtEpD4Jr6bhB7rnuxHuK27FsVQZ8dEynso/lqnPLbL/98vSRjyxNr3vdsuk9BbTVnXaaSkccMZHXtljTqM9xf+RdvwddOK0Myj9tsCjLIk2V5VzHHNI88siJ/J7yfpkfz3l1XRtjjDGmPkyLcsa02GKLFXnFZb7nGwREPoOs1g4SNIchrF0CdydFql9QIFAuBvHkKx8I8J2E+CjsQ6HIFNuz55wX3/0Qz+nl/JjX+SzHuiBPLsT7Y1v7Bb9bddO+/ilXnct2VTmzj1XNy95l2tf97pfSm9+8LD3lKa1pLGvOc158K98yKPXjOe+E+jLlo/6tMp2PMYd0y/XWC3MpX9XvoNc2xhhjzJpj+rFtTIuLLx7LHrN99+0ept4vEhAHXa1dSkc9FoRTXgYTeleHQsN8WhYrY85qv8wW4tufL4WoSuhHSdL+fpXlmE7c7oQUKVC+hol4T/FeVcaRosxm100VsWxjmr1Amy+8y9M7plmxoo9E5oAUZOV7crK47vx5zlvlo/bbUs4Xrn3NJaxdRoZ+69oYY4wxa54OIpwZVbbaanl61rOq52TOFZTyjTZK6eEP71/ajAKzPGgLiYReedv6ZWo1LGp98MGT6corx9Lmm/evSKhsu91L+bgo9Mew9kG891F56EWR4Bgdp3wNE2pjUL6/cvnwO9ZJO+J5se56gfwsZN+Tgkye+eh98/OVJ+5PaZfb+ULe93x4zvnu1C6MMcYYs/D4UW3WKDvskNJtt43nBZkGoQ6CslAeqjyJvTAXb1g7yBNTEgbJj8pWykk7qpR4HT9fnnPolAfBtXRezM+woPsrtjtraBxXVTdlNKcaOK6fcmOFer3eayFQn5OyOj497V33M1fUl/UBlWm/7Xk+mctYwX3QduI9GWOMMaaeDKE4a+oMwuEmmwz2CirOlYBcB+V8rp7z1aGczwWVbTchvqUAFhoSipKUpWK19uLHoHWs71487zGvC6k8rS6i55zy7FQvoDLvdFxMp5c0IyecMJGOP358wco69nva3MREH5nvgdiX1aY1tWAh29dcxwpFBBhjjDGm3kyLIcbUH4RLCcia772QKA8oDIMIvjvttPD3EJESwr10uh/VgY5BiZHyQFi79verzHCeFCPolAfBMYNerwnEe+p2f7H8pFhWEctVHtVe2XvvqbTPPlOrnPOQhyxP973vYBEb/VC+P4W1d4M56eSvG1JiSV/X0DVj21zTdKrPXqDtkP/VXT/GGGOMmRsLKG4Y0z8SkIdhtfanP30y3XHHvSsVnvlfeG8QWkpIZyVLx0lZRDGXch7LYpAy0XX57uV8jtE5g1yv7lDG8f461Usss06eVo7Tp5vCX0bnlXn3u5em97xnaY6KWVOgsGohuKo8RXbddSpdcslYuu22e6f3VBPTkUKsMuKViQvFXJVzGR26lZMxxhhjFpYhFGfNsIJgKUG5Dp5zKeeDzjnnXnbaaflqWXhvEFS23e4letghKufsk4I4iLIcr91Lmcbr9atoNoF4T93uL5ZFJ2WO41S2asNzZZddludXqw1S54Og+zvqqMl0wgnjaZttOlgjVsJClMcdN5Ee85jOxwnSLyvna+reqpjraviF0YxxqkPDMMYYY8yCs4DihjH9EZWPOsw5Vx6it7jJROVcylsVOk7fKA5SHop3rOfNrspkFfHanfIgdC2OHeR6daef18PFMuiknMe22sR2u9dek/ltD5tttiJtt93y9JrXjKXtt+9N6e6HsnK+kO2rUyREL9COqOte+pQxxhhjFo4GimZmVCmUj0JiroMipvwoZLTp6B747nQ/Knsdg+Kg18JFBWAQxU/nkEYv58e8DnK9ukNZ6/76ofew9uZ5Uj/ykaXpzW9eltc3gLjOwXwSo0Gg2cp5q86NMcYYU1+GUJw1w0xU3uoAijke9GFQDBXizL10Kl8pKbrnGALMedo/SJlEBaKXOiZUV9dpoqLZDdVJv3QKg45lvJAK56CQ99Wd79imxUJOP5kP5bxbvzbGGGPMwjOA+GzMwhCFct7lXQdQzAvPefMVQ5VtNwFex+lVZygO0cvYUpaL736I1+5FkYjHDHK9ujOIgQMUyVCF0qTshrHM5gsp55tuuiKdfPJ42m23DoW6mikbCvpF0T299CljjDHGLBxWzk1jQLB84QvH07e//Zd0v/tN71xgNt64eEXToEpUnYhKWychvqWcF98R9uncQTzZuna3PIh4vWGogzK9lkOZTspcTNPKeXeY275o0VjXRefqDCvNx75ijDHGmHoyhOKsGWY22CClLbaYoxtpHrnssrF0xBETtVlxfS5Iue2mEErprlKGOa+T8t6NeN1ezlde43VNb8q5y6yaJz95Kivi22678Mr4/e+/Ij3iEcvzaxfnAvWsOjfGGGNMfbFybswcOOCAyfwaqWFAilo3IV5Kc5XyzD6dO4jiF9+x3osiEfOqMHvTXTkXVs5X5aKLxtK11y5Lj3zkwvfrrbdent773qXpiivGpvcMBvUc+6Yxxhhj6omVc2NMRh7xbgJ8XDiuDOd2Ut57hXR6USTmagwYVjotICYDCB+X2apstNGKtNVWy2tRNvQ1vPh40OeC55wbY4wxzcDKuTEmE5XqTkK8lJYq5Zvz5MEeRDmP5/SiSBQKR3E9K5otOinnRZkV28O4wr1ZFfpGt35tjDHGmIVnAPHZGDOMSLmNylsVHNfumKgAzGVBOOhFue/3+FGhl7B2vm3QGA069VljjDHG1AeLs8aYTFTOO1EW9AmZ5ZVyvN6OfVKSB1H8lGZMvxMyBvAZPUWzvQbeOay9VbajV2ajyXrrebV2Y4wxpglYOTfGZKRUEybeSYgvK+e77z6VXv3qZenmm5fkfUpH3/0Q0+1lgbd4/Kgpmp3K169SM5FynzXGGGNMPbFybozJxAXhOgnxHBeP4V3vJ588kXbccXlWGOeinMdzelEkOF7HDXK9JtOpfFasaP+n6o6PlfPRgHqOfcUYY4wx9WTExFljTDuk3HYT4vV/1TFx/yCKX3HubOW/E9HLP2qKZqfy6bYgnLByPhoUq7V3jogxxhhjzMJj5dwYk5GihgDfSYjnuHbHsE9K/qDKudJVOp2IhoRejh8mqspfdAprL8qsUNSsnI8GTBGJfcUYY4wx9WTExFljTDuict6JQjmv9sJJCdB2vyhNvntRJHQc+Rm114J1Mkb05jkfvTIbVViw0cq5McYYU3+snBtjMlLOuwnxhXJefQz75vKe85huVfplYl5HzQvc6X57WRCOzyB1ZJpHpz5rjDHGmPpg0cwYk5GiVgjx7bW7ToI+aSidQZTlmGYvikTMx6gpmscfP5523XUqbb/91PSeFt085yoz5iKb4ec+9yn64yDRLMYYY4xZc1g5N8bMUF6JvYpOx7BPSvIgyrLSjel0QsfCIMaAJnPCCRPpmmuWpX33XVU57z7nvPcyNs3n0EMn0sEHT6T739/KuTHGGFNnLJoZY2bYcMNifmonRbeT57zd/l6JymIv6UjR1PYosf76KW211fJcX2W6hbULe85HgwMOmEpnnDGRNthgeocxxhhjaomVc2PMDDfeuCSdddZ4pcInOinuKH5SkjspiO2IimMvyjnH6DNqnvNOTK3qTJ8hLuZnz7kxxhhjTH2waGaMmWGXXZanbbbpMGF5JSh0xWdV7Vv/waDKefx0g2vpOCvnLVasaF94Ki++7Tk3xhhjjKkP02K0Mcb0BgpdO+WZfXNTzlsnKZ1OxHz0cvyo0Muc82J7gEoyxhhjjDGrBYuzxpi+6BbWLsWPFaL7Refz6UXZjormuuta0Tz22PF03HHj6V3vWjq9Z1ViGTvawBhjjDGmPlg5N8b0Bd5WKXdVHHHERLr00mXpQQ/qX1mOabZLPxLzMayec6YZYOi43/2md3TgoQ9dka68cixtv337qQmxzKycG2OMMcbUByvnxpi+QKFDEW6nDO+111Q6+eSJgeYzt9LEANBduZfnnM+wKpp4wRctWpYOOGByek9npHi3Q//zPawGDWOMMcaYJmLRzBjTFyjBvSqA/cJ58dONeNywKppbbLEiHXfcRNpww/kJ25dBo9j2VABjjDHGmLpg5dwY0xeEWKPgrQ5lOCrkvaQv5ZzPsCrn843KS9vGGGOMMaYeWJw1xvTF3ntPptNOG0vbbdf5lWuDEL26vSiOxfz3FV4Mrg9iudqgYYwxxhhTHyyaGWP6YuONUzrrrIn0gAesPoUYBbIX5VzH+X3dvdNr2RpjjDHGmDWLlXNjTG3o33Nu5bxfVGZ87Dk3xhhjjKkPFs2MMbUhKuS9KI5SMtdbb3qH6Uq/ZWyMMcYYY9YMFs2MMbVByrY+3dBx66zjOee9Esu2lzI2xhhjjDFrBivnxpjaEJXFXhRHvXN9/fWnd5i+sHJujDHGGFMfrJwbY2pDVBZ7CbneZJMV6elPn0wnnTQxvcf0g5VzY4wxxpj6YOXcGFMbUMhRGPXpBgvBnXvuuJXzAaB8PefcGGOMMaY+WDQzxtQG3lkurDiuXlDO73Mfz9U3xhhjjKkLFn+NMbUhesx78ZybwTjllPF06qnj6WEPs3JujDHGGFMXrJwbY2pDVMytnK8+nvWsyXT++eN+P7wxxhhjTI2wcm6MqQ2ac15s26trjDHGGGNGByvnxpjaYM+5McYYY4wZVaycG2NqQ1TKrZwbY4wxxphRwsq5MaY2RIXcyrkxxhhjjBklrJwbY2pD9Jr7VWrGGGOMMWaUsPhrjKkNcUE4e86NMcYYY8woYeXcGFMbokJu5dwYY4wxxowSVs6NMbUBhTx+jDHGGGOMGRWsnBtjaoMUct5xbuXcGGOMMcaMElbOjTG1QR5zLwZnjDHGGGNGDYvAxpjaIKXcyrkxxhhjjBk1LAIbY2qHlXNjjDHGGDNqLKgI/Itf/CLddttt6Qtf+EL605/+NL3XGDOqaK65lXNjjDHGGDNqLJgI/Oc//zl9/OMfT/e9733Tb37zm/T5z38+LV++fPpfY8wo0loQrvg2xhhjjDFmVFgwEXidddZJ++23X9pjjz3STjvtlO655540NTU1/a8xZhTxgnDGGGOMMWZUWWMisELY9fnd736Xdthhh+xBv/XWW9M222yT1l133emjjTGjiJRywtuNMcYYY4wZJdaYco7iTQi7Pvz+1a9+lV71qldlxfyJT3xiWksxrcaYkcSec2OMMcYYM6qsMRH4wQ9+cHrSk54089l0003T4sWL09FHH50OOeSQtP76608faYwZVWSfs3JujDHGGGNGjTmLwL/85S/TN7/5zelfKS/q9p3vfCeHrt91111pbGxs+p/Z/PGPf0ybbbZZuuOOO9KVV16ZPvOZz3jOuTEjjpTzddYpvo0xxhhjjBkV1lqxkuntvkExX7RoUZqcnEzXXHNN3nfzzTfnOeSPetSj0te+9rW86NtRRx017yHrExOTK6/r1d2bxrrrrp3bwsSEDTGjAHV9n/usl8bGJlIvQ83vf7/WyvFj3bTRRivSwQdPTu81TWP99dfNxtapKa8dMAqsvfZaab311k3j45M99XPTfIqxvajz5ctd56PAOuusnfu65bfRgfrmeT425rG9Gyqr+dB3B1bOf/KTn6TzzjsvL+i27bbbZuUcJX2vvfZKb3jDG/Iq7KzAfvbZZ6fLL788bb755tNnGmOMMcYYY4wxJjJwWDth6WeddVY6/PDDp/cUCvuSJUvyq9GwHGyyySZpgw02yCuzG2OMMcYYY4wxppqBlfPHPvaxad999521kBsKO0r5hhtumH+zzf/t5p0bY4wxxhhjjDFmDsp5FetMr+LEonCCqPm1vfSyMcYYY4wxxhjTlnnVmrfYYousiP/617/OvycmJtLSpUtnPOnGGGOMMcYYY4xZlXlVzh/0oAelPffcM334wx9Od999d3rPe96T552jtBtjjDHGGGOMMaaaeVXO8ZrzarWf/vSn6dhjj03f+ta30rnnnpsXhTPGGGOMMcYYY0w1c3rPuTHGGGOMMcYYY+aOV2ozxhhjjDHGGGMWGCvnxhhjjDHGGGPMAmPl3BhjTN8sW7YsvyrTGDOcTE1NpT/84Q/59bju68YYs2awcm7mjcnJyfSTn/wk/fKXv8yv0PPDfDT41a9+lb7xjW+4vkcElPJ/+qd/Su985zvTvffeO73XDDOM6d/85jdzXzejwV/+8pf8xp2rrroq9/m11lpr+h8zjGCI+fGPf5w/1L2f56PBPffck37+85+nP//5z9N7TB3wgnBmXqAZXXLJJek//uM/0tjYWHr605+eTj/99Ol/zTBz0003peuvvz5/Ntxww+m9ZhjB+Paa17wm1/M555yTHv7wh+e3dJjh5eabb07XXnttut/97peV9Ouuuy5tvfXW0/+aYeRzn/tcuuyyy9K2226b1ltvvfwWHr91Z7h5wxvekL7+9a+n8fHxtPPOO6e///u/T+uuu66NMkPMRz/60XTDDTekjTbaKDvXLr300vxMd50vPJaqzLzwyU9+Mk1MTKS3ve1t+fV59rKMDhhmfve736U3v/nNeYA3wwn9+5prrklPfOIT0+LFi9NWW22V99u+O7zgVXnXu96VLrroovTe9743vfKVr0wPetCDpv81wwZ9mT7+gQ98ICtrL3rRi9Jf/dVfZWGd0HYznHznO99JP/vZz/K4TqTED3/4w+xBt5I2vPzXf/1XVsxRyOnzj33sY9OrX/3qvN/P9IXHyrkZCAT1JUuW5E7M53vf+162tmKB+8///M/0f//3f+mrX/1qDo8ywwHCGdMVIA7ehEMdc8wx6bbbbsuWdzM84EUhEoa6x4NGH6fuCXP9+Mc/nt797nfnyAmHxA0HsY+zjaecz3bbbZf+/d//PQvt1DfbFuCGB/o4Yc2w9957Z8X8UY96VK5j7beiNjxgRI/y209/+tM8hjNN6fvf/36W77773e9mo7sZDjS2U99s/+hHP8rfO+ywQ1p//fXTGWeckcf6f/7nf87jgVlYrJybgfjHf/zHdPHFF0//Slk5O/jgg7PV7Ytf/GJ6xjOekeel8pD/4x//OH2UaTL/9m//lj1nZXiAP/rRj04nnnhinqP4ta99LQ/8pvlgVceLJsEc5fxb3/pWjpKgPQCeVeod4c4KW7NhWhJecuqROn/gAx+YPaeM6bfcckt6wAMekD1sb3zjG/OxZjjAY/av//qveXunnXbKRnYEd+oeRY1tK+fDwyc+8Yn0spe9bPpXyvIahtgXv/jFWW575jOfmT772c/mqQ3/8z//M32UaTLIZMjsWj/i/ve/f/7GsbbOOuvk+n/IQx6SnWu//vWvp88yC4WVc9M3dGI8J5///OfTt7/97SzIMU+Feag77rhjuvrqq9PJJ5+c5yxhhWOxCdNsqOO77747C+nMQQUENmDOMfMRn/a0p+UHAA90/WeaC56VO++8M91+++15igr9fvvtt0/3ve99s8B29tlnpxe84AXpta99bZ7G8tvf/tYCfMP5xS9+kfs405SoS/r1U5/61DznHMHtsMMOywL85ptvnr70pS9Nn2WaDEa1r3zlK/lZLa8aMK4z5xgvq9/MMDxgbPnBD36Q7rjjjryQK/X913/91+nKK69MT3jCE7IB/qSTTsrfyG6EvJvmg1dc8htjO7I6YzuGOaYynHDCCemQQw7Jz3dHTCw8Vs5N37AoFA/0v/u7v8vzEAlh1wMdAZ4HOmyxxRbZ8q4wSdNcCHPCEMNgfvnll+eHtgQ5tglxZv+TnvSkXO8PfvCDp880TYS6/fKXv5w9aJtuumkW3Al9Q4hDcHvJS16S/+O4bbbZJj/sbZBpNgjteE+f8pSn5L5MqCvK+bOf/exc90xrkMKOR93jevMhZP0jH/lInraABw0jG3VMv+ZD3+cZjtGV/ab5YGTHkPrc5z43Rz0R2cjYjdzGc/4+97lP/k0fZ7xnXDDNBgMbUw732muv9Na3vjWvJ8Dz+4UvfGE2tm655ZbpFa94RVbON9lkk/z6RLOwWDk3fcM88t133z17x//0pz9lyyoPbgYAvCms5swDAM/63/zN3+QHv2k2eFFYrRlPKdb1G264Ie+n3vlvs802y4M73lR+Y5E3zeY3v/lNOvbYY7MQR0gzghvhb8xF/f3vf5/bAEIeYe8IcjbINBv6LYoYxpc999wzryeAkM6UFRR0QmFpBxjpmJe6xx57TJ9pmgp1jrH9+c9/fjrwwAPzGB7nmKOcPeIRj8jriWB4N80Hoxp9+tRTT82/WRuIdoByzjfKGxE0yHLIdCwUZpoNz20+jO0o6CwAx9iO0ZUFXjfeeOMsw1HvyPdEyJmFZZ1XrWR625gMD2dCWoHBumwxRwhncEdZY6DHa8qDHc8KD3BCIgmFxTrHHBescqbeMFBrgZiqOmdgf/zjH5+NLQ972MOyt4XVugl15bV5KOy0B7xqeN4wyJTTMPUCwYv+Sz1RvxH2MfeU0DfmprGWBOFw1DXtA+Mbyvmtt96aDXQXXnhhbhumvtDHqW++q/o4++jjGFqYpsRrdhi7H/rQh+Z2wNhABAUemAMOOCBH0XCOqTcY1fB+Ut/l+mLfk5/85DyW81xnnjGe1F133TX/h8LGImH0cwnxpt4gv1Fnqu9yP2ec3mWXXfLzmj6N/Lbvvvtmjyn9/jOf+Uzu58w9Pu+88+xcaQDUo8b2dv0cGY03bfzt3/5t+tjHPpb7O7Ic5/DqRIzs1P1+++2XnwMe2xcWv+fczEKrNfLNg/jQQw/NwllsJnR0/WYuKvYdwpmPP/74vA9hAOsbc1ewvJt6g0Hl05/+dF7gCQMLQhheMRQ21XOscx7+WF6Zl8S6AlAWAEy9oa7xhiHEIazhOcNrSh2rrmOds8YEq7lS3yhlwHQWzkeZ84O83qCc0cepRxQuIp8Ys9v1cQQ25pnzHGB8V/+m7yMEEhJp6g9TU1igk/rH0HLkkUdmb5mE+Ah1j7f07W9/e65zPObAuSwQhSBv6g2RTMhv//3f/5376EEHHZSnHQnqmLGab+r/f//3f/Oinxhi5Umnf2Oo53mAsd3UG/oyYzsLtFK3u+22W9pnn306ju0s4IrBnX7OeEAfx8jOMX5VZj2wRGVmYNEXvCV0XsIYEbwR0ECDOQM/HVsrPmJ9O+qoo9I//MM/ZEsrMGeJEBkr5s2A6QfMNWXFVh7k119/fV7wC0GcOiaM9eUvf3kOZeY3wj2eMxaVQfhjn2kOKFzXXXdd9pZhJb/rrrvy3EM9vKl31pKgXVC3fHjdCsIb+xHogAUg6f9WzOvPv/zLv+SpJkQ+4AmjjyPAU9fA1CRWb8bgRn0j2O2///455BmFjTrmg/HOinkzwBDzzne+M3vBMbZ+8IMfzJ5xKeYocrxNhdX3+U39YpilrzOFQcchvFsxrz9EQlFvOEZYD4j6o/6pQ8lveEgxrCPbAXLac57znDyFhfYCyG3st2LeDFjkDTkMozlTzohoI2pVYzv1ytiuBVsZ23kOMG2N5wL9HpkdI7sV8/pgqWrEYQCXUM4ibyhcCGVYUglVRzHDE45ids455+QHPJY5Kd50bEJgXvSiF1loawjUN/WubV6d8rjHPS6HulH31C1zj/gPpW3RokU57I0HtkBYY3VPBnRTf2I/52HNg/tZz3pW7su8ApEwN4Q7HuqHH354NrQxBggMMowHGO14kJt6U+7jvPqSuaMoahjWMKygnAOKOt4z+nicmoCnlWgoC2zNQHWufo43jXGaeuXd5RhfmV/M/yz8xjMbBYxQZoEiTv8nBBZB3tQb6lv9HDkNIztvTcHAwnjNQn44UpiqgIEdZZ2oGULaAfmN5z5tgbB2U3/KYzsG88c85jH5WY78xusuMapSt8jrrMbO1JUoq/G2jeOOO85TTmuM55yPMAjpzCWjI6NYE8aEx5SOzuDNar2EyrCCI5ZWhLTTTjstr8YdQVhH6EPgM/WGaQgs6oQRBmUMYZwHOAuAIMgR4k64M4I8gzzhTiwKRpuIwhrWV8Ieo8Ju6gkCOdZ1PGQ8lAlZRGDDIEOdEvaKN5x+jueUuubBXTa2YbRB6LNyXm8IQSbCiakL9Gf6MSGMeMyZb0ifZtxnzGZMR6g/+uijZ+YZC/o4kTReS6D+UM94RYmOYIznGU074JnM+jAI6p/61Kfy6usI8TznUdYx1PBfhPZCO7FyXm8woGKAQX5jCiEyG2M83lMUbQzsKOuEtjPes+/000/P0xQjGGQY8+1cqT88pxnbkd2ZfoDCjfy27bbb5kg4QL6jDaB4I7ezoCt9vjy2c7ydK/XFyvmIwmq7hKLzEOcVKjzYUbaYq6JFXxDoGQB4gDPwY2HHg2aaCXOEmaaAcE693nTTTfmhjgeVgZwBm1AnBn+8qQhyKOw2ujQX3mVLmBsL97FII8Y2PCd8MMYh1L/vfe/LXnLmIKOI0c9pC6Z5IIy94x3vyP2bumWxJ4wqrB1CH2f8xgCDoobQjnGNPm7BvNnceOON6c4778wK2Ic//OEcBYfyjZBOP8cgx3usqXMMsbQFDDNlxdw0AyKcWFWdOvzhD3+YDer0Y0KbeW6jiGGoIZSZZznPecZ1pqWYZoIRlcgHzQ1nCir1edhhh+W6Z2znP/o/dY6Rjf1exLGZeGQeQRTWhuWM0OT/9//+X7amvuUtb5kJl0Gww/PCaxcY6PmNwGeaC1ZXBHO8ZLzfEqWcuWbMUcMbSj3jZcW7ykOftoCwrzZhmgWh6xhgWD2ffn7ZZZflumbVdRQ2/se7hoeFtgAI8QgBppkw/QgDG32cNQIIUcY4g2EOJY0+/pWvfCV7TOjn7uPNB2Mrb0hBIKefM0UBjyneNQRz6pZt+j5T0ADlncgp0zyQ3zCy0oep75e+9KU5ognjC3WKwYVjvvvd7854TGWQN80FxZvICBZ15JW2xxxzTJ6uxH6N7TjUMM5gfPPY3mysnI8gDNwM1rKa4xU/4ogjcngTXlP4wx/+kIU8rOwsNnH55Zf73dUNBwOLwDOKp5RXJC1evDiHvUnII6SdhwDGmve///1W1hoKyreENcArjtKGpwXDG22AbwwxRNDgTX3Na16TvS2mmdDHGd+B+mWBr5133jm96U1vmunjrC/AlAbmnBM9xZxF9wf8qdIAABSfSURBVPHmQp3S1xHOgZB0FnrkdZfMNQYWgmPeKTCmv/KVr5z5zzSLsvym6DeiJoiUkVJGuDvPd159iOKO4maai8Z2+jl1j6GNKStXXHFFNrzwrP/Qhz6UDTJMbXnb296W1wyyUaaZWDkfASSsRVC6WYUXJRz0QMfaykMbaxxemDe+8Y3Zu8qDHYHONINynfPAJsyJgfrnP/953oeFlUVjWL0bJQ2vKUo5xpjXve51OQyOBcC0+J+pN+U6J+SNhZ1QuhHW+P+Rj3xknp/GKq38RhFHMXvJS16S554zPw2ru6k/VX0cAwyCO+uFAO+oZ5EgIiTwttH/6ePUNX2csEdC3t3Hm0Osd7ZRzpgzrFemyShDNBTvLWbf3XffnRV4FgXj2f7iF7/Y64U0hHI/B9aCIDrinnvuyb+JfCRyguc4YzqRMkTKMcWF8HemMdEmTDOoGtuR1+jbrB8CRMUwdYV6ZuFmxnYMMmwTPYPBHacb44NpHlbOhxgGbwRzOjYfgdWNFToJi8KyxkObfYSw08HxsGB5Q0lnUGeeCyu++tUa9Yew9auuumqVcCbql8EcZY3VmbGyYoHF+krkBMI7gzyKGsfxih1ex8Krskx9QfBmtX2EMuqz/FDHuILRhdei8R9KGNZ2FoSifSDc0dcJlXvta187s0icqS/0cbwlhCmX+zh9GSGcdQQUtownhXUj1MfxwHAc3jTmKxLebuoNdf36179+lagW9XmMarwOT4ZXlDUM7kTJ8CzgQ58/++yz05lnnpkXB3Q/rzeM6Yzt9ONyP2eNEOqYyBdFTTB9ieeB6pqpCxhtmNaC48XrStQfnsco1hhXynWOsQ0ZnTnlGtuR44mYwMGCM436JwIWwyuKOWvNuJ83EyvnQwweUCynhC/qIU6HRwFjpc8TTzwxzzFmMTj28VFHxlNO+Buv0jHN4Vvf+lZ+oBPGSH3rA1qxGc8JCjrf1DkDP/WOR5X9hDbbq9IMEMTovyha1KegnxMVw8KPJ598cjbSsR1D3VlA5vnPf36et8brd0wzQAkjZJlFoKjnch/feuutc7sg4gkBXeM6Hxb9fM973pMFQK/C3hxYFwIv+NVXX50N6KpvvvGKY3hBUMcogwKPkM5/1DljOev+EvLKAnGmGbA2BH0YAwv1SH3S3xm/kd9QvphqyFREHCp8GNcBgxxtgXUnTHMguompCay4Hsd2PozteMN5hiPXS37T2M4aUrQXpqDaqdJ8vFr7EMOgjaeEBzureAKKOlY1wh4JiUFYQyFjUODhT7g71jmsdF6lu3l84QtfyN4TBu499tgjLxSCNZb547QHPOXUO4YXwiBR4vGk8bo0vGmEvpvmQD1T51ja8a7J833XXXflKSkI6XjPOQ5hDQUdoe+Zz3xmDo0k5A1Lu2kOzB2lj6N4EwlDHWKIIXwVIwyCOX38Ax/4QK5roiZQ6Hg9Hn3cr89pHrwuSaGrKNtMOUJJQ5Ansg1hnFchMqazpgBRcyhwvL+a45neYJoFz2sMLRheZDxFlmNhT16Fyj7Wh0F+o22g0DFNhf3Ib16lu3ngLCM0nee5Xk/Ms/vtb3977tfUN9OUeH85zjempxHhetJJJ+VjWT/GDAdWzocAwlYRzBHKmZOCxQ0LKguBEOKI0q0VuAmJQShntW4ENQZzBHrO4VissX5dWv1B6dKCPtSXrKsI7gzqLOZHmBMhzAziCPKsyk99M3dp7733zvWPkHfOOefkbVNf6J/UIYYU+jn9m308xKlrlDQEdcIYmWtO9ASvTSJsmd/MNScUEoGeFbyZrmLqTbs+Tn/GS0r/xvhKf0cJ51jmFBPOTB/ntZgIbPw+77zz3McbAF4xjKl6htPX2UZgJyyZ8RsBnv6L4oYyftppp6U999wzG2n45hjqmv1eP6L+YHCJ8ht9HOjnGNgxvqJoU5eM8chxrBnAPsKWMbhzLuMARnYbW+sPY7vWe6LOgXpHZudZzXOdUHUMreyjr7OII95xDG1MM1WbuPDCC+1IG0LWWtkgZk9SNI2BqsPjTZgiILzzQCZ0jQ5/wQUXZCWcdx0jvOFBQ4j3A7u5UOeEMSq8EWWNlVpZeR3hDCGcueIoYazWycMaBRylTQ8B0ywQzm+99dbsSaEOUbaxlBP1gkftE5/4RH6ljuYfIqQRKcNcNNNM6OPXXHNNDk+nj+MVZaoR637w6iQiHwBvOSvwo4DTx21YbS4I5Ewx4ZmOssU0I4zlRDpgbKMdYHAh8o265jnOby/41Ex4lhPJROQD2yjoTEFSP2Z9AOQ5oqAY+1kXBM8pz3PTXFC6r7322mxMRUknygllG4PaRRddlLdZG4ZoR+qcfk69e2wfLTznvIHInsJ8E+aaEoZ+/vnn53AmFnj73ve+l//nAU+HZnEQ3nPKXEWsbQj7ppmgfPG6M8IY8YTjBb3xxhtnFv6jTRCajqWVD3OQHNLYbIiMwWPCok8IbMw7o17xsDEWYDVnviH9/NOf/nRuIzzoNU6YZkH90Z/px/Tx5zznOXmOOUYYjG4oaShs6uMI9/RxxnvTXJhTynSzc889N51yyik5nJl+Tn1T70S/4W1jAUcMN4Sr20vaPKL8hkEVzzcGN8KV6cvf/OY38/8cx7Q0lDmMsERMWH5rNoztGNp5ZjO280xnOsJHP/rR3MdR1unnjOtExGF89dg+mlg5bxAM1jyoGZzZpgPzAMfSisCOB4WQdYQ4rPAM8njOGeAZ/Hmo80DQoiGmGTBo86HO8ZYz74wHOuFtGGQOOOCAPHWB1V15kDPoEy3xile8Ij/MebDba94cZGSREMarr9jGk8YKvUcddVQeB/CmobgzF419TE/B0s7UBurbD/TmIMEs9nG8JfRxPCm88hChDiMr4zh9nAXhXvayl+UQduYXu483C/q0nufAOgIYXRDOeTc9EVAY1PGaopQvXrw4R0bhTWcK2u23325vWoOgb9PHqW+29aYM+rlee0XU480335ynrBBBccYZZ+RnASHNtAHkOstvzSKO7dQlYzsyO2M70wuZfkZfpq/THqhrZHgcbhzDmO+xffTwnPOGQKemw7IQBN4xOjxzSLG6YYVjngogqLFIBJ5VLOssAoTAzgMfxY2QKI4x9Yc6Zr4RIVAI4nhGmXPEon68j55XpzDgs4+BHUWNUGdC3E8//fS8uB/7CINmvx/q9QeD23vf+97c17/0pS9lwxrzi1lpeccdd8zCOyFv1DtCO/2eVbcxvvG6HELZmZ9KaDvnmnpDH7/zzjvzgj/0cQQ3+jPfLPKEYk5dM24jrCOc05eZi4rgvsMOO2RlHuHNfbwZoJzhJccrRp1Tr0RJ4CHj2c64jtJNv+a1eRjZUdowzGFwxTDLgl88zzHIMb6beoMRhrplUU7GbfosfVevuGSMB+Q2xn3GcRQzZLdjjjkm1z2OGJR4L+jYDBjb6btEudDPkduYfsQznqkKTD2j7tmHYwXjCwZ4jDVnnXVWft5LqUeW89g+Wlg5bwiEqmNRZbBm0EYpxzPGgxrPGcIac88Y1JnHhBDH/CUGdY5DoKfTIwTYo9YMmHfKa80IfcIQQ1gbr0pjniHTF2R9RVBj4GbAJ1KC/drHoI4QYMtrMyCcmblohDIjwBHOjAKOcY4HOP2cekWIQ4Hn1XiMCRjiAMMb01y8+FczQAnn/fJ4zfCWYoxDWUdBYxVm6h7DKv2ZEGb+I+QZ44v6OG0AQc5e1GbA3GLC1akz6pnIGJQ2hHXGcJR3xnvqFqMMY8DBBx+cw57p1zy/mYeKEdYGuGaATMb0M8ZqFnEj0o3xnYX9MLwyrlO3OFpoDyz0yHxz6p92QF/nuc5YYPmtGeAFZ2V91npiYV76NlFt9HPelsO4TVvAuEbdswAga8kg09OvqXcMrjwDPLaPHjbF1BgEcsKbmKeCUMbAjaWcEEcUNpRyOi4KN9ZYOjMCHJZVvGd0egZyPvxHh/fAXm+wlDLXiLonHJ2HNN4zFC7CnfC40CaYa/6mN70pzzXGsspDG4OM6lpQ51bM6w3COq9LAULYENp5cBOqjkfl9a9/fa5/DDPUP/XJdAUUcgw4enBT9/R5BDlTX9TH6buM0/RxBDaULVZbZx//s9I+a4oQ/aI+TluB2McxvFp4qzco3HjGWOAP4xtzy1G2Edp53RmGdd6kwr4rrrgie8zpzzK+ck4cx2WsMfWFZzj1iAeVV9sxNrMgLwuAnXjiiVlmY2V9xnpkOaAfI78xrkf5jY/lt/pDXeMZZ2zHyMI4TkQbxhemIGGMZT9TVljYkfEAiIhgnEfW99huwJ7zGsKDmNDW6667Lr9GA48ZnZSOjrDOg5yQN4R19rFy70033ZTPo7NrZXa85qYZILwR+sQK64RCESVBnfOQlgEGgQwBDQvrqaeemsMhCWfnOPYhvGN1tTLeDJimwLvIWeCP/svbFrQ6N1EuPKS33nrrdMMNN+RwN0JbCX9GaCNEDoMdlnZPU2kG9PHPfvazOZw59nHqEq+5+jgfxn0in/C4Mc6rj3MM843dx5sBRhUMaldddVUOYebNKijVKG2svM8aMdQlXlGe+ShueNFYT4LnPNOXEOiJpOF4U38wkrPq/jve8Y4coq7+iyeVeqZ+mcLAOhE836lbIiEx0jH2I7+xlgxjv2kG9HOmk7LC+je+8Y28gCt1Tt/F+IKRjX5PZCvzyzHOYKDjWI6jzjG4Y6Dl+W6MlfOaQSdnQMeDxuIvCOkobQjgDOQIZ8xJpAPzsGa1z+c///l5IP/hD3+YB3zOcSdvFiwOQ6gji/qxQAjWV4R2LLF8EN6xoDKAExLHQx5vKvMOefjzDlxCH/nf1vX6g/eUsGXqlLnDeMt5sDP/jIc29c2DnD6OssYYwAOdfT/4wQ/yQx/rOwp7tLSb+oLxBYGdiAj6Kn3+xz/+cVba8bIpfJE+jABHG2AKC0I9fRyhnleq0Qbcx5sBHrSLL744e86e97zn5Wc3KzOjnKG086xGCec3fRrvOq9FpD0gA/Cb9sK44H7eDDC8MT3lnHPOyZ5yjGp4vZkzTj1jkKGf059ZnR3lHAWOSDkcMUxpYKEwxn3TDDDI4FghopFX2+IFx7DKOM1/PKeRxxm7UeKR1zHE0SZYWwTFHScb0XAe2w14tK8ZCGrML0dYxxPKnBPml2JR5T23LCpCaCMdmHlnDPL8xmPKIhKs4ovXnAe+aQ48mBHkEMgZoAl3JMSJhb4YzBHkqHOmNvA/nhciI17wghfkRYLwsjF/yQN7M+CBzRw0FGys6gjpPLyZY0jfZZ4p7QEYCzDQ0B5Q6jDaXXDBBXk8oP+bZkAfZ6xGCacPY2BjvOfVWXjKMboAQjv/M32FPk10BH2cueaM+e7jzQHhG68Yc8sJV+YbJRvBHEUMbzr9GhDYiZxBUEchp4+zYjOCvSMlmgNGFcLV6auM53wjv2F0x7COUY4+jHyHAs6UJtaQOPPMM/O0FtafwNhumgNTkahXIlsZu3meM7ZTpzjb6OuAlxwHG8fy3MfgTp2zvgAGOI/tRlg5rxk8hJmjopAmLHCEv6Kg4ynlf0LkEOQIaWYg4KFPp+ahz//u4M0DZRyBjTrkgxcFIY0F3QhjZQERQhyJjEBpYyAH1TnfpjlgQWfdCBRy+iuKGB5SBDmMazzM8axjlCF8nf6PYSb2c9MsULJYLyT2ceqfPk6kE2/iYEynjzPuI+CD+3hzwYDKnHKMaPRd6hwDDUobRheUcwzuCPf0dYwxOtZ13kwwwOD9BpRy5DemIbL4G0o3EVLIb0xLY0xHSQf1c8tvzQOnCp5vPZ+JcqUumY7GFAUWAySigj6OYd5ju+nGWiuIoza1Aosb1UKnJcT1oosuygo5AzydnpVdmV+O8kYYDVZXd+7mg3cUwYy6v+SSS7KH7dBDD811zcrcKGz8h5EGK7ynLTQb6pt+ywfr+oUXXphXa8dzivDGAlE8yBHgeCUi4ZAW3JoNdS4BnFXaEd4Ia8V7xtoDRE3Rx/fcc88cJcEYb5oNU1ikcDMXmRWbL7/88ryP7c997nPZGINBHoMdnjX38+YS5TemnTGtAe8oBnV+Y4Rj2hrPb0KgUdotvzWfOLaziCsGdaayYIzjuY7hlSgZ6htFnqkOxrTDynnNYdEgOvbVV1+drbAsIIGXVR43z0saPlDGCXPigU5dEw5LN9UCfwjsfpgPDwjvixYtyq/W0QquLByGxZ16Roi3IWa4QBlnUUcMMoRAMvcc4U4RMe7jwwcKOOHqTGUhnJVxnmio3XbbLT/L6eP0dTM8MCUNZ8rixYtz3bJ2BFMVmbpEndPPbYgZLlhbhKgYpqQQ9cjq7DK+Icchs3tsN91wC6kxWGDxoBEyw6s4EORuvfXWPMjTwa2YDyc8wLGqsigQ7znn1ToYZqhv9ntgHy4Q0nmAH3DAATnElbUjWAwQwY05albMhw8tAoRCjgcdTwv93X18eKFPM3WFaQys2s4aAiz4Rp3Tz62YDx9Eu6GMszgYxnZW8aZvS36zYj58YHCjjvlgbEeGYyqi+rnHdtMLXq29xqCc4zln4ShemcZc1COPPDJ3cA/qw8sdd9yRwx0JfWOVX6ywXixkeOEVOrzzViHNhLCzKjchcmY4waPGInDUPWGO9HFW8nYfH15Q0HjrAs9y5hnzlgZW87awPrzwijTWDKHOmYpG5ATzzt3PhxemqDG+I7897nGPy4v1ekqa6ReHtdcYlHPed0o4DPOPPUdlNCA6gtCo/fffP883NsMNghvzjVHIeWUiHlUz3KCk4TVlgTj38dEA4xv1fvzxx+fX5dn4Nvzw1g3mHjN1BaeKGX5Y5JG1BZhXrkVcjekXK+fG1Ay6pAd0Y4YX93Fjhh/389HDdW7mAyvnxhhjjDHGGGPMAuPJTsYYY4wxxhhjzAJj5dwYY4wxxhhjjFlgrJwbY4wxxhhjjDELjJVzY4wxxhhjjDFmgbFybowxxhhjjDHGLDBWzo0xxhhjjDHGmAXGyrkxxhhjjDHGGLPAWDk3xhhjjDHGGGMWGCvnxhhjjDHGGGPMAmPl3BhjjDHGGGOMWVBS+v+mPxBfc2eOOAAAAABJRU5ErkJggg==;" vertex="1" parent="1">
          <mxGeometry x="530.5" y="300" width="179" height="96.94" as="geometry" />
        </mxCell>
        <mxCell id="U-0KYbAQYJ0Kd4MkvcGv-31" value="" style="endArrow=classic;html=1;rounded=0;exitX=0.5;exitY=1;exitDx=0;exitDy=0;entryX=0.5;entryY=0;entryDx=0;entryDy=0;" edge="1" parent="1" source="U-0KYbAQYJ0Kd4MkvcGv-28" target="U-0KYbAQYJ0Kd4MkvcGv-30">
          <mxGeometry width="50" height="50" relative="1" as="geometry">
            <mxPoint x="430" y="210" as="sourcePoint" />
            <mxPoint x="480" y="160" as="targetPoint" />
          </mxGeometry>
        </mxCell>
        <mxCell id="U-0KYbAQYJ0Kd4MkvcGv-32" value="&lt;font style=&quot;font-size: 9px;&quot;&gt;20 kHz sampling&amp;nbsp;&lt;/font&gt;" style="text;html=1;strokeColor=none;fillColor=none;align=center;verticalAlign=middle;whiteSpace=wrap;rounded=0;" vertex="1" parent="1">
          <mxGeometry x="160" y="303.47" width="77.5" height="30" as="geometry" />
        </mxCell>
        <mxCell id="U-0KYbAQYJ0Kd4MkvcGv-34" value="&lt;font style=&quot;font-size: 9px;&quot;&gt;Mean absolute&lt;/font&gt;" style="text;html=1;strokeColor=none;fillColor=none;align=center;verticalAlign=middle;whiteSpace=wrap;rounded=0;" vertex="1" parent="1">
          <mxGeometry x="366.25" y="162.50000000000003" width="77.5" height="30" as="geometry" />
        </mxCell>
        <mxCell id="U-0KYbAQYJ0Kd4MkvcGv-35" value="&lt;font style=&quot;font-size: 9px;&quot;&gt;time to frequency domain conversion&lt;/font&gt;" style="text;html=1;strokeColor=none;fillColor=none;align=center;verticalAlign=middle;whiteSpace=wrap;rounded=0;" vertex="1" parent="1">
          <mxGeometry x="572.5" y="155.00000000000003" width="77.5" height="30" as="geometry" />
        </mxCell>
        <mxCell id="U-0KYbAQYJ0Kd4MkvcGv-38" value="&lt;font style=&quot;font-size: 9px;&quot;&gt;MinMaxScaler&lt;/font&gt;" style="text;html=1;strokeColor=none;fillColor=none;align=center;verticalAlign=middle;whiteSpace=wrap;rounded=0;" vertex="1" parent="1">
          <mxGeometry x="471" y="212.13000000000002" width="77.5" height="30" as="geometry" />
        </mxCell>
        <mxCell id="U-0KYbAQYJ0Kd4MkvcGv-41" style="edgeStyle=orthogonalEdgeStyle;rounded=0;orthogonalLoop=1;jettySize=auto;html=1;exitX=1;exitY=0.5;exitDx=0;exitDy=0;" edge="1" parent="1" source="U-0KYbAQYJ0Kd4MkvcGv-39" target="U-0KYbAQYJ0Kd4MkvcGv-25">
          <mxGeometry relative="1" as="geometry" />
        </mxCell>
        <mxCell id="U-0KYbAQYJ0Kd4MkvcGv-39" value="" style="shape=image;verticalLabelPosition=bottom;labelBackgroundColor=default;verticalAlign=top;aspect=fixed;imageAspect=0;image=https://i.stack.imgur.com/EuitP.png;" vertex="1" parent="1">
          <mxGeometry x="436.75" y="187.87" width="108.75" height="24.26" as="geometry" />
        </mxCell>
        <mxCell id="U-0KYbAQYJ0Kd4MkvcGv-45" value="&lt;font style=&quot;font-size: 9px;&quot;&gt;Data Preparation&lt;/font&gt;" style="text;html=1;strokeColor=none;fillColor=none;align=center;verticalAlign=middle;whiteSpace=wrap;rounded=0;" vertex="1" parent="1">
          <mxGeometry x="370" y="110.00000000000003" width="77.5" height="30" as="geometry" />
        </mxCell>
      </root>
    </mxGraphModel>
  </diagram>
</mxfile>
